ply
format ascii 1.0
comment Created by Blender 3.5.1 - www.blender.org
element vertex 458
property float x
property float y
property float z
property float nx
property float ny
property float nz
property float s
property float t
element face 170
property list uchar uint vertex_indices
end_header
0.015380 -0.160269 -0.000986 0.956728 -0.233456 -0.173696 0.492765 0.653653
0.013954 -0.117419 -0.066433 0.956728 -0.233456 -0.173696 0.420963 0.607510
0.068750 0.060991 -0.004405 0.956728 -0.233456 -0.173696 0.492765 0.405335
0.068750 0.060991 -0.004405 0.936853 -0.184435 -0.297135 0.809535 0.000981
0.013954 -0.117419 -0.066433 0.936853 -0.184435 -0.297135 0.809535 0.215527
0.051515 0.045507 -0.049135 0.936853 -0.184435 -0.297135 0.767974 0.036931
0.013954 -0.117419 -0.066433 0.936849 -0.184433 -0.297149 0.774078 0.684910
0.032558 0.028478 -0.098333 0.936849 -0.184433 -0.297149 0.720592 0.529692
0.051515 0.045507 -0.049135 0.936849 -0.184433 -0.297149 0.774078 0.501542
0.020426 0.140211 -0.081320 0.934501 -0.004289 -0.355934 0.454442 0.184622
0.011821 0.181100 -0.104405 0.934501 -0.004289 -0.355934 0.454442 0.236698
0.033245 0.172510 -0.048053 0.934501 -0.004289 -0.355934 0.402947 0.194731
0.011821 0.181100 -0.104405 0.932767 0.027841 -0.359404 0.623892 0.323517
0.011821 0.281637 -0.096617 0.932767 0.027841 -0.359404 0.706836 0.251262
0.050352 0.181100 -0.004405 0.932766 0.027841 -0.359404 0.706836 0.405903
0.011821 0.463056 -0.066206 0.947047 0.059644 -0.315508 0.219789 0.745792
0.011821 0.589769 -0.042252 0.947046 0.059644 -0.315508 0.287186 0.622311
0.032410 0.463056 -0.004405 0.947047 0.059644 -0.315508 0.287186 0.768312
0.032410 0.463056 -0.004405 0.941770 0.053887 -0.331913 0.825562 0.416176
0.011821 0.589769 -0.042252 0.941770 0.053887 -0.331913 0.781794 0.276890
0.023774 0.613985 -0.004405 0.941770 0.053887 -0.331913 0.825562 0.251262
0.068750 0.060991 -0.004405 0.958522 -0.228574 0.170265 0.400984 0.249299
0.030218 -0.032923 0.086439 0.958522 -0.228574 0.170265 0.302095 0.138374
0.015380 -0.160269 -0.000986 0.958522 -0.228574 0.170265 0.400984 0.000981
0.015380 -0.160269 -0.000986 0.944971 -0.252727 0.207748 0.894267 0.649171
0.030218 -0.032923 0.086439 0.944971 -0.252727 0.207748 0.894267 0.818452
0.013954 -0.117423 0.057623 0.944971 -0.252727 0.207748 0.866610 0.723399
0.050352 0.181100 -0.004405 0.933128 0.000000 0.359544 0.710564 0.120562
0.011821 0.181097 0.095595 0.933128 0.000000 0.359544 0.593659 0.120562
0.050352 0.071481 -0.004405 0.933128 0.000000 0.359544 0.710561 0.000981
0.050352 0.071481 -0.004405 0.926642 -0.016895 0.375565 0.149570 0.000981
0.011821 0.181097 0.095595 0.926642 -0.016895 0.375565 0.149570 0.168211
0.011821 -0.022429 0.086439 0.926642 -0.016895 0.375565 0.000981 0.002938
0.050352 0.181100 -0.004405 0.932824 0.025510 0.359427 0.104709 0.170173
0.011821 0.363893 0.082621 0.932824 0.025510 0.359427 0.104709 0.394988
0.011821 0.181097 0.095595 0.932824 0.025510 0.359427 0.000981 0.224094
0.023774 0.613985 -0.004405 0.941768 0.053887 0.331918 0.417774 0.819484
0.011821 0.589765 0.033442 0.941768 0.053887 0.331918 0.374006 0.793850
0.032410 0.463056 -0.004405 0.941768 0.053887 0.331918 0.417774 0.654569
0.032410 0.463056 -0.004405 0.947047 0.059647 0.315505 0.420963 0.794083
0.011821 0.589765 0.033442 0.947047 0.059647 0.315505 0.467241 0.655615
0.011821 0.463060 0.057396 0.947047 0.059647 0.315505 0.492024 0.794083
0.032558 0.028478 -0.098333 0.000000 -0.586012 -0.810302 0.836839 0.241850
-0.032558 0.028478 -0.098333 0.000000 -0.586012 -0.810302 0.836839 0.170816
0.011821 0.036874 -0.104405 0.000000 -0.586012 -0.810302 0.848142 0.219228
0.000000 0.036874 -0.104405 0.000000 -0.586012 -0.810302 0.848142 0.206333
-0.011821 0.036874 -0.104405 0.000000 -0.586012 -0.810302 0.848142 0.193438
0.050352 0.071481 -0.004405 0.331842 0.582004 0.742396 0.965897 0.479339
0.011821 -0.022429 0.086439 0.331842 0.582004 0.742396 0.965897 0.627941
0.068750 0.060991 -0.004405 0.331842 0.582004 0.742396 0.942900 0.481551
0.068750 0.060991 -0.004405 0.331948 0.581937 0.742401 0.625466 0.819047
0.011821 -0.022429 0.086439 0.331948 0.581937 0.742401 0.625466 0.967232
0.030218 -0.032923 0.086439 0.331948 0.581937 0.742401 0.602402 0.965852
0.023774 0.613985 -0.004405 0.960922 0.240802 0.136539 0.540689 0.796045
0.016809 0.677629 -0.067631 0.960922 0.240802 0.136539 0.540689 0.894204
0.005766 0.685846 -0.004405 0.960922 0.240802 0.136539 0.483366 0.853013
0.023774 0.613985 -0.004405 0.964954 -0.092445 0.245596 0.367053 0.910234
0.016809 0.677629 0.046917 0.964954 -0.092445 0.245596 0.378412 0.821446
0.011821 0.589765 0.033442 0.964954 -0.092445 0.245596 0.417774 0.910234
0.011821 0.589765 0.033442 0.933656 -0.105496 0.342281 0.206022 0.850166
0.016809 0.677629 0.046917 0.933656 -0.105496 0.342281 0.206022 0.947288
0.005766 0.659296 0.071389 0.933656 -0.105496 0.342281 0.174561 0.930917
0.005766 0.659296 0.071389 0.939834 -0.172447 0.294913 0.919352 0.128418
0.016809 0.677629 0.046917 0.939834 -0.172447 0.294913 0.884090 0.124629
0.005766 0.760141 0.130357 0.939834 -0.172447 0.294913 0.919352 0.000981
0.005766 0.685846 -0.004405 0.959721 0.246038 0.135648 0.864648 0.817044
0.016809 0.677629 -0.067631 0.959721 0.246038 0.135648 0.821770 0.760972
0.005766 0.760145 -0.139168 0.959721 0.246038 0.135648 0.864648 0.649171
0.011821 0.589769 -0.042252 0.962326 -0.060830 -0.265005 0.157333 0.822416
0.005766 0.659299 -0.080200 0.962327 -0.060830 -0.265005 0.157333 0.909078
0.023774 0.613985 -0.004405 0.962326 -0.060830 -0.265005 0.106671 0.824821
0.023774 0.613985 -0.004405 0.884946 -0.275874 -0.375184 0.246582 0.882718
0.005766 0.659299 -0.080200 0.884946 -0.275874 -0.375184 0.246582 0.981033
0.016809 0.677629 -0.067631 0.884946 -0.275874 -0.375184 0.219789 0.977149
0.005766 0.760145 -0.139168 0.876464 -0.243031 -0.415628 0.958677 0.775879
0.016809 0.677629 -0.067631 0.876464 -0.243031 -0.415628 0.933657 0.658782
0.005766 0.659299 -0.080200 0.876464 -0.243031 -0.415628 0.958677 0.648441
0.016809 0.677629 0.046917 0.956318 0.239649 -0.167403 0.708798 0.485332
0.023774 0.613985 -0.004405 0.956318 0.239649 -0.167403 0.765585 0.416140
0.005766 0.685846 -0.004405 0.956318 0.239649 -0.167403 0.765585 0.496955
0.005766 0.760141 0.130357 0.945213 0.285886 -0.157610 0.867848 0.647209
0.016809 0.677629 0.046917 0.945213 0.285886 -0.157610 0.830946 0.524040
0.005766 0.685846 -0.004405 0.945213 0.285886 -0.157610 0.867848 0.479339
0.050352 0.181100 -0.004405 0.953643 0.060687 0.294758 0.081267 0.621765
0.039775 0.347307 -0.004405 0.953643 0.060687 0.294758 0.000981 0.458789
0.011821 0.363893 0.082621 0.953643 0.060687 0.294758 0.081267 0.396950
0.011821 0.181097 0.095595 0.996102 0.006245 0.087984 0.287186 0.420439
0.011821 0.363893 0.082621 0.996102 0.006245 0.087984 0.287186 0.620349
0.004872 0.229829 0.170809 0.996102 0.006245 0.087984 0.201244 0.467657
0.004872 0.229829 0.170809 0.937296 0.156329 0.311509 0.967841 0.000981
0.011821 0.363893 0.082621 0.937296 0.156329 0.311509 0.967841 0.176197
0.004872 0.353746 0.108622 0.937296 0.156329 0.311509 0.949067 0.151057
0.011821 0.281637 -0.096617 0.942608 0.059985 -0.328470 0.402947 0.070538
0.039775 0.347307 -0.004405 0.942608 0.059985 -0.328470 0.509448 0.000981
0.050352 0.181100 -0.004405 0.942608 0.059985 -0.328470 0.509448 0.182660
0.011821 0.281637 -0.096617 0.987750 0.012052 -0.155580 0.869810 0.580429
0.011821 0.181100 -0.104405 0.987750 0.012052 -0.155580 0.913185 0.479339
0.005712 0.275053 -0.135912 0.987750 0.012052 -0.155580 0.913185 0.587645
0.005712 0.248148 -0.170810 0.997879 0.051555 -0.039747 0.349799 0.900357
0.005712 0.275053 -0.135912 0.997879 0.051555 -0.039747 0.302095 0.894434
0.011821 0.181100 -0.104405 0.997879 0.051555 -0.039747 0.349799 0.797199
0.032410 0.463056 -0.004405 0.947011 0.060257 -0.315497 0.635687 0.768760
0.039775 0.347307 -0.004405 0.947011 0.060257 -0.315497 0.697107 0.658145
0.011821 0.463056 -0.066206 0.947011 0.060257 -0.315497 0.697107 0.804496
0.011821 0.463056 -0.066206 0.944138 0.054482 -0.325015 0.199205 0.370840
0.039775 0.347307 -0.004405 0.944138 0.054482 -0.325015 0.106671 0.257455
0.011821 0.281637 -0.096617 0.944138 0.054482 -0.325015 0.199205 0.170173
0.039775 0.347307 -0.004405 0.953643 0.060679 0.294759 0.106671 0.667962
0.032410 0.463056 -0.004405 0.953643 0.060679 0.294759 0.192963 0.575432
0.011821 0.363893 0.082621 0.953643 0.060679 0.294759 0.192963 0.721099
0.011821 0.363893 0.082621 0.945686 0.080139 0.315050 0.828984 0.501542
0.032410 0.463056 -0.004405 0.945686 0.080139 0.315050 0.828984 0.647209
0.011821 0.463060 0.057396 0.945686 0.080139 0.315050 0.776040 0.599812
0.032558 0.028478 -0.098333 0.930589 0.020056 -0.365517 0.420963 0.894260
0.036710 0.128389 -0.082280 0.930589 0.020056 -0.365517 0.471561 0.796045
0.051515 0.045507 -0.049135 0.930588 0.020056 -0.365517 0.481404 0.894260
0.051515 0.045507 -0.049135 0.924688 0.013009 -0.380504 0.956698 0.892212
0.036710 0.128389 -0.082280 0.924688 0.013009 -0.380504 0.925067 0.798711
0.046815 0.149950 -0.056986 0.924688 0.013009 -0.380504 0.956698 0.777841
0.051515 0.045507 -0.049135 0.371796 0.823579 -0.428352 0.764435 0.238085
0.035462 0.058199 -0.038666 0.371796 0.823579 -0.428352 0.739360 0.238085
0.068750 0.060991 -0.004405 0.371796 0.823579 -0.428352 0.746016 0.186311
0.068750 0.060991 -0.004405 0.433628 0.760524 -0.483290 0.938503 0.163516
0.035462 0.058199 -0.038666 0.433628 0.760524 -0.483290 0.938503 0.215716
0.050352 0.071481 -0.004405 0.433628 0.760524 -0.483290 0.919608 0.176811
0.020426 0.140211 -0.081320 0.094736 0.209520 -0.973204 0.999019 0.475489
0.036710 0.128389 -0.082280 0.094736 0.209520 -0.973204 0.980190 0.464155
0.011821 0.036874 -0.104405 0.094736 0.209520 -0.973204 0.999019 0.359601
0.011821 0.036874 -0.104405 0.328875 0.136475 -0.934460 0.958660 0.881264
0.036710 0.128389 -0.082280 0.328875 0.136475 -0.934460 0.982944 0.777841
0.032558 0.028478 -0.098333 0.328875 0.136475 -0.934460 0.982944 0.888322
0.033245 0.172510 -0.048053 0.448085 0.548928 -0.705619 0.850903 0.473572
0.046815 0.149950 -0.056986 0.448085 0.548928 -0.705619 0.827524 0.454254
0.020426 0.140211 -0.081320 0.448085 0.548928 -0.705619 0.850903 0.421094
0.020426 0.140211 -0.081320 0.403148 0.610658 -0.681593 0.196147 0.710769
0.046815 0.149950 -0.056986 0.403148 0.610658 -0.681593 0.217827 0.676473
0.036710 0.128389 -0.082280 0.403148 0.610658 -0.681593 0.217827 0.714369
0.033245 0.172510 -0.048053 0.632862 0.075552 0.770569 0.633725 0.670734
0.035462 0.058199 -0.038666 0.632862 0.075552 0.770569 0.633725 0.795877
0.046815 0.149950 -0.056986 0.632862 0.075552 0.770569 0.615199 0.694746
0.046815 0.149950 -0.056986 0.591472 0.086875 0.801632 0.984946 0.333442
0.035462 0.058199 -0.038666 0.591472 0.086875 0.801632 0.963958 0.232794
0.051515 0.045507 -0.049135 0.591472 0.086875 0.801632 0.984946 0.219071
0.050352 0.181100 -0.004405 0.931045 0.000000 -0.364905 0.104419 0.766366
0.050352 0.071481 -0.004405 0.931045 0.000000 -0.364905 0.104419 0.885947
0.033245 0.172510 -0.048053 0.931045 0.000000 -0.364905 0.053278 0.775737
0.033245 0.172510 -0.048053 0.919078 -0.014514 -0.393809 0.908199 0.376404
0.050352 0.071481 -0.004405 0.919078 -0.014514 -0.393809 0.866387 0.262327
0.035462 0.058199 -0.038666 0.919078 -0.014514 -0.393809 0.908199 0.251262
0.011821 0.036874 -0.104405 0.937020 0.000000 -0.349277 0.937037 0.219071
0.011821 0.181100 -0.104405 0.937020 0.000000 -0.349277 0.937037 0.376404
0.020426 0.140211 -0.081320 0.937020 0.000000 -0.349277 0.910161 0.331799
0.033245 0.172510 -0.048053 0.932669 -0.031377 -0.359367 0.289504 0.639412
0.011821 0.181100 -0.104405 0.932669 -0.031377 -0.359367 0.298879 0.573647
0.050352 0.181100 -0.004405 0.932669 -0.031377 -0.359367 0.298879 0.690552
0.011821 0.181100 -0.104405 0.000000 0.000000 -1.000000 0.915147 0.636672
0.011821 0.036874 -0.104405 0.000000 0.000000 -1.000000 0.915147 0.479339
-0.011821 0.181100 -0.104405 0.000000 0.000000 -1.000000 0.940938 0.636672
0.000000 0.036874 -0.104405 0.000000 0.000000 -1.000000 0.928043 0.479339
-0.011821 0.036874 -0.104405 0.000000 0.000000 -1.000000 0.940938 0.479339
0.005766 0.659299 -0.080200 0.000000 -0.479071 -0.877776 0.502552 0.896166
0.011821 0.589769 -0.042252 0.000000 -0.479071 -0.877776 0.509157 0.982576
-0.005766 0.659299 -0.080200 0.000000 -0.479071 -0.877776 0.489972 0.896166
-0.011821 0.589769 -0.042252 0.000000 -0.479071 -0.877776 0.483366 0.982576
0.005766 0.760145 -0.139168 0.000000 -0.504772 -0.863252 0.770643 0.853749
0.005766 0.659299 -0.080200 0.000000 -0.504772 -0.863252 0.770643 0.981187
-0.005766 0.760145 -0.139168 0.000000 -0.504772 -0.863252 0.758063 0.853749
-0.005766 0.659299 -0.080200 0.000000 -0.504772 -0.863252 0.758063 0.981187
0.004872 0.353746 0.108622 0.000000 0.931574 0.363551 0.439173 0.896222
0.011821 0.363893 0.082621 0.000000 0.931574 0.363551 0.446754 0.926669
-0.004872 0.353746 0.108622 0.000000 0.931574 0.363551 0.428544 0.896222
-0.011821 0.363893 0.082621 0.000000 0.931574 0.363551 0.420963 0.926669
0.011821 0.463056 -0.066206 0.000000 0.165322 -0.986240 0.702558 0.887540
0.011821 0.281637 -0.096617 0.000000 0.165322 -0.986240 0.702558 0.686872
-0.011821 0.463056 -0.066206 0.000000 0.165322 -0.986240 0.728348 0.887540
-0.011821 0.281637 -0.096617 0.000000 0.165322 -0.986240 0.728348 0.686872
0.011821 0.589769 -0.042252 0.000000 0.185751 -0.982597 0.098682 0.623727
0.011821 0.463056 -0.066206 0.000000 0.185751 -0.982597 0.098682 0.764404
-0.011821 0.589769 -0.042252 0.000000 0.185751 -0.982597 0.072891 0.623727
-0.011821 0.463056 -0.066206 0.000000 0.185751 -0.982597 0.072891 0.764404
0.005712 0.248148 -0.170810 0.000000 -0.703692 -0.710506 0.696961 0.224952
0.011821 0.181100 -0.104405 0.000000 -0.703692 -0.710506 0.709214 0.122524
-0.005712 0.248148 -0.170810 0.000000 -0.703692 -0.710505 0.709214 0.227229
-0.005712 0.248148 -0.170810 0.000000 -0.703692 -0.710505 0.978228 0.475489
0.011821 0.181100 -0.104405 0.000000 -0.703692 -0.710505 0.952491 0.373997
-0.011821 0.181100 -0.104405 0.000000 -0.703692 -0.710506 0.978228 0.372330
0.005712 0.275053 -0.135912 0.000000 0.791961 -0.610571 0.897563 0.637677
0.005712 0.248148 -0.170810 0.000000 0.791961 -0.610571 0.897563 0.589607
-0.005712 0.275053 -0.135912 0.000000 0.791961 -0.610571 0.910025 0.637677
-0.005712 0.248148 -0.170810 0.000000 0.791961 -0.610571 0.910025 0.589608
0.022670 -0.082930 0.013140 0.328697 0.031606 -0.943906 0.899207 0.248445
0.035428 -0.086207 0.017473 0.328697 0.031606 -0.943906 0.884090 0.247905
0.017677 -0.110056 0.010493 0.328697 0.031606 -0.943906 0.899207 0.218218
0.030435 -0.113333 0.014826 0.328697 0.031606 -0.943906 0.884090 0.217678
0.030435 -0.113333 0.014826 0.961463 -0.195807 0.192999 0.083229 0.595600
0.035428 -0.086207 0.017473 0.961463 -0.195807 0.192999 0.104504 0.574129
0.024893 -0.114474 0.041277 0.961463 -0.195807 0.192999 0.104504 0.616048
0.024893 -0.114474 0.041277 0.961462 -0.195774 0.193037 0.540622 0.926397
0.035428 -0.086207 0.017473 0.961462 -0.195774 0.193037 0.511119 0.896617
0.029886 -0.087344 0.043923 0.961462 -0.195774 0.193037 0.540622 0.896166
0.024893 -0.114474 0.041277 -0.328752 -0.031555 0.943889 0.479510 0.896222
0.029886 -0.087344 0.043923 -0.328752 -0.031555 0.943889 0.479510 0.926452
0.012135 -0.111197 0.036943 -0.328752 -0.031555 0.943889 0.464393 0.896762
0.012135 -0.111197 0.036943 -0.328696 -0.031601 0.943907 0.303176 0.902320
0.029886 -0.087344 0.043923 -0.328696 -0.031601 0.943907 0.317222 0.932531
0.017128 -0.084067 0.039590 -0.328696 -0.031601 0.943907 0.302095 0.932531
0.022670 -0.082930 0.013140 0.219741 0.971598 0.087808 0.106671 0.936960
0.017128 -0.084067 0.039590 0.219741 0.971598 0.087808 0.120769 0.911040
0.035428 -0.086207 0.017473 0.219741 0.971598 0.087808 0.120769 0.942442
0.035428 -0.086207 0.017473 0.219741 0.971599 0.087807 0.157333 0.940547
0.017128 -0.084067 0.039590 0.219741 0.971599 0.087807 0.142329 0.912961
0.029886 -0.087344 0.043923 0.219741 0.971599 0.087807 0.157333 0.911040
0.017677 -0.110056 0.010493 -0.219694 -0.971597 -0.087945 0.583270 0.916003
0.030435 -0.113333 0.014826 -0.219694 -0.971597 -0.087945 0.597368 0.910522
0.012135 -0.111197 0.036943 -0.219694 -0.971597 -0.087945 0.597368 0.941923
0.012135 -0.111197 0.036943 -0.219689 -0.971598 -0.087940 0.581308 0.910522
0.030435 -0.113333 0.014826 -0.219689 -0.971598 -0.087940 0.581308 0.941923
0.024893 -0.114474 0.041277 -0.219689 -0.971598 -0.087940 0.567208 0.916002
-0.015380 -0.160269 -0.000986 -0.956728 -0.233456 -0.173696 0.621930 0.251262
-0.068750 0.060991 -0.004405 -0.956728 -0.233456 -0.173696 0.621930 0.499580
-0.013954 -0.117419 -0.066433 -0.956728 -0.233456 -0.173696 0.550129 0.297405
-0.068750 0.060991 -0.004405 -0.936853 -0.184435 -0.297135 0.536288 0.619881
-0.051515 0.045507 -0.049135 -0.936853 -0.184435 -0.297135 0.494727 0.583931
-0.013954 -0.117419 -0.066433 -0.936853 -0.184435 -0.297136 0.536288 0.405335
-0.013954 -0.117419 -0.066433 -0.936849 -0.184433 -0.297149 0.766012 0.000981
-0.051515 0.045507 -0.049135 -0.936849 -0.184433 -0.297149 0.766012 0.184349
-0.032558 0.028478 -0.098333 -0.936849 -0.184433 -0.297149 0.712526 0.156200
-0.020426 0.140211 -0.081320 -0.934501 -0.004289 -0.355934 0.507900 0.236698
-0.033245 0.172510 -0.048053 -0.934501 -0.004289 -0.355934 0.456404 0.226588
-0.011821 0.181100 -0.104405 -0.934501 -0.004289 -0.355934 0.507900 0.184622
-0.011821 0.181100 -0.104405 -0.932767 0.027841 -0.359404 0.635687 0.583927
-0.050352 0.181100 -0.004405 -0.932766 0.027841 -0.359404 0.718630 0.501542
-0.011821 0.281637 -0.096617 -0.932767 0.027841 -0.359404 0.718630 0.656183
-0.011821 0.463056 -0.066206 -0.947047 0.059644 -0.315508 0.070929 0.764404
-0.032410 0.463056 -0.004405 -0.947047 0.059644 -0.315508 0.000981 0.751881
-0.011821 0.589769 -0.042252 -0.947046 0.059644 -0.315508 0.070929 0.623727
-0.011821 0.589769 -0.042252 -0.941770 0.053887 -0.331913 0.730310 0.826158
-0.032410 0.463056 -0.004405 -0.941770 0.053887 -0.331913 0.774078 0.686872
-0.023774 0.613985 -0.004405 -0.941770 0.053887 -0.331913 0.774078 0.851787
-0.013954 -0.117423 0.057623 -0.944971 -0.252727 0.207748 0.390000 0.547749
-0.030218 -0.032923 0.086439 -0.944971 -0.252727 0.207748 0.417657 0.452697
-0.015380 -0.160269 -0.000986 -0.944971 -0.252727 0.207748 0.417657 0.621978
-0.015380 -0.160269 -0.000986 -0.958522 -0.228574 0.170265 0.300133 0.418477
-0.030218 -0.032923 0.086439 -0.958522 -0.228574 0.170265 0.201244 0.281083
-0.068750 0.060991 -0.004405 -0.958522 -0.228574 0.170265 0.300133 0.170158
-0.011821 -0.022429 0.086439 -0.926642 -0.016895 0.375565 0.151532 0.168196
-0.011821 0.181097 0.095595 -0.926642 -0.016895 0.375565 0.297931 0.000981
-0.050352 0.071481 -0.004405 -0.926642 -0.016895 0.375565 0.300133 0.168196
-0.050352 0.071481 -0.004405 -0.933128 0.000000 0.359544 0.633725 0.501542
-0.011821 0.181097 0.095595 -0.933128 0.000000 0.359544 0.633725 0.668772
-0.050352 0.181100 -0.004405 -0.933128 0.000000 0.359544 0.550129 0.587049
-0.050352 0.181100 -0.004405 -0.932824 0.025510 0.359427 0.419001 0.450734
-0.011821 0.181097 0.095595 -0.932824 0.025510 0.359427 0.302095 0.450734
-0.011821 0.363893 0.082621 -0.932824 0.025510 0.359427 0.315308 0.251262
-0.011821 0.463060 0.057396 -0.947047 0.059647 0.315505 0.372044 0.654569
-0.011821 0.589765 0.033442 -0.947047 0.059647 0.315505 0.372044 0.795237
-0.032410 0.463056 -0.004405 -0.947047 0.059647 0.315505 0.302095 0.667088
-0.032410 0.463056 -0.004405 -0.941768 0.053887 0.331918 0.819808 0.814086
-0.011821 0.589765 0.033442 -0.941768 0.053887 0.331918 0.776040 0.674804
-0.023774 0.613985 -0.004405 -0.941768 0.053887 0.331918 0.819808 0.649171
-0.013954 -0.117419 -0.066433 0.000000 -0.836631 -0.547766 0.916090 0.215716
0.015380 -0.160269 -0.000986 0.000000 -0.836631 -0.547766 0.884090 0.130380
-0.015380 -0.160269 -0.000986 0.000000 -0.836631 -0.547766 0.917645 0.130380
0.013954 -0.117419 -0.066433 0.000000 -0.836631 -0.547766 0.885646 0.215716
-0.050352 0.071481 -0.004405 -0.331842 0.582004 0.742396 0.961996 0.367673
-0.068750 0.060991 -0.004405 -0.331842 0.582004 0.742396 0.938999 0.365461
-0.011821 -0.022429 0.086439 -0.331842 0.582004 0.742396 0.961996 0.219071
-0.011821 -0.022429 0.086439 -0.331948 0.581937 0.742401 0.275481 0.916663
-0.068750 0.060991 -0.004405 -0.331948 0.581937 0.742401 0.298479 0.770274
-0.030218 -0.032923 0.086439 -0.331948 0.581937 0.742401 0.298479 0.918879
0.030218 -0.032923 0.086439 0.000000 -0.322766 0.946479 0.172599 0.820453
-0.030218 -0.032923 0.086439 0.000000 -0.322766 0.946479 0.106671 0.820453
0.013954 -0.117423 0.057623 0.000000 -0.322766 0.946479 0.154857 0.723062
-0.013954 -0.117423 0.057623 0.000000 -0.322766 0.946479 0.124413 0.723062
-0.013954 -0.117423 0.057623 0.000000 -0.807284 0.590164 0.925067 0.968188
-0.015380 -0.160269 -0.000986 0.000000 -0.807284 0.590163 0.953295 0.894174
0.013954 -0.117423 0.057623 0.000000 -0.807284 0.590163 0.953295 0.979593
0.013954 -0.117423 0.057623 0.000000 -0.807284 0.590163 0.287016 0.677550
-0.015380 -0.160269 -0.000986 0.000000 -0.807284 0.590163 0.000096 0.005731
0.015380 -0.160269 -0.000986 0.000000 -0.807284 0.590163 0.287016 0.000096
-0.023774 0.613985 -0.004405 -0.960922 0.240802 0.136539 0.681172 0.407865
-0.005766 0.685846 -0.004405 -0.960922 0.240802 0.136539 0.694480 0.487577
-0.016809 0.677629 -0.067631 -0.960922 0.240802 0.136539 0.623892 0.487577
-0.005766 0.659296 0.071389 -0.933656 -0.105496 0.342281 0.919069 0.394738
-0.016809 0.677629 0.046917 -0.933656 -0.105496 0.342281 0.950529 0.378366
-0.011821 0.589765 0.033442 -0.933656 -0.105496 0.342281 0.950529 0.475489
-0.011821 0.589765 0.033442 -0.964954 -0.092445 0.245596 0.550129 0.902123
-0.016809 0.677629 0.046917 -0.964954 -0.092445 0.245596 0.600440 0.819048
-0.023774 0.613985 -0.004405 -0.964954 -0.092445 0.245596 0.600440 0.908560
-0.005766 0.659296 0.071389 -0.939834 -0.172447 0.294913 0.896229 0.775879
-0.005766 0.760141 0.130357 -0.939834 -0.172447 0.294913 0.909843 0.649171
-0.016809 0.677629 0.046917 -0.939834 -0.172447 0.294913 0.931694 0.775879
-0.005766 0.685846 -0.004405 -0.959721 0.246038 0.135649 0.854375 0.000981
-0.005766 0.760145 -0.139168 -0.959721 0.246038 0.135649 0.854375 0.168854
-0.016809 0.677629 -0.067631 -0.959721 0.246038 0.135649 0.811498 0.057054
-0.016809 0.677629 -0.067631 -0.884946 -0.275874 -0.375184 0.053278 0.891794
-0.005766 0.659299 -0.080200 -0.884946 -0.275874 -0.375184 0.080071 0.887909
-0.023774 0.613985 -0.004405 -0.884946 -0.275874 -0.375184 0.080071 0.986225
-0.023774 0.613985 -0.004405 -0.962326 -0.060830 -0.265005 0.866387 0.464931
-0.005766 0.659299 -0.080200 -0.962327 -0.060830 -0.265005 0.912997 0.378366
-0.011821 0.589769 -0.042252 -0.962326 -0.060830 -0.265005 0.917107 0.464931
-0.005766 0.760145 -0.139168 -0.876464 -0.243031 -0.415628 0.894267 0.820414
-0.005766 0.659299 -0.080200 -0.876464 -0.243031 -0.415628 0.894267 0.947852
-0.016809 0.677629 -0.067631 -0.876464 -0.243031 -0.415628 0.869247 0.937512
-0.016809 0.677629 0.046917 -0.956318 0.239649 -0.167403 0.768774 0.429762
-0.005766 0.685846 -0.004405 -0.956318 0.239649 -0.167403 0.825562 0.418138
-0.023774 0.613985 -0.004405 -0.956318 0.239649 -0.167403 0.825562 0.498954
-0.005766 0.760141 0.130357 -0.945213 0.285886 -0.157610 0.864425 0.251262
-0.005766 0.685846 -0.004405 -0.945213 0.285886 -0.157610 0.864425 0.419131
-0.016809 0.677629 0.046917 -0.945213 0.285886 -0.157610 0.827524 0.374430
-0.050352 0.181100 -0.004405 -0.953643 0.060687 0.294758 0.591696 0.000981
-0.011821 0.363893 0.082621 -0.953643 0.060687 0.294758 0.591697 0.225796
-0.039775 0.347307 -0.004405 -0.953643 0.060687 0.294758 0.511410 0.163957
-0.011821 0.181097 0.095595 -0.996102 0.006245 0.087984 0.388038 0.652607
-0.004872 0.229829 0.170809 -0.996102 0.006245 0.087984 0.302095 0.605388
-0.011821 0.363893 0.082621 -0.996102 0.006245 0.087984 0.388038 0.452697
-0.011821 0.363893 0.082621 -0.937296 0.156329 0.311509 0.102004 0.396950
-0.004872 0.229829 0.170809 -0.937296 0.156329 0.311509 0.102004 0.572166
-0.004872 0.353746 0.108622 -0.937296 0.156329 0.311509 0.083229 0.422090
-0.011821 0.281637 -0.096617 -0.942608 0.059985 -0.328470 0.420963 0.403373
-0.050352 0.181100 -0.004405 -0.942608 0.059985 -0.328470 0.448822 0.251262
-0.039775 0.347307 -0.004405 -0.942608 0.059985 -0.328470 0.548167 0.403373
-0.011821 0.281637 -0.096617 -0.987750 0.012052 -0.155580 0.864648 0.925844
-0.005712 0.275053 -0.135912 -0.987750 0.012052 -0.155580 0.820676 0.925844
-0.011821 0.181100 -0.104405 -0.987750 0.012052 -0.155580 0.838451 0.819006
-0.005712 0.248148 -0.170810 -0.997879 0.051555 -0.039747 0.683390 0.806459
-0.011821 0.181100 -0.104405 -0.997879 0.051555 -0.039747 0.683390 0.909617
-0.005712 0.275053 -0.135912 -0.997879 0.051555 -0.039747 0.635687 0.812382
-0.032410 0.463056 -0.004405 -0.947011 0.060257 -0.315497 0.550129 0.706470
-0.011821 0.463056 -0.066206 -0.947011 0.060257 -0.315497 0.611549 0.670734
-0.039775 0.347307 -0.004405 -0.947011 0.060257 -0.315497 0.611549 0.817085
-0.039775 0.347307 -0.004405 -0.944138 0.054482 -0.325015 0.106671 0.486188
-0.011821 0.463056 -0.066206 -0.944138 0.054482 -0.325015 0.199205 0.372803
-0.011821 0.281637 -0.096617 -0.944138 0.054482 -0.325015 0.199205 0.573470
-0.011821 0.463060 0.057396 -0.945686 0.080139 0.315050 0.494727 0.669241
-0.032410 0.463056 -0.004405 -0.945686 0.080139 0.315050 0.547671 0.621843
-0.011821 0.363893 0.082621 -0.945686 0.080139 0.315050 0.547671 0.767510
-0.011821 0.363893 0.082621 -0.953643 0.060679 0.294759 0.593659 0.246561
-0.032410 0.463056 -0.004405 -0.953643 0.060679 0.294759 0.670038 0.122524
-0.039775 0.347307 -0.004405 -0.953643 0.060679 0.294759 0.694999 0.246561
-0.032558 0.028478 -0.098333 -0.930588 0.020056 -0.365517 0.273519 0.880756
-0.051515 0.045507 -0.049135 -0.930588 0.020056 -0.365517 0.219789 0.853075
-0.036710 0.128389 -0.082280 -0.930589 0.020056 -0.365517 0.273519 0.770274
-0.036710 0.128389 -0.082280 -0.924688 0.013009 -0.380504 0.776040 0.909549
-0.051515 0.045507 -0.049135 -0.924688 0.013009 -0.380504 0.807671 0.816048
-0.046815 0.149950 -0.056986 -0.924688 0.013009 -0.380504 0.807671 0.930419
-0.051515 0.045507 -0.049135 -0.371796 0.823579 -0.428352 0.712527 0.235313
-0.068750 0.060991 -0.004405 -0.371796 0.823579 -0.428352 0.737397 0.186311
-0.035462 0.058199 -0.038666 -0.371796 0.823579 -0.428352 0.737397 0.238511
-0.035462 0.058199 -0.038666 -0.433628 0.760524 -0.483290 0.217827 0.622311
-0.068750 0.060991 -0.004405 -0.433628 0.760524 -0.483290 0.217827 0.674511
-0.050352 0.071481 -0.004405 -0.433628 0.760524 -0.483290 0.198932 0.661216
-0.032558 0.028478 -0.098333 -0.328875 0.136475 -0.934460 0.984923 0.648441
-0.036710 0.128389 -0.082280 -0.328875 0.136475 -0.934460 0.984923 0.758923
-0.011821 0.036874 -0.104405 -0.328875 0.136475 -0.934460 0.960639 0.655499
-0.011821 0.036874 -0.104405 -0.094736 0.209520 -0.973204 0.267373 0.998605
-0.036710 0.128389 -0.082280 -0.094736 0.209520 -0.973204 0.248544 0.894051
-0.020426 0.140211 -0.081320 -0.094736 0.209520 -0.973204 0.267373 0.882718
-0.036710 0.128389 -0.082280 -0.403148 0.610658 -0.681593 0.082033 0.925293
-0.046815 0.149950 -0.056986 -0.403148 0.610658 -0.681593 0.088240 0.887910
-0.020426 0.140211 -0.081320 -0.403148 0.610658 -0.681593 0.104009 0.925293
-0.020426 0.140211 -0.081320 -0.448085 0.548928 -0.705619 0.834877 0.223295
-0.046815 0.149950 -0.056986 -0.448085 0.548928 -0.705619 0.811498 0.190134
-0.033245 0.172510 -0.048053 -0.448085 0.548928 -0.705619 0.834877 0.170816
-0.033245 0.172510 -0.048053 -0.632862 0.075552 0.770569 0.988329 0.126124
-0.046815 0.149950 -0.056986 -0.632862 0.075552 0.770569 0.969803 0.102112
-0.035462 0.058199 -0.038666 -0.632862 0.075552 0.770569 0.988329 0.000981
-0.035462 0.058199 -0.038666 -0.591472 0.086875 0.801632 0.967859 0.579988
-0.046815 0.149950 -0.056986 -0.591472 0.086875 0.801632 0.988847 0.479339
-0.051515 0.045507 -0.049135 -0.591472 0.086875 0.801632 0.988847 0.593710
-0.035462 0.058199 -0.038666 -0.919078 -0.014514 -0.393809 0.216373 0.848204
-0.050352 0.071481 -0.004405 -0.919078 -0.014514 -0.393809 0.174561 0.837139
-0.033245 0.172510 -0.048053 -0.919078 -0.014514 -0.393809 0.216373 0.723062
-0.033245 0.172510 -0.048053 -0.931045 0.000000 -0.364905 0.051315 0.766366
-0.050352 0.071481 -0.004405 -0.931045 0.000000 -0.364905 0.051315 0.887864
-0.050352 0.181100 -0.004405 -0.931045 0.000000 -0.364905 0.000981 0.779393
-0.011821 0.036874 -0.104405 -0.937020 0.000000 -0.349277 0.923105 0.935174
-0.020426 0.140211 -0.081320 -0.937020 0.000000 -0.349277 0.896230 0.822446
-0.011821 0.181100 -0.104405 -0.937020 0.000000 -0.349277 0.923105 0.777841
-0.033245 0.172510 -0.048053 -0.932669 -0.031377 -0.359367 0.287208 0.437462
-0.050352 0.181100 -0.004405 -0.932669 -0.031377 -0.359367 0.367388 0.000096
-0.011821 0.181100 -0.104405 -0.932669 -0.031377 -0.359367 0.367387 0.999904
0.011821 0.181097 0.095595 0.000000 -0.044941 0.998990 0.882128 0.223228
-0.011821 0.181097 0.095595 0.000000 -0.044941 0.998990 0.856337 0.223228
0.011821 -0.022429 0.086439 0.000000 -0.044941 0.998990 0.882128 0.000981
-0.011821 -0.022429 0.086439 0.000000 -0.044941 0.998990 0.856337 0.000981
0.011821 0.589765 0.033442 0.000000 0.185763 0.982595 0.947105 0.141649
-0.011821 0.589765 0.033442 0.000000 0.185763 0.982595 0.921314 0.141649
0.011821 0.463060 0.057396 0.000000 0.185763 0.982595 0.947105 0.000981
-0.011821 0.463060 0.057396 0.000000 0.185763 0.982595 0.921314 0.000981
0.005766 0.659296 0.071389 0.000000 -0.479057 0.877784 0.961862 0.894174
-0.005766 0.659296 0.071389 0.000000 -0.479057 0.877784 0.974442 0.894174
0.011821 0.589765 0.033442 0.000000 -0.479057 0.877784 0.955257 0.980585
-0.011821 0.589765 0.033442 0.000000 -0.479057 0.877784 0.981047 0.980585
0.005766 0.760141 0.130357 0.000000 -0.504776 0.863250 0.984906 0.777841
-0.005766 0.760141 0.130357 0.000000 -0.504776 0.863250 0.997486 0.777841
0.005766 0.659296 0.071389 0.000000 -0.504776 0.863250 0.984906 0.905278
-0.005766 0.659296 0.071389 0.000000 -0.504776 0.863250 0.997486 0.905278
0.005766 0.685846 -0.004405 0.000000 0.875733 -0.482796 0.171875 0.990286
-0.005766 0.685846 -0.004405 0.000000 0.875733 -0.482796 0.159295 0.990286
0.005766 0.760141 0.130357 0.000000 0.875733 -0.482796 0.171875 0.822416
-0.005766 0.760141 0.130357 0.000000 0.875733 -0.482796 0.159295 0.822416
0.005766 0.760145 -0.139168 0.000000 0.875723 0.482814 0.364341 0.965073
-0.005766 0.760145 -0.139168 0.000000 0.875723 0.482814 0.351761 0.965073
0.005766 0.685846 -0.004405 0.000000 0.875723 0.482814 0.364341 0.797199
-0.005766 0.685846 -0.004405 0.000000 0.875723 0.482814 0.351761 0.797199
0.011821 0.463060 0.057396 0.000000 0.246519 0.969138 0.730310 0.853749
-0.011821 0.463060 0.057396 0.000000 0.246519 0.969138 0.756101 0.853749
0.011821 0.363893 0.082621 0.000000 0.246519 0.969138 0.730310 0.965373
-0.011821 0.363893 0.082621 0.000000 0.246519 0.969138 0.756101 0.965373
0.004872 0.229829 0.170809 0.000000 -0.839244 0.543756 0.008562 0.889826
-0.004872 0.229829 0.170809 0.000000 -0.839244 0.543755 0.019191 0.889827
0.011821 0.181097 0.095595 0.000000 -0.839244 0.543755 0.000981 0.987592
-0.011821 0.181097 0.095595 0.000000 -0.839244 0.543755 0.026772 0.987592
0.004872 0.353746 0.108622 0.000000 0.448532 0.893767 0.289504 0.420439
-0.004872 0.353746 0.108622 0.000000 0.448532 0.893767 0.300133 0.420439
0.004872 0.229829 0.170809 0.000000 0.448532 0.893767 0.289504 0.571685
-0.004872 0.229829 0.170809 0.000000 0.448532 0.893767 0.300133 0.571685
0.005712 0.275053 -0.135912 0.000000 0.986252 -0.165250 0.876474 0.589607
-0.005712 0.275053 -0.135912 0.000000 0.986252 -0.165250 0.888936 0.589608
0.011821 0.281637 -0.096617 0.000000 0.986252 -0.165250 0.869810 0.633071
-0.011821 0.281637 -0.096617 0.000000 0.986252 -0.165250 0.895600 0.633071
-0.030967 -0.115240 0.014859 -0.416673 -0.017594 -0.908886 0.028734 0.916764
-0.034192 -0.087733 0.015805 -0.416673 -0.017594 -0.908886 0.042453 0.889826
-0.018531 -0.113081 0.009116 -0.416673 -0.017594 -0.908886 0.042453 0.923139
-0.018531 -0.113081 0.009116 -0.416676 -0.017597 -0.908885 0.565246 0.940748
-0.034192 -0.087733 0.015805 -0.416676 -0.017597 -0.908885 0.550129 0.911063
-0.021756 -0.085577 0.010062 -0.416676 -0.017597 -0.908885 0.565246 0.910522
-0.030967 -0.115240 0.014859 -0.947390 -0.121262 0.296223 0.767974 0.217490
-0.022951 -0.114771 0.040688 -0.947390 -0.121262 0.296223 0.797477 0.217942
-0.034192 -0.087733 0.015805 -0.947390 -0.121262 0.296223 0.767974 0.247720
-0.026176 -0.087264 0.041634 -0.947390 -0.121262 0.296223 0.797477 0.248172
-0.022951 -0.114771 0.040688 0.416682 0.017595 0.908882 0.448716 0.902602
-0.010515 -0.112620 0.034945 0.416682 0.017595 0.908882 0.462431 0.896222
-0.026176 -0.087264 0.041634 0.416682 0.017595 0.908882 0.462431 0.929542
-0.026176 -0.087264 0.041634 0.416681 0.017595 0.908882 0.334682 0.932013
-0.010515 -0.112620 0.034945 0.416681 0.017595 0.908882 0.349799 0.902320
-0.013740 -0.085112 0.035891 0.416681 0.017595 0.908882 0.349799 0.932551
-0.021756 -0.085577 0.010062 -0.156863 0.987137 0.030911 0.137736 0.940546
-0.034192 -0.087733 0.015805 -0.156863 0.987137 0.030911 0.122732 0.938625
-0.013740 -0.085112 0.035891 -0.156863 0.987137 0.030911 0.137736 0.911040
-0.013740 -0.085112 0.035891 -0.156653 0.987177 0.030692 0.669742 0.940846
-0.034192 -0.087733 0.015805 -0.156653 0.987177 0.030692 0.681120 0.911579
-0.026176 -0.087264 0.041634 -0.156653 0.987177 0.030692 0.684868 0.940846
-0.022951 -0.114771 0.040688 0.156585 -0.987188 -0.030671 0.650690 0.911579
-0.030967 -0.115240 0.014859 0.156585 -0.987188 -0.030671 0.650690 0.941085
-0.010515 -0.112620 0.034945 0.156585 -0.987188 -0.030671 0.635687 0.913500
-0.010515 -0.112620 0.034945 0.157005 -0.987108 -0.031108 0.656401 0.911579
-0.030967 -0.115240 0.014859 0.157005 -0.987108 -0.031108 0.667780 0.940846
-0.018531 -0.113081 0.009116 0.157005 -0.987108 -0.031108 0.652652 0.940846
-0.011821 -0.022429 0.086439 0.000000 0.000000 1.000000 0.367579 0.171731
-0.030218 -0.032923 0.086439 0.000000 0.000000 1.000000 0.465483 0.000096
0.011821 -0.022429 0.086439 0.000000 0.000000 1.000000 0.367579 0.392299
0.030218 -0.032923 0.086439 0.000000 0.000000 1.000000 0.465483 0.563933
-0.032558 0.028478 -0.098333 0.000000 -0.213601 -0.976921 0.779832 0.414178
0.032558 0.028478 -0.098333 0.000000 -0.213601 -0.976921 0.708798 0.414178
-0.013954 -0.117419 -0.066433 0.000000 -0.213601 -0.976921 0.759537 0.251262
0.013954 -0.117419 -0.066433 0.000000 -0.213601 -0.976921 0.729093 0.251262
3 0 1 2
3 3 4 5
3 6 7 8
3 9 10 11
3 12 13 14
3 15 16 17
3 18 19 20
3 21 22 23
3 24 25 26
3 27 28 29
3 30 31 32
3 33 34 35
3 36 37 38
3 39 40 41
3 42 43 44
3 44 43 45
3 46 45 43
3 47 48 49
3 50 51 52
3 53 54 55
3 56 57 58
3 59 60 61
3 62 63 64
3 65 66 67
3 68 69 70
3 71 72 73
3 74 75 76
3 77 78 79
3 80 81 82
3 83 84 85
3 86 87 88
3 89 90 91
3 92 93 94
3 95 96 97
3 98 99 100
3 101 102 103
3 104 105 106
3 107 108 109
3 110 111 112
3 113 114 115
3 116 117 118
3 119 120 121
3 122 123 124
3 125 126 127
3 128 129 130
3 131 132 133
3 134 135 136
3 137 138 139
3 140 141 142
3 143 144 145
3 146 147 148
3 149 150 151
3 152 153 154
3 155 156 157
3 156 158 157
3 158 159 157
3 160 161 162
3 162 161 163
3 164 165 166
3 166 165 167
3 168 169 170
3 170 169 171
3 172 173 174
3 174 173 175
3 176 177 178
3 178 177 179
3 180 181 182
3 183 184 185
3 186 187 188
3 188 187 189
3 190 191 192
3 192 191 193
3 194 195 196
3 197 198 199
3 200 201 202
3 203 204 205
3 206 207 208
3 209 210 211
3 212 213 214
3 215 216 217
3 218 219 220
3 221 222 223
3 224 225 226
3 227 228 229
3 230 231 232
3 233 234 235
3 236 237 238
3 239 240 241
3 242 243 244
3 245 246 247
3 248 249 250
3 251 252 253
3 254 255 256
3 257 258 259
3 260 261 262
3 261 260 263
3 264 265 266
3 267 268 269
3 270 271 272
3 272 271 273
3 274 275 276
3 277 278 279
3 280 281 282
3 283 284 285
3 286 287 288
3 289 290 291
3 292 293 294
3 295 296 297
3 298 299 300
3 301 302 303
3 304 305 306
3 307 308 309
3 310 311 312
3 313 314 315
3 316 317 318
3 319 320 321
3 322 323 324
3 325 326 327
3 328 329 330
3 331 332 333
3 334 335 336
3 337 338 339
3 340 341 342
3 343 344 345
3 346 347 348
3 349 350 351
3 352 353 354
3 355 356 357
3 358 359 360
3 361 362 363
3 364 365 366
3 367 368 369
3 370 371 372
3 373 374 375
3 376 377 378
3 379 380 381
3 382 383 384
3 384 383 385
3 386 387 388
3 388 387 389
3 390 391 392
3 392 391 393
3 394 395 396
3 396 395 397
3 398 399 400
3 400 399 401
3 402 403 404
3 404 403 405
3 406 407 408
3 408 407 409
3 410 411 412
3 412 411 413
3 414 415 416
3 416 415 417
3 418 419 420
3 420 419 421
3 422 423 424
3 425 426 427
3 428 429 430
3 430 429 431
3 432 433 434
3 435 436 437
3 438 439 440
3 441 442 443
3 444 445 446
3 447 448 449
3 450 451 452
3 452 451 453
3 454 455 456
3 456 455 457
