ply
format ascii 1.0
comment VCGLIB generated
comment TextureFile Texture_01_A.png
element vertex 423
property float x
property float y
property float z
property float nx
property float ny
property float nz
property float texture_u
property float texture_v
element face 142
property list uchar int vertex_indices
end_header
-0.161145 -0 -0.045231 0.00333 -0.999978 0.005768 0.352943 0.189634
-0.314583 0.001022 0.220533 0.00333 -0.999978 0.005768 0.352943 0.189634
-0.426908 0 0.108208 0.00333 -0.999978 0.005768 0.352943 0.189634
-0.161145 -0 -0.045231 -0.006661 -0.999978 0 0.352943 0.189634
-0.161145 0 0.261646 -0.006661 -0.999978 0 0.352943 0.189634
-0.314583 0.001022 0.220533 -0.006661 -0.999978 0 0.352943 0.189634
-0.161145 -0 -0.045231 0.000378 -0.999999 -0.001587 0.352943 0.189634
0.104618 0.000344 -0.198669 0.000378 -0.999999 -0.001587 0.352943 0.189634
0.145733 0.000116 -0.045231 0.000378 -0.999999 -0.001587 0.352943 0.189634
-0.161145 0 0.261646 0 -1 0 0.352943 0.189634
-0.161145 -0 -0.045231 0 -1 0 0.352943 0.189634
0.039332 0 0.302006 0 -1 0 0.352943 0.189634
0.039332 0 0.302006 0.000378 -1 -0.000218 0.352943 0.189634
-0.161145 -0 -0.045231 0.000378 -1 -0.000218 0.352943 0.189634
0.145733 0.000116 -0.045231 0.000378 -1 -0.000218 0.352943 0.189634
0.104618 0.000344 -0.198669 -4.6e-05 -0.999997 -0.002322 0.352943 0.189634
-0.161145 -0 -0.045231 -4.6e-05 -0.999997 -0.002322 0.352943 0.189634
-0.107427 0.000463 -0.245708 -4.6e-05 -0.999997 -0.002322 0.352943 0.189634
-0.161145 -0 -0.045231 0.002732 -0.999995 -0.001577 0.352943 0.189634
-0.314583 -0 -0.310995 0.002732 -0.999995 -0.001577 0.352943 0.189634
-0.107427 0.000463 -0.245708 0.002732 -0.999995 -0.001577 0.352943 0.189634
-0.457564 0 0.034195 -0 -1 0 0.352943 0.189634
-0.314583 -0 -0.310995 -0 -1 0 0.352943 0.189634
0.145733 0.000116 -0.045231 0.403656 -0.908333 -0.109513 0.352943 0.189634
0.104618 0.000344 -0.198669 0.403656 -0.908333 -0.109513 0.352943 0.189634
0.350209 0.109296 -0.197121 0.403656 -0.908333 -0.109513 0.352943 0.189634
-0.314583 -0 -0.310995 -0.176282 -0.981628 -0.073018 0.352943 0.189634
-0.457564 0 0.034195 -0.176282 -0.981628 -0.073018 0.352943 0.189634
-0.50838 0.029946 -0.245708 -0.176282 -0.981628 -0.073018 0.352943 0.189634
-0.426908 0 0.108208 -0.358463 -0.921661 0.148475 0.352943 0.189634
-0.868768 0.1831 0.178022 -0.358463 -0.921661 0.148475 0.352943 0.189634
-0.457564 0 0.034195 -0.358463 -0.921661 0.148475 0.352943 0.189634
-0.426908 0 0.108208 -0.317574 -0.890551 0.325677 0.352943 0.189634
-0.314583 0.001022 0.220533 -0.317574 -0.890551 0.325677 0.352943 0.189634
-0.868768 0.1831 0.178022 -0.317574 -0.890551 0.325677 0.352943 0.189634
-0.314583 0.001022 0.220533 -0.098971 -0.932934 0.346177 0.352943 0.189634
-0.161145 0 0.261646 -0.098971 -0.932934 0.346177 0.352943 0.189634
-0.820427 0.193425 0.594433 -0.098971 -0.932934 0.346177 0.352943 0.189634
-0.161145 0 0.261646 -0.080038 -0.914076 0.397566 0.352943 0.189634
0.039332 0 0.302006 -0.080038 -0.914076 0.397566 0.352943 0.189634
0.18454 0.238654 0.879948 -0.080038 -0.914076 0.397566 0.352943 0.189634
0.039332 0 0.302006 0.389949 -0.913091 0.119184 0.352943 0.189634
0.145733 0.000116 -0.045231 0.389949 -0.913091 0.119184 0.352943 0.189634
0.301861 0.157754 0.651642 0.389949 -0.913091 0.119184 0.352943 0.189634
0.301861 0.157754 0.651642 0.514072 -0.854188 0.078051 0.352943 0.189634
0.145733 0.000116 -0.045231 0.514072 -0.854188 0.078051 0.352943 0.189634
0.350209 0.109296 -0.197121 0.514072 -0.854188 0.078051 0.352943 0.189634
0.350209 0.109296 -0.197121 0.19549 -0.428122 -0.882324 0.352943 0.189634
0.104618 0.000344 -0.198669 0.19549 -0.428122 -0.882324 0.352943 0.189634
-0.107427 0.000463 -0.245708 0.19549 -0.428122 -0.882324 0.352943 0.189634
-0.739884 0.190542 -0.327726 -0.528141 -0.836354 -0.146897 0.352943 0.189634
-0.50838 0.029946 -0.245708 -0.528141 -0.836354 -0.146897 0.352943 0.189634
-0.868768 0.1831 0.178022 -0.528141 -0.836354 -0.146897 0.352943 0.189634
-0.457564 0 0.034195 -0.413195 -0.910367 -0.022382 0.352943 0.189634
-0.868768 0.1831 0.178022 -0.413195 -0.910367 -0.022382 0.352943 0.189634
-0.50838 0.029946 -0.245708 -0.413195 -0.910367 -0.022382 0.352943 0.189634
-0.868768 0.1831 0.178022 -0.302885 -0.946957 -0.107395 0.352943 0.189634
-0.314583 0.001022 0.220533 -0.302885 -0.946957 -0.107395 0.352943 0.189634
-0.828743 0.147368 0.380207 -0.302885 -0.946957 -0.107395 0.352943 0.189634
-0.161145 0 0.261646 -0.070462 -0.916733 0.393238 0.352943 0.189634
0.18454 0.238654 0.879948 -0.070462 -0.916733 0.393238 0.352943 0.189634
-0.820427 0.193425 0.594433 -0.070462 -0.916733 0.393238 0.352943 0.189634
0.039332 0 0.302006 0.071071 -0.928132 0.365404 0.352943 0.189634
0.301861 0.157754 0.651642 0.071071 -0.928132 0.365404 0.352943 0.189634
0.18454 0.238654 0.879948 0.071071 -0.928132 0.365404 0.352943 0.189634
-0.107427 0.000463 -0.245708 0.248927 -0.936558 -0.246766 0.352943 0.189634
0.175709 0.209659 -0.754059 0.248927 -0.936558 -0.246766 0.352943 0.189634
0.350209 0.109296 -0.197121 0.248927 -0.936558 -0.246766 0.352943 0.189634
0.175709 0.209659 -0.754059 0.247407 -0.93672 -0.247679 0.352943 0.189634
-0.107427 0.000463 -0.245708 0.247407 -0.93672 -0.247679 0.352943 0.189634
-0.033145 0.190035 -0.888466 0.247407 -0.93672 -0.247679 0.352943 0.189634
-0.107427 0.000463 -0.245708 0.087997 -0.958146 -0.272421 0.352943 0.189634
-0.314583 -0 -0.310995 0.087997 -0.958146 -0.272421 0.352943 0.189634
-0.033145 0.190035 -0.888466 0.087997 -0.958146 -0.272421 0.352943 0.189634
-0.033145 0.190035 -0.888466 0.038865 -0.954641 -0.295213 0.352943 0.189634
-0.314583 -0 -0.310995 0.038865 -0.954641 -0.295213 0.352943 0.189634
-0.224895 0.190035 -0.91371 0.038865 -0.954641 -0.295213 0.352943 0.189634
-0.314583 -0 -0.310995 -0.250357 -0.912039 -0.324819 0.352943 0.189634
-0.50838 0.029946 -0.245708 -0.250357 -0.912039 -0.324819 0.352943 0.189634
-0.224895 0.190035 -0.91371 -0.250357 -0.912039 -0.324819 0.352943 0.189634
-0.224895 0.190035 -0.91371 -0.43275 -0.817693 -0.379612 0.352943 0.189634
-0.50838 0.029946 -0.245708 -0.43275 -0.817693 -0.379612 0.352943 0.189634
-0.739884 0.190542 -0.327726 -0.43275 -0.817693 -0.379612 0.352943 0.189634
-0.868768 0.1831 0.178022 -0.591312 -0.78994 -0.162313 0.352943 0.189634
-0.935728 0.279096 -0.045231 -0.591312 -0.78994 -0.162313 0.352943 0.189634
-0.739884 0.190542 -0.327726 -0.591312 -0.78994 -0.162313 0.352943 0.189634
-0.828743 0.147368 0.380207 -0.205604 -0.955103 0.213321 0.352943 0.189634
-0.314583 0.001022 0.220533 -0.205604 -0.955103 0.213321 0.352943 0.189634
-0.820427 0.193425 0.594433 -0.205604 -0.955103 0.213321 0.352943 0.189634
-0.820427 0.193425 0.594433 -0.025895 -0.969256 0.24469 0.352943 0.189634
0.18454 0.238654 0.879948 -0.025895 -0.969256 0.24469 0.352943 0.189634
-0.70505 0.220084 0.712244 -0.025895 -0.969256 0.24469 0.352943 0.189634
0.301861 0.157754 0.651642 0.159935 -0.984962 0.065344 0.352943 0.189634
0.350209 0.109296 -0.197121 0.159935 -0.984962 0.065344 0.352943 0.189634
0.999198 0.238654 0.164299 0.159935 -0.984962 0.065344 0.352943 0.189634
-0.224895 0.190035 -0.91371 -0.20642 -0.961656 -0.180579 0.352943 0.189634
-0.739884 0.190542 -0.327726 -0.20642 -0.961656 -0.180579 0.352943 0.189634
-1.04718 0.276558 -0.43453 -0.20642 -0.961656 -0.180579 0.352943 0.189634
-0.739884 0.190542 -0.327726 -0.297771 -0.950248 0.091441 0.352943 0.189634
-0.935728 0.279096 -0.045231 -0.297771 -0.950248 0.091441 0.352943 0.189634
-1.04718 0.276558 -0.43453 -0.297771 -0.950248 0.091441 0.352943 0.189634
0.18454 0.238654 0.879948 -0.155721 -0.455577 0.876471 0.352943 0.189634
-0.553308 0.32336 0.792885 -0.155721 -0.455577 0.876471 0.352943 0.189634
-0.70505 0.220084 0.712244 -0.155721 -0.455577 0.876471 0.352943 0.189634
0.18454 0.238654 0.879948 0.430269 -0.758267 0.489796 0.352943 0.189634
0.301861 0.157754 0.651642 0.430269 -0.758267 0.489796 0.352943 0.189634
0.999198 0.238654 0.164299 0.430269 -0.758267 0.489796 0.352943 0.189634
0.350209 0.109296 -0.197121 0.328907 -0.90603 -0.266324 0.352943 0.189634
0.175709 0.209659 -0.754059 0.328907 -0.90603 -0.266324 0.352943 0.189634
0.999198 0.238654 0.164299 0.328907 -0.90603 -0.266324 0.352943 0.189634
-0.224895 0.190035 -0.91371 -0.21246 -0.958208 -0.191567 0.352943 0.189634
-1.04718 0.276558 -0.43453 -0.21246 -0.958208 -0.191567 0.352943 0.189634
-0.618995 0.253483 -0.793991 -0.21246 -0.958208 -0.191567 0.352943 0.189634
-0.828743 0.147368 0.380207 -0.886638 -0.452485 0.095554 0.352943 0.189634
-0.946971 0.335828 0.175608 -0.886638 -0.452485 0.095554 0.352943 0.189634
-0.868768 0.1831 0.178022 -0.886638 -0.452485 0.095554 0.352943 0.189634
-0.828743 0.147368 0.380207 -0.896244 -0.425227 0.126212 0.352943 0.189634
-0.820427 0.193425 0.594433 -0.896244 -0.425227 0.126212 0.352943 0.189634
-0.946971 0.335828 0.175608 -0.896244 -0.425227 0.126212 0.352943 0.189634
0.18454 0.238654 0.879948 0.255229 -0.922195 0.29054 0.352943 0.189634
0.999198 0.238654 0.164299 0.255229 -0.922195 0.29054 0.352943 0.189634
0.425624 0.301811 0.868629 0.255229 -0.922195 0.29054 0.352943 0.189634
-0.618995 0.253483 -0.793991 -0.440732 -0.760951 -0.47614 0.352943 0.189634
-1.04718 0.276558 -0.43453 -0.440732 -0.760951 -0.47614 0.352943 0.189634
-0.981701 0.458239 -0.785492 -0.440732 -0.760951 -0.47614 0.352943 0.189634
-0.868768 0.1831 0.178022 -0.888288 -0.453713 0.071333 0.352943 0.189634
-0.946971 0.335828 0.175608 -0.888288 -0.453713 0.071333 0.352943 0.189634
-0.935728 0.279096 -0.045231 -0.888288 -0.453713 0.071333 0.352943 0.189634
0.425624 0.301811 0.868629 0.427697 -0.800387 0.420067 0.352943 0.189634
0.999198 0.238654 0.164299 0.427697 -0.800387 0.420067 0.352943 0.189634
1.08043 0.464669 0.512241 0.427697 -0.800387 0.420067 0.352943 0.189634
0.999198 0.238654 0.164299 0.679381 -0.428509 -0.595669 0.352943 0.189634
0.175709 0.209659 -0.754059 0.679381 -0.428509 -0.595669 0.352943 0.189634
0.798673 0.417708 -0.193213 0.679381 -0.428509 -0.595669 0.352943 0.189634
-1.04718 0.276558 -0.43453 -0.887774 -0.382089 0.256642 0.352943 0.189634
-0.935728 0.279096 -0.045231 -0.887774 -0.382089 0.256642 0.352943 0.189634
-1.10025 0.360495 -0.493168 -0.887774 -0.382089 0.256642 0.352943 0.189634
0.999198 0.238654 0.164299 0.406183 -0.806721 0.429204 0.352943 0.189634
1.10025 0.339541 0.258289 0.406183 -0.806721 0.429204 0.352943 0.189634
1.08043 0.464669 0.512241 0.406183 -0.806721 0.429204 0.352943 0.189634
0.999198 0.238654 0.164299 0.782868 -0.255754 -0.567193 0.352943 0.189634
0.798673 0.417708 -0.193213 0.782868 -0.255754 -0.567193 0.352943 0.189634
1.10025 0.339541 0.258289 0.782868 -0.255754 -0.567193 0.352943 0.189634
0.175709 0.209659 -0.754059 0.692566 -0.239185 -0.680546 0.352943 0.189634
0.40589 0.472711 -0.612265 0.692566 -0.239185 -0.680546 0.352943 0.189634
0.798673 0.417708 -0.193213 0.692566 -0.239185 -0.680546 0.352943 0.189634
0.175709 0.209659 -0.754059 0.542499 -0.022046 -0.839767 0.352943 0.189634
-0.033145 0.190035 -0.888466 0.542499 -0.022046 -0.839767 0.352943 0.189634
0.40589 0.472711 -0.612265 0.542499 -0.022046 -0.839767 0.352943 0.189634
-0.224895 0.190035 -0.91371 0.121418 0.366974 -0.922273 0.352943 0.189634
-0.383094 0.40591 -0.84864 0.121418 0.366974 -0.922273 0.352943 0.189634
-0.033145 0.190035 -0.888466 0.121418 0.366974 -0.922273 0.352943 0.189634
-0.224895 0.190035 -0.91371 -0.276969 0.085513 -0.957066 0.352943 0.189634
-0.618995 0.253483 -0.793991 -0.276969 0.085513 -0.957066 0.352943 0.189634
-0.383094 0.40591 -0.84864 -0.276969 0.085513 -0.957066 0.352943 0.189634
-0.383094 0.40591 -0.84864 -0.117954 -0.168322 -0.978649 0.352943 0.189634
-0.618995 0.253483 -0.793991 -0.117954 -0.168322 -0.978649 0.352943 0.189634
-0.981701 0.458239 -0.785492 -0.117954 -0.168322 -0.978649 0.352943 0.189634
0.18454 0.238654 0.879948 -0.027898 0.587921 0.808437 0.352943 0.189634
0.0304 0.51939 0.670469 -0.027898 0.587921 0.808437 0.352943 0.189634
-0.553308 0.32336 0.792885 -0.027898 0.587921 0.808437 0.352943 0.189634
0.18454 0.238654 0.879948 0.129826 -0.327868 0.93576 0.352943 0.189634
0.425624 0.301811 0.868629 0.129826 -0.327868 0.93576 0.352943 0.189634
0.43848 0.435572 0.913712 0.129826 -0.327868 0.93576 0.352943 0.189634
0.43848 0.435572 0.913712 0.513033 -0.318025 0.797281 0.352943 0.189634
0.425624 0.301811 0.868629 0.513033 -0.318025 0.797281 0.352943 0.189634
1.08043 0.464669 0.512241 0.513033 -0.318025 0.797281 0.352943 0.189634
-1.04718 0.276558 -0.43453 -0.570222 -0.681265 -0.459047 0.352943 0.189634
-1.10025 0.360495 -0.493168 -0.570222 -0.681265 -0.459047 0.352943 0.189634
-0.981701 0.458239 -0.785492 -0.570222 -0.681265 -0.459047 0.352943 0.189634
-1.10025 0.360495 -0.493168 -0.939553 -0.017168 0.341973 0.352943 0.189634
-0.935728 0.279096 -0.045231 -0.939553 -0.017168 0.341973 0.352943 0.189634
-0.876766 0.871778 0.146519 -0.939553 -0.017168 0.341973 0.352943 0.189634
-0.820427 0.193425 0.594433 -0.661706 -0.253857 0.70548 0.352943 0.189634
-0.70505 0.220084 0.712244 -0.661706 -0.253857 0.70548 0.352943 0.189634
-0.751525 0.336285 0.710466 -0.661706 -0.253857 0.70548 0.352943 0.189634
-0.70505 0.220084 0.712244 -0.387924 -0.141216 0.910809 0.352943 0.189634
-0.553308 0.32336 0.792885 -0.387924 -0.141216 0.910809 0.352943 0.189634
-0.751525 0.336285 0.710466 -0.387924 -0.141216 0.910809 0.352943 0.189634
0.0304 0.51939 0.670469 -0.41136 0.389156 0.824221 0.352943 0.189634
0.18454 0.238654 0.879948 -0.41136 0.389156 0.824221 0.352943 0.189634
0.43848 0.435572 0.913712 -0.41136 0.389156 0.824221 0.352943 0.189634
1.08043 0.464669 0.512241 0.527437 0.058328 0.84759 0.352943 0.189634
0.701361 0.654266 0.735077 0.527437 0.058328 0.84759 0.352943 0.189634
0.43848 0.435572 0.913712 0.527437 0.058328 0.84759 0.352943 0.189634
1.08043 0.464669 0.512241 0.608792 0.575985 0.54554 0.352943 0.189634
1.02056 0.572283 0.465425 0.608792 0.575985 0.54554 0.352943 0.189634
0.701361 0.654266 0.735077 0.608792 0.575985 0.54554 0.352943 0.189634
1.08043 0.464669 0.512241 0.890058 0.432617 -0.143667 0.352943 0.189634
1.10025 0.339541 0.258289 0.890058 0.432617 -0.143667 0.352943 0.189634
1.02056 0.572283 0.465425 0.890058 0.432617 -0.143667 0.352943 0.189634
0.40589 0.472711 -0.612265 0.64614 0.375429 -0.664497 0.352943 0.189634
0.209289 0.67908 -0.68684 0.64614 0.375429 -0.664497 0.352943 0.189634
0.23981 1.0525 -0.446184 0.64614 0.375429 -0.664497 0.352943 0.189634
0.40589 0.472711 -0.612265 0.467208 0.129011 -0.874685 0.352943 0.189634
-0.033145 0.190035 -0.888466 0.467208 0.129011 -0.874685 0.352943 0.189634
0.209289 0.67908 -0.68684 0.467208 0.129011 -0.874685 0.352943 0.189634
-0.383094 0.40591 -0.84864 -0.12759 -0.331465 -0.9348 0.352943 0.189634
-0.981701 0.458239 -0.785492 -0.12759 -0.331465 -0.9348 0.352943 0.189634
-0.671373 0.496125 -0.841282 -0.12759 -0.331465 -0.9348 0.352943 0.189634
-0.935728 0.279096 -0.045231 -0.988719 0.125039 -0.082458 0.352943 0.189634
-0.946971 0.335828 0.175608 -0.988719 0.125039 -0.082458 0.352943 0.189634
-0.876766 0.871778 0.146519 -0.988719 0.125039 -0.082458 0.352943 0.189634
-0.946971 0.335828 0.175608 -0.888517 0.140103 0.436932 0.352943 0.189634
-0.759019 0.530648 0.495346 -0.888517 0.140103 0.436932 0.352943 0.189634
-0.876766 0.871778 0.146519 -0.888517 0.140103 0.436932 0.352943 0.189634
-0.820427 0.193425 0.594433 -0.925341 0.171777 0.337988 0.352943 0.189634
-0.751525 0.336285 0.710466 -0.925341 0.171777 0.337988 0.352943 0.189634
-0.946971 0.335828 0.175608 -0.925341 0.171777 0.337988 0.352943 0.189634
-0.946971 0.335828 0.175608 -0.888435 0.324757 0.324371 0.352943 0.189634
-0.751525 0.336285 0.710466 -0.888435 0.324757 0.324371 0.352943 0.189634
-0.759019 0.530648 0.495346 -0.888435 0.324757 0.324371 0.352943 0.189634
0.43848 0.435572 0.913712 -0.089801 0.692576 0.715734 0.352943 0.189634
0.701361 0.654266 0.735077 -0.089801 0.692576 0.715734 0.352943 0.189634
0.321225 0.626494 0.714256 -0.089801 0.692576 0.715734 0.352943 0.189634
1.10025 0.339541 0.258289 0.718486 0.583255 -0.378935 0.352943 0.189634
0.798673 0.417708 -0.193213 0.718486 0.583255 -0.378935 0.352943 0.189634
1.02056 0.572283 0.465425 0.718486 0.583255 -0.378935 0.352943 0.189634
1.02056 0.572283 0.465425 0.914743 0.194913 -0.353912 0.352943 0.189634
0.798673 0.417708 -0.193213 0.914743 0.194913 -0.353912 0.352943 0.189634
0.778188 0.590886 -0.150784 0.914743 0.194913 -0.353912 0.352943 0.189634
0.798673 0.417708 -0.193213 0.723347 0.243835 -0.645998 0.352943 0.189634
0.40589 0.472711 -0.612265 0.723347 0.243835 -0.645998 0.352943 0.189634
0.778188 0.590886 -0.150784 0.723347 0.243835 -0.645998 0.352943 0.189634
0.778188 0.590886 -0.150784 0.638123 0.444535 -0.628639 0.352943 0.189634
0.40589 0.472711 -0.612265 0.638123 0.444535 -0.628639 0.352943 0.189634
0.389817 0.847816 -0.363329 0.638123 0.444535 -0.628639 0.352943 0.189634
0.40589 0.472711 -0.612265 0.781028 0.368208 -0.504399 0.352943 0.189634
0.23981 1.0525 -0.446184 0.781028 0.368208 -0.504399 0.352943 0.189634
0.389817 0.847816 -0.363329 0.781028 0.368208 -0.504399 0.352943 0.189634
-0.033145 0.190035 -0.888466 0.35844 0.198408 -0.912225 0.352943 0.189634
0.025754 0.625706 -0.770565 0.35844 0.198408 -0.912225 0.352943 0.189634
0.209289 0.67908 -0.68684 0.35844 0.198408 -0.912225 0.352943 0.189634
-0.033145 0.190035 -0.888466 0.047366 0.254958 -0.965791 0.352943 0.189634
-0.383094 0.40591 -0.84864 0.047366 0.254958 -0.965791 0.352943 0.189634
0.025754 0.625706 -0.770565 0.047366 0.254958 -0.965791 0.352943 0.189634
-0.383094 0.40591 -0.84864 0.126905 0.476478 -0.869979 0.352943 0.189634
-0.671373 0.496125 -0.841282 0.126905 0.476478 -0.869979 0.352943 0.189634
-0.342689 0.632444 -0.718676 0.126905 0.476478 -0.869979 0.352943 0.189634
-0.981701 0.458239 -0.785492 -0.20992 0.417762 -0.883973 0.352943 0.189634
-0.906335 0.590412 -0.740925 -0.20992 0.417762 -0.883973 0.352943 0.189634
-0.671373 0.496125 -0.841282 -0.20992 0.417762 -0.883973 0.352943 0.189634
-0.981701 0.458239 -0.785492 -0.833064 0.529265 -0.160879 0.352943 0.189634
-1.10025 0.360495 -0.493168 -0.833064 0.529265 -0.160879 0.352943 0.189634
-0.906335 0.590412 -0.740925 -0.833064 0.529265 -0.160879 0.352943 0.189634
-0.759019 0.530648 0.495346 -0.325026 0.61896 0.715015 0.352943 0.189634
-0.775663 0.956163 0.119429 -0.325026 0.61896 0.715015 0.352943 0.189634
-0.876766 0.871778 0.146519 -0.325026 0.61896 0.715015 0.352943 0.189634
-0.751525 0.336285 0.710466 -0.267974 0.615686 0.741027 0.352943 0.189634
-0.553308 0.32336 0.792885 -0.267974 0.615686 0.741027 0.352943 0.189634
-0.536685 0.706681 0.480412 -0.267974 0.615686 0.741027 0.352943 0.189634
-0.553308 0.32336 0.792885 -0.05024 0.63235 0.773052 0.352943 0.189634
0.0304 0.51939 0.670469 -0.05024 0.63235 0.773052 0.352943 0.189634
-0.536685 0.706681 0.480412 -0.05024 0.63235 0.773052 0.352943 0.189634
0.43848 0.435572 0.913712 -0.325966 0.579853 0.74667 0.352943 0.189634
0.321225 0.626494 0.714256 -0.325966 0.579853 0.74667 0.352943 0.189634
0.0304 0.51939 0.670469 -0.325966 0.579853 0.74667 0.352943 0.189634
-0.383094 0.40591 -0.84864 -0.110869 0.509364 -0.853379 0.352943 0.189634
-0.342689 0.632444 -0.718676 -0.110869 0.509364 -0.853379 0.352943 0.189634
0.025754 0.625706 -0.770565 -0.110869 0.509364 -0.853379 0.352943 0.189634
-1.10025 0.360495 -0.493168 -0.902032 0.430688 -0.029094 0.352943 0.189634
-0.876766 0.871778 0.146519 -0.902032 0.430688 -0.029094 0.352943 0.189634
-0.933571 0.720127 -0.337236 -0.902032 0.430688 -0.029094 0.352943 0.189634
-0.933571 0.720127 -0.337236 -0.657137 0.737843 -0.15414 0.352943 0.189634
-0.876766 0.871778 0.146519 -0.657137 0.737843 -0.15414 0.352943 0.189634
-0.775663 0.956163 0.119429 -0.657137 0.737843 -0.15414 0.352943 0.189634
-0.775663 0.956163 0.119429 -0.527258 0.550896 0.646925 0.352943 0.189634
-0.759019 0.530648 0.495346 -0.527258 0.550896 0.646925 0.352943 0.189634
-0.652211 0.934741 0.238287 -0.527258 0.550896 0.646925 0.352943 0.189634
1.02056 0.572283 0.465425 0.39743 0.896007 0.198042 0.352943 0.189634
0.797989 0.678742 0.430428 0.39743 0.896007 0.198042 0.352943 0.189634
0.701361 0.654266 0.735077 0.39743 0.896007 0.198042 0.352943 0.189634
1.02056 0.572283 0.465425 0.492229 0.854135 -0.167823 0.352943 0.189634
0.778188 0.590886 -0.150784 0.492229 0.854135 -0.167823 0.352943 0.189634
0.437055 0.78609 -0.157845 0.492229 0.854135 -0.167823 0.352943 0.189634
0.778188 0.590886 -0.150784 0.489068 0.859958 0.145895 0.352943 0.189634
0.389817 0.847816 -0.363329 0.489068 0.859958 0.145895 0.352943 0.189634
0.437055 0.78609 -0.157845 0.489068 0.859958 0.145895 0.352943 0.189634
0.23981 1.0525 -0.446184 0.213108 0.516899 -0.829096 0.352943 0.189634
0.209289 0.67908 -0.68684 0.213108 0.516899 -0.829096 0.352943 0.189634
-0.034796 1.0525 -0.516768 0.213108 0.516899 -0.829096 0.352943 0.189634
0.209289 0.67908 -0.68684 0.223982 0.521407 -0.823388 0.352943 0.189634
0.025754 0.625706 -0.770565 0.223982 0.521407 -0.823388 0.352943 0.189634
-0.034796 1.0525 -0.516768 0.223982 0.521407 -0.823388 0.352943 0.189634
-1.10025 0.360495 -0.493168 -0.847895 0.485415 -0.213181 0.352943 0.189634
-0.933571 0.720127 -0.337236 -0.847895 0.485415 -0.213181 0.352943 0.189634
-0.906335 0.590412 -0.740925 -0.847895 0.485415 -0.213181 0.352943 0.189634
-0.933571 0.720127 -0.337236 -0.477572 0.836902 -0.267432 0.352943 0.189634
-0.775663 0.956163 0.119429 -0.477572 0.836902 -0.267432 0.352943 0.189634
-0.65537 0.956163 -0.095387 -0.477572 0.836902 -0.267432 0.352943 0.189634
-0.751525 0.336285 0.710466 -0.471303 0.646191 0.600258 0.352943 0.189634
-0.536685 0.706681 0.480412 -0.471303 0.646191 0.600258 0.352943 0.189634
-0.759019 0.530648 0.495346 -0.471303 0.646191 0.600258 0.352943 0.189634
-0.759019 0.530648 0.495346 -0.398765 0.564934 0.722382 0.352943 0.189634
-0.536685 0.706681 0.480412 -0.398765 0.564934 0.722382 0.352943 0.189634
-0.652211 0.934741 0.238287 -0.398765 0.564934 0.722382 0.352943 0.189634
-0.536685 0.706681 0.480412 0.027384 0.751646 0.658998 0.352943 0.189634
0.0304 0.51939 0.670469 0.027384 0.751646 0.658998 0.352943 0.189634
-0.034797 0.735833 0.426306 0.027384 0.751646 0.658998 0.352943 0.189634
0.701361 0.654266 0.735077 -0.088128 0.920032 0.381805 0.352943 0.189634
0.229588 0.792566 0.292923 -0.088128 0.920032 0.381805 0.352943 0.189634
0.321225 0.626494 0.714256 -0.088128 0.920032 0.381805 0.352943 0.189634
0.701361 0.654266 0.735077 0.164194 0.97774 0.130632 0.352943 0.189634
0.797989 0.678742 0.430428 0.164194 0.97774 0.130632 0.352943 0.189634
0.229588 0.792566 0.292923 0.164194 0.97774 0.130632 0.352943 0.189634
1.02056 0.572283 0.465425 0.442842 0.889911 -0.109314 0.352943 0.189634
0.437055 0.78609 -0.157845 0.442842 0.889911 -0.109314 0.352943 0.189634
0.797989 0.678742 0.430428 0.442842 0.889911 -0.109314 0.352943 0.189634
0.437055 0.78609 -0.157845 0.808282 0.588727 -0.008964 0.352943 0.189634
0.389817 0.847816 -0.363329 0.808282 0.588727 -0.008964 0.352943 0.189634
0.23981 1.0525 -0.446184 0.808282 0.588727 -0.008964 0.352943 0.189634
0.025754 0.625706 -0.770565 -0.112185 0.49608 -0.860999 0.352943 0.189634
-0.342689 0.632444 -0.718676 -0.112185 0.49608 -0.860999 0.352943 0.189634
-0.034796 1.0525 -0.516768 -0.112185 0.49608 -0.860999 0.352943 0.189634
-0.906335 0.590412 -0.740925 -0.201925 0.928396 -0.31194 0.352943 0.189634
-0.933571 0.720127 -0.337236 -0.201925 0.928396 -0.31194 0.352943 0.189634
-0.628987 0.785743 -0.339113 -0.201925 0.928396 -0.31194 0.352943 0.189634
-0.933571 0.720127 -0.337236 -0.175424 0.797802 -0.576835 0.352943 0.189634
-0.65537 0.956163 -0.095387 -0.175424 0.797802 -0.576835 0.352943 0.189634
-0.628987 0.785743 -0.339113 -0.175424 0.797802 -0.576835 0.352943 0.189634
-0.536685 0.706681 0.480412 0.142896 0.753586 0.64163 0.352943 0.189634
-0.05737 0.910304 0.134512 0.142896 0.753586 0.64163 0.352943 0.189634
-0.652211 0.934741 0.238287 0.142896 0.753586 0.64163 0.352943 0.189634
-0.652211 0.934741 0.238287 0.174818 0.354414 0.918602 0.352943 0.189634
-0.05737 0.910304 0.134512 0.174818 0.354414 0.918602 0.352943 0.189634
-0.378139 0.971973 0.171764 0.174818 0.354414 0.918602 0.352943 0.189634
0.0304 0.51939 0.670469 -0.342761 0.655674 0.67276 0.352943 0.189634
0.321225 0.626494 0.714256 -0.342761 0.655674 0.67276 0.352943 0.189634
-0.034797 0.735833 0.426306 -0.342761 0.655674 0.67276 0.352943 0.189634
-0.034797 0.735833 0.426306 -0.013173 0.929277 0.369148 0.352943 0.189634
0.321225 0.626494 0.714256 -0.013173 0.929277 0.369148 0.352943 0.189634
0.229588 0.792566 0.292923 -0.013173 0.929277 0.369148 0.352943 0.189634
0.229588 0.792566 0.292923 0.179887 0.981286 0.068696 0.352943 0.189634
0.797989 0.678742 0.430428 0.179887 0.981286 0.068696 0.352943 0.189634
0.437055 0.78609 -0.157845 0.179887 0.981286 0.068696 0.352943 0.189634
0.437055 0.78609 -0.157845 0.667113 0.716108 0.205301 0.352943 0.189634
0.23981 1.0525 -0.446184 0.667113 0.716108 0.205301 0.352943 0.189634
0.186092 1.04507 -0.245708 0.667113 0.716108 0.205301 0.352943 0.189634
0.23981 1.0525 -0.446184 -0.008909 0.999359 0.03466 0.352943 0.189634
-0.034796 1.0525 -0.516768 -0.008909 0.999359 0.03466 0.352943 0.189634
0.186092 1.04507 -0.245708 -0.008909 0.999359 0.03466 0.352943 0.189634
-0.342689 0.632444 -0.718676 -0.545993 0.652676 -0.525267 0.352943 0.189634
-0.264919 0.927796 -0.432522 -0.545993 0.652676 -0.525267 0.352943 0.189634
-0.034796 1.0525 -0.516768 -0.545993 0.652676 -0.525267 0.352943 0.189634
-0.671373 0.496125 -0.841282 -0.023119 0.698782 -0.714961 0.352943 0.189634
-0.264919 0.927796 -0.432522 -0.023119 0.698782 -0.714961 0.352943 0.189634
-0.342689 0.632444 -0.718676 -0.023119 0.698782 -0.714961 0.352943 0.189634
-0.906335 0.590412 -0.740925 -0.024434 0.699404 -0.714309 0.352943 0.189634
-0.264919 0.927796 -0.432522 -0.024434 0.699404 -0.714309 0.352943 0.189634
-0.671373 0.496125 -0.841282 -0.024434 0.699404 -0.714309 0.352943 0.189634
-0.906335 0.590412 -0.740925 -0.395185 0.903405 -0.166395 0.352943 0.189634
-0.628987 0.785743 -0.339113 -0.395185 0.903405 -0.166395 0.352943 0.189634
-0.264919 0.927796 -0.432522 -0.395185 0.903405 -0.166395 0.352943 0.189634
-0.628987 0.785743 -0.339113 -0.422271 0.720777 -0.549698 0.352943 0.189634
-0.65537 0.956163 -0.095387 -0.422271 0.720777 -0.549698 0.352943 0.189634
-0.264919 0.927796 -0.432522 -0.422271 0.720777 -0.549698 0.352943 0.189634
-0.652211 0.934741 0.238287 -0.071068 0.966163 0.247948 0.352943 0.189634
-0.378139 0.971973 0.171764 -0.071068 0.966163 0.247948 0.352943 0.189634
-0.775663 0.956163 0.119429 -0.071068 0.966163 0.247948 0.352943 0.189634
-0.536685 0.706681 0.480412 0.005427 0.85845 0.512869 0.352943 0.189634
-0.034797 0.735833 0.426306 0.005427 0.85845 0.512869 0.352943 0.189634
-0.05737 0.910304 0.134512 0.005427 0.85845 0.512869 0.352943 0.189634
-0.034797 0.735833 0.426306 0.071942 0.858495 0.50775 0.352943 0.189634
0.229588 0.792566 0.292923 0.071942 0.858495 0.50775 0.352943 0.189634
-0.05737 0.910304 0.134512 0.071942 0.858495 0.50775 0.352943 0.189634
0.229588 0.792566 0.292923 0.247621 0.936679 0.247621 0.352943 0.189634
0.018598 0.910304 0.058544 0.247621 0.936679 0.247621 0.352943 0.189634
-0.05737 0.910304 0.134512 0.247621 0.936679 0.247621 0.352943 0.189634
0.229588 0.792566 0.292923 0.351129 0.924504 0.148326 0.352943 0.189634
0.437055 0.78609 -0.157845 0.351129 0.924504 0.148326 0.352943 0.189634
0.018598 0.910304 0.058544 0.351129 0.924504 0.148326 0.352943 0.189634
0.437055 0.78609 -0.157845 0.417601 0.62759 0.65707 0.352943 0.189634
0.186092 1.04507 -0.245708 0.417601 0.62759 0.65707 0.352943 0.189634
0.135276 0.952148 -0.124657 0.417601 0.62759 0.65707 0.352943 0.189634
-0.264919 0.927796 -0.432522 2.5e-05 0.996481 -0.083817 0.352943 0.189634
-0.65537 0.956163 -0.095387 2.5e-05 0.996481 -0.083817 0.352943 0.189634
-0.361621 0.964893 0.008488 2.5e-05 0.996481 -0.083817 0.352943 0.189634
-0.65537 0.956163 -0.095387 -0.024797 0.999596 -0.013886 0.352943 0.189634
-0.775663 0.956163 0.119429 -0.024797 0.999596 -0.013886 0.352943 0.189634
-0.361621 0.964893 0.008488 -0.024797 0.999596 -0.013886 0.352943 0.189634
-0.775663 0.956163 0.119429 -0.033559 0.998346 -0.046686 0.352943 0.189634
-0.378139 0.971973 0.171764 -0.033559 0.998346 -0.046686 0.352943 0.189634
-0.361621 0.964893 0.008488 -0.033559 0.998346 -0.046686 0.352943 0.189634
0.437055 0.78609 -0.157845 0.343442 0.930098 0.130249 0.352943 0.189634
0.046404 0.914569 -0.045231 0.343442 0.930098 0.130249 0.352943 0.189634
0.018598 0.910304 0.058544 0.343442 0.930098 0.130249 0.352943 0.189634
0.437055 0.78609 -0.157845 0.395652 0.576071 0.715264 0.352943 0.189634
0.135276 0.952148 -0.124657 0.395652 0.576071 0.715264 0.352943 0.189634
0.046404 0.914569 -0.045231 0.395652 0.576071 0.715264 0.352943 0.189634
0.186092 1.04507 -0.245708 -0.230995 0.94907 0.21426 0.352943 0.189634
-0.034796 1.0525 -0.516768 -0.230995 0.94907 0.21426 0.352943 0.189634
-0.161145 0.962154 -0.252779 -0.230995 0.94907 0.21426 0.352943 0.189634
-0.034796 1.0525 -0.516768 -0.449071 0.889019 0.089333 0.352943 0.189634
-0.264919 0.927796 -0.432522 -0.449071 0.889019 0.089333 0.352943 0.189634
-0.161145 0.962154 -0.252779 -0.449071 0.889019 0.089333 0.352943 0.189634
-0.05737 0.910304 0.134512 0.188642 0.982045 -0.001378 0.352943 0.189634
-0.161145 0.929986 -0.045231 0.188642 0.982045 -0.001378 0.352943 0.189634
-0.378139 0.971973 0.171764 0.188642 0.982045 -0.001378 0.352943 0.189634
0.186092 1.04507 -0.245708 0.112811 0.764731 0.634397 0.352943 0.189634
-0.161145 0.929986 -0.045231 0.112811 0.764731 0.634397 0.352943 0.189634
0.135276 0.952148 -0.124657 0.112811 0.764731 0.634397 0.352943 0.189634
0.186092 1.04507 -0.245708 -0.232541 0.961111 0.148963 0.352943 0.189634
-0.161145 0.962154 -0.252779 -0.232541 0.961111 0.148963 0.352943 0.189634
-0.161145 0.929986 -0.045231 -0.232541 0.961111 0.148963 0.352943 0.189634
-0.264919 0.927796 -0.432522 -0.50972 0.850189 0.131771 0.352943 0.189634
-0.161145 0.929986 -0.045231 -0.50972 0.850189 0.131771 0.352943 0.189634
-0.161145 0.962154 -0.252779 -0.50972 0.850189 0.131771 0.352943 0.189634
-0.161145 0.929986 -0.045231 0.15881 0.986135 -0.048129 0.352943 0.189634
-0.264919 0.927796 -0.432522 0.15881 0.986135 -0.048129 0.352943 0.189634
-0.361621 0.964893 0.008488 0.15881 0.986135 -0.048129 0.352943 0.189634
-0.378139 0.971973 0.171764 0.164691 0.986 -0.026094 0.352943 0.189634
-0.161145 0.929986 -0.045231 0.164691 0.986 -0.026094 0.352943 0.189634
-0.361621 0.964893 0.008488 0.164691 0.986 -0.026094 0.352943 0.189634
-0.05737 0.910304 0.134512 0.069088 0.995215 0.069088 0.352943 0.189634
0.018598 0.910304 0.058544 0.069088 0.995215 0.069088 0.352943 0.189634
-0.161145 0.929986 -0.045231 0.069088 0.995215 0.069088 0.352943 0.189634
0.018598 0.910304 0.058544 0.07394 0.995412 0.060722 0.352943 0.189634
0.046404 0.914569 -0.045231 0.07394 0.995412 0.060722 0.352943 0.189634
-0.161145 0.929986 -0.045231 0.07394 0.995412 0.060722 0.352943 0.189634
-0.426908 0 0.108208 0 -1 0 0.352943 0.189634
0.046404 0.914569 -0.045231 0.064778 0.872065 0.485084 0.352943 0.189634
0.135276 0.952148 -0.124657 0.064778 0.872065 0.485084 0.352943 0.189634
-0.161145 0.929986 -0.045231 0.064778 0.872065 0.485084 0.352943 0.189634
3 0 1 2 
3 3 4 5 
3 6 7 8 
3 9 10 11 
3 12 13 14 
3 15 16 17 
3 18 19 20 
3 10 21 22 
3 23 24 25 
3 26 27 28 
3 29 30 31 
3 32 33 34 
3 35 36 37 
3 38 39 40 
3 41 42 43 
3 44 45 46 
3 47 48 49 
3 50 51 52 
3 53 54 55 
3 56 57 58 
3 59 60 61 
3 62 63 64 
3 65 66 67 
3 68 69 70 
3 71 72 73 
3 74 75 76 
3 77 78 79 
3 80 81 82 
3 83 84 85 
3 86 87 88 
3 89 90 91 
3 92 93 94 
3 95 96 97 
3 98 99 100 
3 101 102 103 
3 104 105 106 
3 107 108 109 
3 110 111 112 
3 113 114 115 
3 116 117 118 
3 119 120 121 
3 122 123 124 
3 125 126 127 
3 128 129 130 
3 131 132 133 
3 134 135 136 
3 137 138 139 
3 140 141 142 
3 143 144 145 
3 146 147 148 
3 149 150 151 
3 152 153 154 
3 155 156 157 
3 158 159 160 
3 161 162 163 
3 164 165 166 
3 167 168 169 
3 170 171 172 
3 173 174 175 
3 176 177 178 
3 179 180 181 
3 182 183 184 
3 185 186 187 
3 188 189 190 
3 191 192 193 
3 194 195 196 
3 197 198 199 
3 200 201 202 
3 203 204 205 
3 206 207 208 
3 209 210 211 
3 212 213 214 
3 215 216 217 
3 218 219 220 
3 221 222 223 
3 224 225 226 
3 227 228 229 
3 230 231 232 
3 233 234 235 
3 236 237 238 
3 239 240 241 
3 242 243 244 
3 245 246 247 
3 248 249 250 
3 251 252 253 
3 254 255 256 
3 257 258 259 
3 260 261 262 
3 263 264 265 
3 266 267 268 
3 269 270 271 
3 272 273 274 
3 275 276 277 
3 278 279 280 
3 281 282 283 
3 284 285 286 
3 287 288 289 
3 290 291 292 
3 293 294 295 
3 296 297 298 
3 299 300 301 
3 302 303 304 
3 305 306 307 
3 308 309 310 
3 311 312 313 
3 314 315 316 
3 317 318 319 
3 320 321 322 
3 323 324 325 
3 326 327 328 
3 329 330 331 
3 332 333 334 
3 335 336 337 
3 338 339 340 
3 341 342 343 
3 344 345 346 
3 347 348 349 
3 350 351 352 
3 353 354 355 
3 356 357 358 
3 359 360 361 
3 362 363 364 
3 365 366 367 
3 368 369 370 
3 371 372 373 
3 374 375 376 
3 377 378 379 
3 380 381 382 
3 383 384 385 
3 386 387 388 
3 389 390 391 
3 392 393 394 
3 395 396 397 
3 398 399 400 
3 401 402 403 
3 404 405 406 
3 407 408 409 
3 410 411 412 
3 413 414 415 
3 416 417 418 
3 419 21 10 
3 420 421 422 
