ply
format ascii 1.0
comment VCGLIB generated
comment TextureFile Texture_01_A.png
element vertex 426
property float x
property float y
property float z
property float nx
property float ny
property float nz
property float texture_u
property float texture_v
element face 142
property list uchar int vertex_indices
end_header
0.706654 1.00401 0.050341 0.870896 0.485503 0.076341 0.352943 0.189634
0.661313 1.03027 0.400618 0.870896 0.485503 0.076341 0.352943 0.189634
0.812873 0.751387 0.445223 0.870896 0.485503 0.076341 0.352943 0.189634
0.706654 1.00401 0.050341 0.879156 0.470013 0.078571 0.352943 0.189634
0.600453 1.1619 0.294193 0.879156 0.470013 0.078571 0.352943 0.189634
0.661313 1.03027 0.400618 0.879156 0.470013 0.078571 0.352943 0.189634
0.706654 1.00401 0.050341 0.911035 0.343626 -0.227897 0.352943 0.189634
0.584329 1.12163 -0.261316 0.911035 0.343626 -0.227897 0.352943 0.189634
0.582578 1.20106 -0.14855 0.911035 0.343626 -0.227897 0.352943 0.189634
0.600453 1.1619 0.294193 0.91352 0.376478 0.154097 0.352943 0.189634
0.706654 1.00401 0.050341 0.91352 0.376478 0.154097 0.352943 0.189634
0.5735 1.26837 0.193855 0.91352 0.376478 0.154097 0.352943 0.189634
0.5735 1.26837 0.193855 0.874833 0.479194 -0.071002 0.352943 0.189634
0.706654 1.00401 0.050341 0.874833 0.479194 -0.071002 0.352943 0.189634
0.582578 1.20106 -0.14855 0.874833 0.479194 -0.071002 0.352943 0.189634
0.584329 1.12163 -0.261316 0.836181 0.533588 -0.126826 0.352943 0.189634
0.706654 1.00401 0.050341 0.836181 0.533588 -0.126826 0.352943 0.189634
0.731434 0.906078 -0.198322 0.836181 0.533588 -0.126826 0.352943 0.189634
0.706654 1.00401 0.050341 0.929087 0.366237 -0.051657 0.352943 0.189634
0.912997 0.456502 -0.120182 0.929087 0.366237 -0.051657 0.352943 0.189634
0.731434 0.906078 -0.198322 0.929087 0.366237 -0.051657 0.352943 0.189634
0.706654 1.00401 0.050341 0.93209 0.360905 -0.030903 0.352943 0.189634
0.913155 0.503014 0.427778 0.93209 0.360905 -0.030903 0.352943 0.189634
0.912997 0.456502 -0.120182 0.93209 0.360905 -0.030903 0.352943 0.189634
0.582578 1.20106 -0.14855 0.678506 0.605485 -0.415955 0.352943 0.189634
0.584329 1.12163 -0.261316 0.678506 0.605485 -0.415955 0.352943 0.189634
0.395242 1.22751 -0.415638 0.678506 0.605485 -0.415955 0.352943 0.189634
0.912997 0.456502 -0.120182 0.668087 -0.741434 0.062742 0.352943 0.189634
0.913155 0.503014 0.427778 0.668087 -0.741434 0.062742 0.352943 0.189634
0.814339 0.387512 0.115078 0.668087 -0.741434 0.062742 0.352943 0.189634
0.812873 0.751387 0.445223 0.658129 0.215045 0.721541 0.352943 0.189634
0.434771 0.362448 0.906013 0.658129 0.215045 0.721541 0.352943 0.189634
0.913155 0.503014 0.427778 0.658129 0.215045 0.721541 0.352943 0.189634
0.812873 0.751387 0.445223 0.513285 0.400362 0.75911 0.352943 0.189634
0.661313 1.03027 0.400618 0.513285 0.400362 0.75911 0.352943 0.189634
0.434771 0.362448 0.906013 0.513285 0.400362 0.75911 0.352943 0.189634
0.661313 1.03027 0.400618 0.459007 0.677194 0.575083 0.352943 0.189634
0.600453 1.1619 0.294193 0.459007 0.677194 0.575083 0.352943 0.189634
0.188371 0.880704 0.954222 0.459007 0.677194 0.575083 0.352943 0.189634
0.600453 1.1619 0.294193 0.794397 0.510811 0.32864 0.352943 0.189634
0.5735 1.26837 0.193855 0.794397 0.510811 0.32864 0.352943 0.189634
0.155146 1.70589 0.52507 0.794397 0.510811 0.32864 0.352943 0.189634
0.5735 1.26837 0.193855 0.786549 0.609546 -0.098966 0.352943 0.189634
0.582578 1.20106 -0.14855 0.786549 0.609546 -0.098966 0.352943 0.189634
0.276152 1.66649 0.282698 0.786549 0.609546 -0.098966 0.352943 0.189634
0.276152 1.66649 0.282698 0.600234 0.719283 -0.349787 0.352943 0.189634
0.582578 1.20106 -0.14855 0.600234 0.719283 -0.349787 0.352943 0.189634
0.395242 1.22751 -0.415638 0.600234 0.719283 -0.349787 0.352943 0.189634
0.395242 1.22751 -0.415638 0.696517 0.28259 -0.65955 0.352943 0.189634
0.584329 1.12163 -0.261316 0.696517 0.28259 -0.65955 0.352943 0.189634
0.731434 0.906078 -0.198322 0.696517 0.28259 -0.65955 0.352943 0.189634
0.483819 0.256463 0.191135 0.39559 -0.904171 0.161191 0.352943 0.189634
0.814339 0.387512 0.115078 0.39559 -0.904171 0.161191 0.352943 0.189634
0.434771 0.362448 0.906013 0.39559 -0.904171 0.161191 0.352943 0.189634
0.913155 0.503014 0.427778 0.442279 -0.877709 0.184435 0.352943 0.189634
0.434771 0.362448 0.906013 0.442279 -0.877709 0.184435 0.352943 0.189634
0.814339 0.387512 0.115078 0.442279 -0.877709 0.184435 0.352943 0.189634
0.434771 0.362448 0.906013 0.899232 0.025467 0.43673 0.352943 0.189634
0.661313 1.03027 0.400618 0.899232 0.025467 0.43673 0.352943 0.189634
0.39228 0.621285 0.978409 0.899232 0.025467 0.43673 0.352943 0.189634
0.600453 1.1619 0.294193 0.725681 0.340231 0.598021 0.352943 0.189634
0.155146 1.70589 0.52507 0.725681 0.340231 0.598021 0.352943 0.189634
0.188371 0.880704 0.954222 0.725681 0.340231 0.598021 0.352943 0.189634
0.5735 1.26837 0.193855 0.793422 0.523175 0.311076 0.352943 0.189634
0.276152 1.66649 0.282698 0.793422 0.523175 0.311076 0.352943 0.189634
0.155146 1.70589 0.52507 0.793422 0.523175 0.311076 0.352943 0.189634
0.731434 0.906078 -0.198322 0.713753 0.328213 -0.618735 0.352943 0.189634
0.215136 0.849709 -0.823809 0.713753 0.328213 -0.618735 0.352943 0.189634
0.395242 1.22751 -0.415638 0.713753 0.328213 -0.618735 0.352943 0.189634
0.215136 0.849709 -0.823809 0.745998 0.203456 -0.634107 0.352943 0.189634
0.731434 0.906078 -0.198322 0.745998 0.203456 -0.634107 0.352943 0.189634
0.306675 0.405114 -0.858768 0.745998 0.203456 -0.634107 0.352943 0.189634
0.731434 0.906078 -0.198322 0.751581 0.193946 -0.630484 0.352943 0.189634
0.912997 0.456502 -0.120182 0.751581 0.193946 -0.630484 0.352943 0.189634
0.306675 0.405114 -0.858768 0.751581 0.193946 -0.630484 0.352943 0.189634
0.306675 0.405114 -0.858768 0.605472 -0.655441 -0.451443 0.352943 0.189634
0.912997 0.456502 -0.120182 0.605472 -0.655441 -0.451443 0.352943 0.189634
0.30179 0.306155 -0.721643 0.605472 -0.655441 -0.451443 0.352943 0.189634
0.912997 0.456502 -0.120182 0.351142 -0.927959 -0.12487 0.352943 0.189634
0.814339 0.387512 0.115078 0.351142 -0.927959 -0.12487 0.352943 0.189634
0.30179 0.306155 -0.721643 0.351142 -0.927959 -0.12487 0.352943 0.189634
0.30179 0.306155 -0.721643 0.342181 -0.932071 -0.118981 0.352943 0.189634
0.814339 0.387512 0.115078 0.342181 -0.932071 -0.118981 0.352943 0.189634
0.483819 0.256463 0.191135 0.342181 -0.932071 -0.118981 0.352943 0.189634
0.434771 0.362448 0.906013 0.385656 -0.908461 0.161145 0.352943 0.189634
0.284826 0.260285 0.688917 0.385656 -0.908461 0.161145 0.352943 0.189634
0.483819 0.256463 0.191135 0.385656 -0.908461 0.161145 0.352943 0.189634
0.39228 0.621285 0.978409 0.57871 0.513918 0.633233 0.352943 0.189634
0.661313 1.03027 0.400618 0.57871 0.513918 0.633233 0.352943 0.189634
0.188371 0.880704 0.954222 0.57871 0.513918 0.633233 0.352943 0.189634
0.188371 0.880704 0.954222 0.412312 0.433369 0.801368 0.352943 0.189634
0.155146 1.70589 0.52507 0.412312 0.433369 0.801368 0.352943 0.189634
0.121501 1.04499 0.899786 0.412312 0.433369 0.801368 0.352943 0.189634
0.276152 1.66649 0.282698 0.959503 0.281385 -0.013253 0.352943 0.189634
0.395242 1.22751 -0.415638 0.959503 0.281385 -0.013253 0.352943 0.189634
0.178004 1.96291 -0.529591 0.959503 0.281385 -0.013253 0.352943 0.189634
0.30179 0.306155 -0.721643 0.551294 -0.819867 -0.154574 0.352943 0.189634
0.483819 0.256463 0.191135 0.551294 -0.819867 -0.154574 0.352943 0.189634
0.250569 0.078871 0.301195 0.551294 -0.819867 -0.154574 0.352943 0.189634
0.483819 0.256463 0.191135 0.660634 -0.700676 0.269474 0.352943 0.189634
0.284826 0.260285 0.688917 0.660634 -0.700676 0.269474 0.352943 0.189634
0.250569 0.078871 0.301195 0.660634 -0.700676 0.269474 0.352943 0.189634
0.155146 1.70589 0.52507 0.246778 0.468427 0.848338 0.352943 0.189634
0.022663 1.14447 0.873606 0.246778 0.468427 0.848338 0.352943 0.189634
0.121501 1.04499 0.899786 0.246778 0.468427 0.848338 0.352943 0.189634
0.155146 1.70589 0.52507 0.635392 0.746953 0.195802 0.352943 0.189634
0.276152 1.66649 0.282698 0.635392 0.746953 0.195802 0.352943 0.189634
0.178004 1.96291 -0.529591 0.635392 0.746953 0.195802 0.352943 0.189634
0.395242 1.22751 -0.415638 0.836218 0.166032 -0.52266 0.352943 0.189634
0.215136 0.849709 -0.823809 0.836218 0.166032 -0.52266 0.352943 0.189634
0.178004 1.96291 -0.529591 0.836218 0.166032 -0.52266 0.352943 0.189634
0.30179 0.306155 -0.721643 0.993405 0.090854 0.069936 0.352943 0.189634
0.250569 0.078871 0.301195 0.993405 0.090854 0.069936 0.352943 0.189634
0.289945 0.161636 -0.365644 0.993405 0.090854 0.069936 0.352943 0.189634
0.39228 0.621285 0.978409 0.167524 -0.239951 0.956221 0.352943 0.189634
0.137142 0.329883 0.949984 0.167524 -0.239951 0.956221 0.352943 0.189634
0.434771 0.362448 0.906013 0.167524 -0.239951 0.956221 0.352943 0.189634
0.39228 0.621285 0.978409 -0.114069 0.002965 0.993468 0.352943 0.189634
0.188371 0.880704 0.954222 -0.114069 0.002965 0.993468 0.352943 0.189634
0.137142 0.329883 0.949984 -0.114069 0.002965 0.993468 0.352943 0.189634
0.155146 1.70589 0.52507 0.931912 0.347209 0.104812 0.352943 0.189634
0.178004 1.96291 -0.529591 0.931912 0.347209 0.104812 0.352943 0.189634
0.099527 1.90035 0.375389 0.931912 0.347209 0.104812 0.352943 0.189634
0.289945 0.161636 -0.365644 0.349645 -0.93205 -0.095035 0.352943 0.189634
0.250569 0.078871 0.301195 0.349645 -0.93205 -0.095035 0.352943 0.189634
-0.097997 -0 -0.207697 0.349645 -0.93205 -0.095035 0.352943 0.189634
0.434771 0.362448 0.906013 0.151093 -0.930547 0.333547 0.352943 0.189634
0.137142 0.329883 0.949984 0.151093 -0.930547 0.333547 0.352943 0.189634
0.284826 0.260285 0.688917 0.151093 -0.930547 0.333547 0.352943 0.189634
0.099527 1.90035 0.375389 0.832467 0.543101 0.109728 0.352943 0.189634
0.178004 1.96291 -0.529591 0.832467 0.543101 0.109728 0.352943 0.189634
-0.034985 2.24171 -0.293697 0.832467 0.543101 0.109728 0.352943 0.189634
0.178004 1.96291 -0.529591 0.366674 0.249141 -0.89637 0.352943 0.189634
0.215136 0.849709 -0.823809 0.366674 0.249141 -0.89637 0.352943 0.189634
-0.020188 1.60486 -0.71018 0.366674 0.249141 -0.89637 0.352943 0.189634
0.250569 0.078871 0.301195 0.1191 -0.903306 0.412132 0.352943 0.189634
0.284826 0.260285 0.688917 0.1191 -0.903306 0.412132 0.352943 0.189634
0.074688 0.037262 0.260824 0.1191 -0.903306 0.412132 0.352943 0.189634
0.178004 1.96291 -0.529591 0.837811 0.530349 0.129626 0.352943 0.189634
0.085101 2.10528 -0.511662 0.837811 0.530349 0.129626 0.352943 0.189634
-0.034985 2.24171 -0.293697 0.837811 0.530349 0.129626 0.352943 0.189634
0.178004 1.96291 -0.529591 0.285531 0.300888 -0.909911 0.352943 0.189634
-0.020188 1.60486 -0.71018 0.285531 0.300888 -0.909911 0.352943 0.189634
0.085101 2.10528 -0.511662 0.285531 0.300888 -0.909911 0.352943 0.189634
0.215136 0.849709 -0.823809 0.269902 0.224984 -0.936235 0.352943 0.189634
-0.102738 1.1611 -0.840618 0.269902 0.224984 -0.936235 0.352943 0.189634
-0.020188 1.60486 -0.71018 0.269902 0.224984 -0.936235 0.352943 0.189634
0.215136 0.849709 -0.823809 0.15964 0.110008 -0.981027 0.352943 0.189634
0.306675 0.405114 -0.858768 0.15964 0.110008 -0.981027 0.352943 0.189634
-0.102738 1.1611 -0.840618 0.15964 0.110008 -0.981027 0.352943 0.189634
0.30179 0.306155 -0.721643 -0.097622 -0.805365 -0.584685 0.352943 0.189634
-0.015009 0.260238 -0.605501 -0.097622 -0.805365 -0.584685 0.352943 0.189634
0.306675 0.405114 -0.858768 -0.097622 -0.805365 -0.584685 0.352943 0.189634
0.30179 0.306155 -0.721643 -0.003645 -0.926514 -0.376243 0.352943 0.189634
0.289945 0.161636 -0.365644 -0.003645 -0.926514 -0.376243 0.352943 0.189634
-0.015009 0.260238 -0.605501 -0.003645 -0.926514 -0.376243 0.352943 0.189634
-0.015009 0.260238 -0.605501 0.138265 -0.84177 -0.52183 0.352943 0.189634
0.289945 0.161636 -0.365644 0.138265 -0.84177 -0.52183 0.352943 0.189634
-0.097997 -0 -0.207697 0.138265 -0.84177 -0.52183 0.352943 0.189634
0.155146 1.70589 0.52507 -0.598494 0.519723 0.609666 0.352943 0.189634
-0.130482 1.47647 0.440248 -0.598494 0.519723 0.609666 0.352943 0.189634
0.022663 1.14447 0.873606 -0.598494 0.519723 0.609666 0.352943 0.189634
0.155146 1.70589 0.52507 0.357502 0.631697 0.68786 0.352943 0.189634
0.099527 1.90035 0.375389 0.357502 0.631697 0.68786 0.352943 0.189634
-0.032227 1.94453 0.403292 0.357502 0.631697 0.68786 0.352943 0.189634
-0.032227 1.94453 0.403292 0.364504 0.857107 0.364011 0.352943 0.189634
0.099527 1.90035 0.375389 0.364504 0.857107 0.364011 0.352943 0.189634
-0.034985 2.24171 -0.293697 0.364504 0.857107 0.364011 0.352943 0.189634
0.250569 0.078871 0.301195 0.231982 -0.972686 -0.008144 0.352943 0.189634
0.074688 0.037262 0.260824 0.231982 -0.972686 -0.008144 0.352943 0.189634
-0.097997 -0 -0.207697 0.231982 -0.972686 -0.008144 0.352943 0.189634
0.074688 0.037262 0.260824 -0.029332 -0.880511 0.473117 0.352943 0.189634
0.284826 0.260285 0.688917 -0.029332 -0.880511 0.473117 0.352943 0.189634
-0.689215 0.37167 0.835825 -0.029332 -0.880511 0.473117 0.352943 0.189634
0.188371 0.880704 0.954222 0.091206 0.346484 0.933611 0.352943 0.189634
0.121501 1.04499 0.899786 0.091206 0.346484 0.933611 0.352943 0.189634
-0.002483 1.016 0.922657 0.091206 0.346484 0.933611 0.352943 0.189634
0.121501 1.04499 0.899786 0.093385 0.339123 0.936095 0.352943 0.189634
0.022663 1.14447 0.873606 0.093385 0.339123 0.936095 0.352943 0.189634
-0.002483 1.016 0.922657 0.093385 0.339123 0.936095 0.352943 0.189634
-0.130482 1.47647 0.440248 -0.392964 0.154067 0.906555 0.352943 0.189634
0.155146 1.70589 0.52507 -0.392964 0.154067 0.906555 0.352943 0.189634
-0.032227 1.94453 0.403292 -0.392964 0.154067 0.906555 0.352943 0.189634
-0.034985 2.24171 -0.293697 -0.009192 0.919822 0.392229 0.352943 0.189634
-0.240092 2.07026 0.103577 -0.009192 0.919822 0.392229 0.352943 0.189634
-0.032227 1.94453 0.403292 -0.009192 0.919822 0.392229 0.352943 0.189634
-0.034985 2.24171 -0.293697 -0.528427 0.844039 0.09145 0.352943 0.189634
-0.146819 2.17229 -0.299177 -0.528427 0.844039 0.09145 0.352943 0.189634
-0.240092 2.07026 0.103577 -0.528427 0.844039 0.09145 0.352943 0.189634
-0.034985 2.24171 -0.293697 -0.385768 0.671396 -0.63278 0.352943 0.189634
0.085101 2.10528 -0.511662 -0.385768 0.671396 -0.63278 0.352943 0.189634
-0.146819 2.17229 -0.299177 -0.385768 0.671396 -0.63278 0.352943 0.189634
-0.102738 1.1611 -0.840618 -0.193634 0.610835 -0.767715 0.352943 0.189634
-0.334404 0.9653 -0.937975 -0.193634 0.610835 -0.767715 0.352943 0.189634
-0.737805 1.18023 -0.66522 -0.193634 0.610835 -0.767715 0.352943 0.189634
-0.102738 1.1611 -0.840618 0.261002 0.164187 -0.951273 0.352943 0.189634
0.306675 0.405114 -0.858768 0.261002 0.164187 -0.951273 0.352943 0.189634
-0.334404 0.9653 -0.937975 0.261002 0.164187 -0.951273 0.352943 0.189634
-0.015009 0.260238 -0.605501 0.365264 -0.812096 -0.455063 0.352943 0.189634
-0.097997 -0 -0.207697 0.365264 -0.812096 -0.455063 0.352943 0.189634
-0.150676 0.129504 -0.481091 0.365264 -0.812096 -0.455063 0.352943 0.189634
0.284826 0.260285 0.688917 -0.078909 -0.973449 0.214874 0.352943 0.189634
0.137142 0.329883 0.949984 -0.078909 -0.973449 0.214874 0.352943 0.189634
-0.689215 0.37167 0.835825 -0.078909 -0.973449 0.214874 0.352943 0.189634
0.137142 0.329883 0.949984 -0.127381 0.156653 0.979405 0.352943 0.189634
-0.194848 0.845171 0.824387 -0.127381 0.156653 0.979405 0.352943 0.189634
-0.689215 0.37167 0.835825 -0.127381 0.156653 0.979405 0.352943 0.189634
0.188371 0.880704 0.954222 -0.158252 0.007121 0.987373 0.352943 0.189634
-0.002483 1.016 0.922657 -0.158252 0.007121 0.987373 0.352943 0.189634
0.137142 0.329883 0.949984 -0.158252 0.007121 0.987373 0.352943 0.189634
0.137142 0.329883 0.949984 -0.419357 -0.049235 0.906485 0.352943 0.189634
-0.002483 1.016 0.922657 -0.419357 -0.049235 0.906485 0.352943 0.189634
-0.194848 0.845171 0.824387 -0.419357 -0.049235 0.906485 0.352943 0.189634
-0.032227 1.94453 0.403292 -0.679629 0.376772 0.629403 0.352943 0.189634
-0.240092 2.07026 0.103577 -0.679629 0.376772 0.629403 0.352943 0.189634
-0.233959 1.74574 0.304464 -0.679629 0.376772 0.629403 0.352943 0.189634
0.085101 2.10528 -0.511662 -0.551141 0.405302 -0.729365 0.352943 0.189634
-0.020188 1.60486 -0.71018 -0.551141 0.405302 -0.729365 0.352943 0.189634
-0.146819 2.17229 -0.299177 -0.551141 0.405302 -0.729365 0.352943 0.189634
-0.146819 2.17229 -0.299177 -0.152012 0.557318 -0.816265 0.352943 0.189634
-0.020188 1.60486 -0.71018 -0.152012 0.557318 -0.816265 0.352943 0.189634
-0.1932 1.62257 -0.665869 -0.152012 0.557318 -0.816265 0.352943 0.189634
-0.020188 1.60486 -0.71018 -0.205804 0.311012 -0.927856 0.352943 0.189634
-0.102738 1.1611 -0.840618 -0.205804 0.311012 -0.927856 0.352943 0.189634
-0.1932 1.62257 -0.665869 -0.205804 0.311012 -0.927856 0.352943 0.189634
-0.1932 1.62257 -0.665869 -0.457944 0.2349 -0.857385 0.352943 0.189634
-0.102738 1.1611 -0.840618 -0.457944 0.2349 -0.857385 0.352943 0.189634
-0.476179 1.23441 -0.621071 -0.457944 0.2349 -0.857385 0.352943 0.189634
-0.102738 1.1611 -0.840618 -0.10281 0.87774 -0.467978 0.352943 0.189634
-0.737805 1.18023 -0.66522 -0.10281 0.87774 -0.467978 0.352943 0.189634
-0.476179 1.23441 -0.621071 -0.10281 0.87774 -0.467978 0.352943 0.189634
0.306675 0.405114 -0.858768 0.206933 0.099193 -0.973314 0.352943 0.189634
-0.29518 0.486724 -0.978409 0.206933 0.099193 -0.973314 0.352943 0.189634
-0.334404 0.9653 -0.937975 0.206933 0.099193 -0.973314 0.352943 0.189634
0.306675 0.405114 -0.858768 -0.01502 -0.859579 -0.510781 0.352943 0.189634
-0.015009 0.260238 -0.605501 -0.01502 -0.859579 -0.510781 0.352943 0.189634
-0.29518 0.486724 -0.978409 -0.01502 -0.859579 -0.510781 0.352943 0.189634
-0.015009 0.260238 -0.605501 -0.073383 -0.646495 -0.759381 0.352943 0.189634
-0.150676 0.129504 -0.481091 -0.073383 -0.646495 -0.759381 0.352943 0.189634
-0.326463 0.329986 -0.634783 -0.073383 -0.646495 -0.759381 0.352943 0.189634
-0.097997 -0 -0.207697 -0.20794 -0.898877 -0.385722 0.352943 0.189634
-0.300919 0.05484 -0.226101 -0.20794 -0.898877 -0.385722 0.352943 0.189634
-0.150676 0.129504 -0.481091 -0.20794 -0.898877 -0.385722 0.352943 0.189634
-0.097997 -0 -0.207697 -0.271641 -0.946284 0.175379 0.352943 0.189634
0.074688 0.037262 0.260824 -0.271641 -0.946284 0.175379 0.352943 0.189634
-0.300919 0.05484 -0.226101 -0.271641 -0.946284 0.175379 0.352943 0.189634
-0.194848 0.845171 0.824387 -0.502065 0.540498 0.675124 0.352943 0.189634
-0.808231 0.413366 0.713936 -0.502065 0.540498 0.675124 0.352943 0.189634
-0.689215 0.37167 0.835825 -0.502065 0.540498 0.675124 0.352943 0.189634
-0.002483 1.016 0.922657 -0.597041 0.385467 0.703532 0.352943 0.189634
0.022663 1.14447 0.873606 -0.597041 0.385467 0.703532 0.352943 0.189634
-0.368367 1.01049 0.61517 -0.597041 0.385467 0.703532 0.352943 0.189634
0.022663 1.14447 0.873606 -0.586495 0.529493 0.612911 0.352943 0.189634
-0.130482 1.47647 0.440248 -0.586495 0.529493 0.612911 0.352943 0.189634
-0.368367 1.01049 0.61517 -0.586495 0.529493 0.612911 0.352943 0.189634
-0.032227 1.94453 0.403292 -0.572182 0.183227 0.799397 0.352943 0.189634
-0.233959 1.74574 0.304464 -0.572182 0.183227 0.799397 0.352943 0.189634
-0.130482 1.47647 0.440248 -0.572182 0.183227 0.799397 0.352943 0.189634
-0.015009 0.260238 -0.605501 -0.16022 -0.892481 -0.421673 0.352943 0.189634
-0.326463 0.329986 -0.634783 -0.16022 -0.892481 -0.421673 0.352943 0.189634
-0.29518 0.486724 -0.978409 -0.16022 -0.892481 -0.421673 0.352943 0.189634
0.074688 0.037262 0.260824 -0.226843 -0.942196 0.246594 0.352943 0.189634
-0.689215 0.37167 0.835825 -0.226843 -0.942196 0.246594 0.352943 0.189634
-0.483534 0.179793 0.291901 -0.226843 -0.942196 0.246594 0.352943 0.189634
-0.483534 0.179793 0.291901 -0.451929 -0.881016 0.139897 0.352943 0.189634
-0.689215 0.37167 0.835825 -0.451929 -0.881016 0.139897 0.352943 0.189634
-0.808231 0.413366 0.713936 -0.451929 -0.881016 0.139897 0.352943 0.189634
-0.808231 0.413366 0.713936 -0.343041 0.256129 0.903726 0.352943 0.189634
-0.194848 0.845171 0.824387 -0.343041 0.256129 0.903726 0.352943 0.189634
-0.710781 0.736742 0.659277 -0.343041 0.256129 0.903726 0.352943 0.189634
-0.146819 2.17229 -0.299177 -0.867706 0.491153 -0.076523 0.352943 0.189634
-0.266256 1.97646 -0.201815 -0.867706 0.491153 -0.076523 0.352943 0.189634
-0.240092 2.07026 0.103577 -0.867706 0.491153 -0.076523 0.352943 0.189634
-0.146819 2.17229 -0.299177 -0.829168 0.356932 -0.43021 0.352943 0.189634
-0.1932 1.62257 -0.665869 -0.829168 0.356932 -0.43021 0.352943 0.189634
-0.407153 1.35095 -0.478861 -0.829168 0.356932 -0.43021 0.352943 0.189634
-0.1932 1.62257 -0.665869 -0.809811 0.580804 -0.082901 0.352943 0.189634
-0.476179 1.23441 -0.621071 -0.809811 0.580804 -0.082901 0.352943 0.189634
-0.407153 1.35095 -0.478861 -0.809811 0.580804 -0.082901 0.352943 0.189634
-0.737805 1.18023 -0.66522 -0.476872 0.193149 -0.857488 0.352943 0.189634
-0.334404 0.9653 -0.937975 -0.476872 0.193149 -0.857488 0.352943 0.189634
-0.913155 0.556497 -0.708199 -0.476872 0.193149 -0.857488 0.352943 0.189634
-0.334404 0.9653 -0.937975 -0.395947 0.045038 -0.917168 0.352943 0.189634
-0.29518 0.486724 -0.978409 -0.395947 0.045038 -0.917168 0.352943 0.189634
-0.913155 0.556497 -0.708199 -0.395947 0.045038 -0.917168 0.352943 0.189634
0.074688 0.037262 0.260824 -0.236918 -0.960176 0.148093 0.352943 0.189634
-0.483534 0.179793 0.291901 -0.236918 -0.960176 0.148093 0.352943 0.189634
-0.300919 0.05484 -0.226101 -0.236918 -0.960176 0.148093 0.352943 0.189634
-0.483534 0.179793 0.291901 -0.559452 -0.828388 0.028047 0.352943 0.189634
-0.808231 0.413366 0.713936 -0.559452 -0.828388 0.028047 0.352943 0.189634
-0.805725 0.399217 0.346016 -0.559452 -0.828388 0.028047 0.352943 0.189634
-0.002483 1.016 0.922657 -0.620648 0.276912 0.733564 0.352943 0.189634
-0.368367 1.01049 0.61517 -0.620648 0.276912 0.733564 0.352943 0.189634
-0.194848 0.845171 0.824387 -0.620648 0.276912 0.733564 0.352943 0.189634
-0.194848 0.845171 0.824387 -0.35679 0.566022 0.743182 0.352943 0.189634
-0.368367 1.01049 0.61517 -0.35679 0.566022 0.743182 0.352943 0.189634
-0.710781 0.736742 0.659277 -0.35679 0.566022 0.743182 0.352943 0.189634
-0.368367 1.01049 0.61517 -0.713569 0.534364 0.453073 0.352943 0.189634
-0.130482 1.47647 0.440248 -0.713569 0.534364 0.453073 0.352943 0.189634
-0.361216 1.31004 0.273138 -0.713569 0.534364 0.453073 0.352943 0.189634
-0.240092 2.07026 0.103577 -0.91667 0.197682 0.34733 0.352943 0.189634
-0.411474 1.4395 0.010263 -0.91667 0.197682 0.34733 0.352943 0.189634
-0.233959 1.74574 0.304464 -0.91667 0.197682 0.34733 0.352943 0.189634
-0.240092 2.07026 0.103577 -0.965095 0.261891 0.002241 0.352943 0.189634
-0.266256 1.97646 -0.201815 -0.965095 0.261891 0.002241 0.352943 0.189634
-0.411474 1.4395 0.010263 -0.965095 0.261891 0.002241 0.352943 0.189634
-0.146819 2.17229 -0.299177 -0.866258 0.352108 -0.354424 0.352943 0.189634
-0.407153 1.35095 -0.478861 -0.866258 0.352108 -0.354424 0.352943 0.189634
-0.266256 1.97646 -0.201815 -0.866258 0.352108 -0.354424 0.352943 0.189634
-0.407153 1.35095 -0.478861 -0.058907 0.785942 -0.615487 0.352943 0.189634
-0.476179 1.23441 -0.621071 -0.058907 0.785942 -0.615487 0.352943 0.189634
-0.737805 1.18023 -0.66522 -0.058907 0.785942 -0.615487 0.352943 0.189634
-0.29518 0.486724 -0.978409 -0.280829 -0.8633 -0.419343 0.352943 0.189634
-0.326463 0.329986 -0.634783 -0.280829 -0.8633 -0.419343 0.352943 0.189634
-0.913155 0.556497 -0.708199 -0.280829 -0.8633 -0.419343 0.352943 0.189634
-0.300919 0.05484 -0.226101 -0.776668 -0.617409 -0.124872 0.352943 0.189634
-0.483534 0.179793 0.291901 -0.776668 -0.617409 -0.124872 0.352943 0.189634
-0.556563 0.325341 0.026482 -0.776668 -0.617409 -0.124872 0.352943 0.189634
-0.483534 0.179793 0.291901 -0.572678 -0.774947 -0.267388 0.352943 0.189634
-0.805725 0.399217 0.346016 -0.572678 -0.774947 -0.267388 0.352943 0.189634
-0.556563 0.325341 0.026482 -0.572678 -0.774947 -0.267388 0.352943 0.189634
-0.368367 1.01049 0.61517 -0.519401 0.723055 0.455427 0.352943 0.189634
-0.567957 1.22218 0.051458 -0.519401 0.723055 0.455427 0.352943 0.189634
-0.710781 0.736742 0.659277 -0.519401 0.723055 0.455427 0.352943 0.189634
-0.710781 0.736742 0.659277 -0.062476 0.78696 0.613833 0.352943 0.189634
-0.567957 1.22218 0.051458 -0.062476 0.78696 0.613833 0.352943 0.189634
-0.729555 0.966652 0.362612 -0.062476 0.78696 0.613833 0.352943 0.189634
-0.130482 1.47647 0.440248 -0.642667 0.133466 0.754431 0.352943 0.189634
-0.233959 1.74574 0.304464 -0.642667 0.133466 0.754431 0.352943 0.189634
-0.361216 1.31004 0.273138 -0.642667 0.133466 0.754431 0.352943 0.189634
-0.361216 1.31004 0.273138 -0.921764 0.247783 0.298252 0.352943 0.189634
-0.233959 1.74574 0.304464 -0.921764 0.247783 0.298252 0.352943 0.189634
-0.411474 1.4395 0.010263 -0.921764 0.247783 0.298252 0.352943 0.189634
-0.411474 1.4395 0.010263 -0.969012 0.241423 -0.052265 0.352943 0.189634
-0.266256 1.97646 -0.201815 -0.969012 0.241423 -0.052265 0.352943 0.189634
-0.407153 1.35095 -0.478861 -0.969012 0.241423 -0.052265 0.352943 0.189634
-0.407153 1.35095 -0.478861 -0.422474 0.903039 -0.077691 0.352943 0.189634
-0.737805 1.18023 -0.66522 -0.422474 0.903039 -0.077691 0.352943 0.189634
-0.703303 1.21681 -0.427605 -0.422474 0.903039 -0.077691 0.352943 0.189634
-0.737805 1.18023 -0.66522 -0.959719 0.262994 0.098861 0.352943 0.189634
-0.913155 0.556497 -0.708199 -0.959719 0.262994 0.098861 0.352943 0.189634
-0.703303 1.21681 -0.427605 -0.959719 0.262994 0.098861 0.352943 0.189634
-0.326463 0.329986 -0.634783 -0.352511 -0.933647 -0.063556 0.352943 0.189634
-0.742437 0.471349 -0.404245 -0.352511 -0.933647 -0.063556 0.352943 0.189634
-0.913155 0.556497 -0.708199 -0.352511 -0.933647 -0.063556 0.352943 0.189634
-0.150676 0.129504 -0.481091 -0.493504 -0.758704 -0.425232 0.352943 0.189634
-0.742437 0.471349 -0.404245 -0.493504 -0.758704 -0.425232 0.352943 0.189634
-0.326463 0.329986 -0.634783 -0.493504 -0.758704 -0.425232 0.352943 0.189634
-0.300919 0.05484 -0.226101 -0.481834 -0.722702 -0.495517 0.352943 0.189634
-0.742437 0.471349 -0.404245 -0.481834 -0.722702 -0.495517 0.352943 0.189634
-0.150676 0.129504 -0.481091 -0.481834 -0.722702 -0.495517 0.352943 0.189634
-0.300919 0.05484 -0.226101 -0.697486 -0.714174 0.058899 0.352943 0.189634
-0.556563 0.325341 0.026482 -0.697486 -0.714174 0.058899 0.352943 0.189634
-0.742437 0.471349 -0.404245 -0.697486 -0.714174 0.058899 0.352943 0.189634
-0.556563 0.325341 0.026482 -0.422711 -0.898016 -0.121995 0.352943 0.189634
-0.805725 0.399217 0.346016 -0.422711 -0.898016 -0.121995 0.352943 0.189634
-0.742437 0.471349 -0.404245 -0.422711 -0.898016 -0.121995 0.352943 0.189634
-0.710781 0.736742 0.659277 -0.896001 0.321742 0.306046 0.352943 0.189634
-0.729555 0.966652 0.362612 -0.896001 0.321742 0.306046 0.352943 0.189634
-0.808231 0.413366 0.713936 -0.896001 0.321742 0.306046 0.352943 0.189634
-0.368367 1.01049 0.61517 -0.713245 0.534609 0.453294 0.352943 0.189634
-0.361216 1.31004 0.273138 -0.713245 0.534609 0.453294 0.352943 0.189634
-0.567957 1.22218 0.051458 -0.713245 0.534609 0.453294 0.352943 0.189634
-0.361216 1.31004 0.273138 -0.697027 0.581451 0.419604 0.352943 0.189634
-0.411474 1.4395 0.010263 -0.697027 0.581451 0.419604 0.352943 0.189634
-0.567957 1.22218 0.051458 -0.697027 0.581451 0.419604 0.352943 0.189634
-0.411474 1.4395 0.010263 -0.816351 0.566766 -0.111121 0.352943 0.189634
-0.557358 1.21516 -0.062212 -0.816351 0.566766 -0.111121 0.352943 0.189634
-0.567957 1.22218 0.051458 -0.816351 0.566766 -0.111121 0.352943 0.189634
-0.411474 1.4395 0.010263 -0.816684 0.566548 -0.109777 0.352943 0.189634
-0.407153 1.35095 -0.478861 -0.816684 0.566548 -0.109777 0.352943 0.189634
-0.557358 1.21516 -0.062212 -0.816684 0.566548 -0.109777 0.352943 0.189634
-0.407153 1.35095 -0.478861 -0.363196 0.897476 0.250251 0.352943 0.189634
-0.703303 1.21681 -0.427605 -0.363196 0.897476 0.250251 0.352943 0.189634
-0.592672 1.22134 -0.283268 -0.363196 0.897476 0.250251 0.352943 0.189634
-0.742437 0.471349 -0.404245 -0.996295 0.027859 -0.081364 0.352943 0.189634
-0.805725 0.399217 0.346016 -0.996295 0.027859 -0.081364 0.352943 0.189634
-0.790682 0.572663 0.221203 -0.996295 0.027859 -0.081364 0.352943 0.189634
-0.805725 0.399217 0.346016 -0.996797 0.07937 -0.009842 0.352943 0.189634
-0.808231 0.413366 0.713936 -0.996797 0.07937 -0.009842 0.352943 0.189634
-0.790682 0.572663 0.221203 -0.996797 0.07937 -0.009842 0.352943 0.189634
-0.808231 0.413366 0.713936 -0.988786 0.148785 0.012885 0.352943 0.189634
-0.729555 0.966652 0.362612 -0.988786 0.148785 0.012885 0.352943 0.189634
-0.790682 0.572663 0.221203 -0.988786 0.148785 0.012885 0.352943 0.189634
-0.407153 1.35095 -0.478861 -0.846225 0.514837 -0.13728 0.352943 0.189634
-0.561047 1.18141 -0.166059 -0.846225 0.514837 -0.13728 0.352943 0.189634
-0.557358 1.21516 -0.062212 -0.846225 0.514837 -0.13728 0.352943 0.189634
-0.407153 1.35095 -0.478861 -0.237407 0.898175 0.370025 0.352943 0.189634
-0.592672 1.22134 -0.283268 -0.237407 0.898175 0.370025 0.352943 0.189634
-0.561047 1.18141 -0.166059 -0.237407 0.898175 0.370025 0.352943 0.189634
-0.703303 1.21681 -0.427605 -0.93929 0.172459 0.296636 0.352943 0.189634
-0.913155 0.556497 -0.708199 -0.93929 0.172459 0.296636 0.352943 0.189634
-0.701479 0.913381 -0.245419 -0.93929 0.172459 0.296636 0.352943 0.189634
-0.913155 0.556497 -0.708199 -0.878797 -0.087149 0.46917 0.352943 0.189634
-0.742437 0.471349 -0.404245 -0.878797 -0.087149 0.46917 0.352943 0.189634
-0.701479 0.913381 -0.245419 -0.878797 -0.087149 0.46917 0.352943 0.189634
-0.567957 1.22218 0.051458 -0.901139 0.414267 -0.127796 0.352943 0.189634
-0.646557 1.02527 -0.032621 -0.901139 0.414267 -0.127796 0.352943 0.189634
-0.729555 0.966652 0.362612 -0.901139 0.414267 -0.127796 0.352943 0.189634
-0.703303 1.21681 -0.427605 -0.578683 0.698086 0.421666 0.352943 0.189634
-0.646557 1.02527 -0.032621 -0.578683 0.698086 0.421666 0.352943 0.189634
-0.592672 1.22134 -0.283268 -0.578683 0.698086 0.421666 0.352943 0.189634
-0.703303 1.21681 -0.427605 -0.974858 0.110366 0.193575 0.352943 0.189634
-0.701479 0.913381 -0.245419 -0.974858 0.110366 0.193575 0.352943 0.189634
-0.646557 1.02527 -0.032621 -0.974858 0.110366 0.193575 0.352943 0.189634
-0.742437 0.471349 -0.404245 -0.968259 -9.2e-05 0.249951 0.352943 0.189634
-0.646557 1.02527 -0.032621 -0.968259 -9.2e-05 0.249951 0.352943 0.189634
-0.701479 0.913381 -0.245419 -0.968259 -9.2e-05 0.249951 0.352943 0.189634
-0.646557 1.02527 -0.032621 -0.96334 0.243011 -0.113673 0.352943 0.189634
-0.742437 0.471349 -0.404245 -0.96334 0.243011 -0.113673 0.352943 0.189634
-0.790682 0.572663 0.221203 -0.96334 0.243011 -0.113673 0.352943 0.189634
-0.729555 0.966652 0.362612 -0.962508 0.210664 -0.17088 0.352943 0.189634
-0.646557 1.02527 -0.032621 -0.962508 0.210664 -0.17088 0.352943 0.189634
-0.790682 0.572663 0.221203 -0.962508 0.210664 -0.17088 0.352943 0.189634
-0.567957 1.22218 0.051458 -0.906123 0.408538 -0.10972 0.352943 0.189634
-0.557358 1.21516 -0.062212 -0.906123 0.408538 -0.10972 0.352943 0.189634
-0.646557 1.02527 -0.032621 -0.906123 0.408538 -0.10972 0.352943 0.189634
-0.557358 1.21516 -0.062212 -0.90645 0.410038 -0.101077 0.352943 0.189634
-0.561047 1.18141 -0.166059 -0.90645 0.410038 -0.101077 0.352943 0.189634
-0.646557 1.02527 -0.032621 -0.90645 0.410038 -0.101077 0.352943 0.189634
0.812873 0.751387 0.445223 0.926998 0.374947 -0.009479 0.352943 0.189634
0.913155 0.503014 0.427778 0.926998 0.374947 -0.009479 0.352943 0.189634
0.706654 1.00401 0.050341 0.926998 0.374947 -0.009479 0.352943 0.189634
-0.561047 1.18141 -0.166059 -0.617828 0.678287 0.397763 0.352943 0.189634
-0.592672 1.22134 -0.283268 -0.617828 0.678287 0.397763 0.352943 0.189634
-0.646557 1.02527 -0.032621 -0.617828 0.678287 0.397763 0.352943 0.189634
3 0 1 2 
3 3 4 5 
3 6 7 8 
3 9 10 11 
3 12 13 14 
3 15 16 17 
3 18 19 20 
3 21 22 23 
3 24 25 26 
3 27 28 29 
3 30 31 32 
3 33 34 35 
3 36 37 38 
3 39 40 41 
3 42 43 44 
3 45 46 47 
3 48 49 50 
3 51 52 53 
3 54 55 56 
3 57 58 59 
3 60 61 62 
3 63 64 65 
3 66 67 68 
3 69 70 71 
3 72 73 74 
3 75 76 77 
3 78 79 80 
3 81 82 83 
3 84 85 86 
3 87 88 89 
3 90 91 92 
3 93 94 95 
3 96 97 98 
3 99 100 101 
3 102 103 104 
3 105 106 107 
3 108 109 110 
3 111 112 113 
3 114 115 116 
3 117 118 119 
3 120 121 122 
3 123 124 125 
3 126 127 128 
3 129 130 131 
3 132 133 134 
3 135 136 137 
3 138 139 140 
3 141 142 143 
3 144 145 146 
3 147 148 149 
3 150 151 152 
3 153 154 155 
3 156 157 158 
3 159 160 161 
3 162 163 164 
3 165 166 167 
3 168 169 170 
3 171 172 173 
3 174 175 176 
3 177 178 179 
3 180 181 182 
3 183 184 185 
3 186 187 188 
3 189 190 191 
3 192 193 194 
3 195 196 197 
3 198 199 200 
3 201 202 203 
3 204 205 206 
3 207 208 209 
3 210 211 212 
3 213 214 215 
3 216 217 218 
3 219 220 221 
3 222 223 224 
3 225 226 227 
3 228 229 230 
3 231 232 233 
3 234 235 236 
3 237 238 239 
3 240 241 242 
3 243 244 245 
3 246 247 248 
3 249 250 251 
3 252 253 254 
3 255 256 257 
3 258 259 260 
3 261 262 263 
3 264 265 266 
3 267 268 269 
3 270 271 272 
3 273 274 275 
3 276 277 278 
3 279 280 281 
3 282 283 284 
3 285 286 287 
3 288 289 290 
3 291 292 293 
3 294 295 296 
3 297 298 299 
3 300 301 302 
3 303 304 305 
3 306 307 308 
3 309 310 311 
3 312 313 314 
3 315 316 317 
3 318 319 320 
3 321 322 323 
3 324 325 326 
3 327 328 329 
3 330 331 332 
3 333 334 335 
3 336 337 338 
3 339 340 341 
3 342 343 344 
3 345 346 347 
3 348 349 350 
3 351 352 353 
3 354 355 356 
3 357 358 359 
3 360 361 362 
3 363 364 365 
3 366 367 368 
3 369 370 371 
3 372 373 374 
3 375 376 377 
3 378 379 380 
3 381 382 383 
3 384 385 386 
3 387 388 389 
3 390 391 392 
3 393 394 395 
3 396 397 398 
3 399 400 401 
3 402 403 404 
3 405 406 407 
3 408 409 410 
3 411 412 413 
3 414 415 416 
3 417 418 419 
3 420 421 422 
3 423 424 425 
