ply
format ascii 1.0
comment VCGLIB generated
comment TextureFile Texture_01_A.png
element vertex 185
property float x
property float y
property float z
property float nx
property float ny
property float nz
property float texture_u
property float texture_v
element face 258
property list uchar int vertex_indices
end_header
-0.433255 0.064824 -0.201358 -0.002559488 0.8900285 0.4558978 0.33112 0.137998
0.432868 0.064824 -0.201358 0.002559488 -0.4106369 0.9117954 0.33112 0.137998
-0.433255 0.064824 -0.267582 -0.001567499 0.4472131 -0.8944261 0.33112 0.137998
0.432868 0.064824 -0.267582 0.001567499 0.8944261 -0.4472131 0.33112 0.137998
-0.433255 0.011897 -0.267582 -0.002215569 -0.9875695 0.1571673 0.33112 0.137998
0.432868 0.011897 -0.267582 0.002215569 -0.4937848 -0.8695813 0.33112 0.137998
-0.433255 0.011897 0.276613 -0.002215569 -0.4937848 0.8695813 0.33112 0.137998
0.432868 0.011897 0.276613 0.002215569 -0.9875695 -0.1571673 0.33112 0.137998
-0.433255 0.064824 0.276613 -0.001567499 0.8944261 0.4472131 0.33112 0.137998
0.432868 0.064824 0.276613 0.001567499 0.4472131 0.8944261 0.33112 0.137998
-0.433255 0.064824 0.210389 -0.002559488 -0.4106369 -0.9117954 0.33112 0.137998
0.432868 0.064824 0.210389 0.002559488 0.8900285 -0.4558978 0.33112 0.137998
-0.433255 0.329849 0.276613 -0.002215569 -0.4937848 0.8695813 0.33112 0.137998
0.432868 0.329849 0.276613 0.002215568 -0.9875696 -0.1571672 0.33112 0.137998
-0.433255 0.382776 0.276613 -0.001567498 0.8944261 0.4472131 0.33112 0.137998
0.432868 0.382776 0.276613 0.001567498 0.4472131 0.8944261 0.33112 0.137998
-0.433255 0.382776 0.210389 -0.002559487 -0.4106371 -0.9117953 0.33112 0.137998
0.432868 0.382776 0.210389 0.002559488 0.8900285 -0.4558977 0.33112 0.137998
-0.433255 0.382776 -0.201358 -0.002559488 0.8900285 0.4558977 0.33112 0.137998
0.432868 0.382776 -0.201358 0.002559487 -0.4106371 0.9117953 0.33112 0.137998
-0.433255 0.382776 -0.267582 -0.001567498 0.4472131 -0.8944261 0.33112 0.137998
0.432868 0.382776 -0.267582 0.001567498 0.8944261 -0.4472131 0.33112 0.137998
-0.433255 0.329849 -0.267582 -0.002215568 -0.9875696 0.1571672 0.33112 0.137998
0.432868 0.329849 -0.267582 0.002215569 -0.4937848 -0.8695813 0.33112 0.137998
-0.435248 0.382776 -0.116441 -0.03570724 0.9000791 0.434261 0.33112 0.137998
0.428203 0.382776 -0.048465 -0.06688362 -0.4904858 0.8688788 0.33112 0.137998
-0.431055 0.382776 -0.16971 0.06931274 0.4472134 -0.8917376 0.33112 0.137998
0.432397 0.382776 -0.101734 0.03598325 0.8944269 -0.4457643 0.33112 0.137998
-0.431055 0.345644 -0.16971 -0.007927925 -0.9963181 0.08536652 0.33112 0.137998
0.432397 0.345644 -0.101734 0.06925134 -0.498159 -0.8643159 0.33112 0.137998
-0.433255 0.345291 0.133671 -0.001238333 -0.4984272 0.8669307 0.33112 0.137998
0.432868 0.345291 0.133671 0.001238333 -0.9968543 -0.07924609 0.33112 0.137998
-0.433255 0.382776 0.133671 -0.0009163258 0.8944268 0.4472134 0.33112 0.137998
0.432868 0.382776 0.133671 0.0009163258 0.4472134 0.8944268 0.33112 0.137998
-0.433255 0.382776 0.07901 -0.001570942 -0.4979045 -0.8672305 0.33112 0.137998
0.432868 0.382776 0.07901 0.001570942 0.9010968 -0.4336153 0.33112 0.137998
-0.433255 0.047126 -0.099944 -0.001925152 0.9218486 0.3875456 0.33112 0.137998
0.432868 0.047126 -0.099944 0.001925152 -0.6318466 0.7750911 0.33112 0.137998
-0.433255 0.047126 -0.166168 -0.001043351 0.4472134 -0.8944267 0.33112 0.137998
0.432868 0.047126 -0.166168 0.001043351 0.8944267 -0.4472134 0.33112 0.137998
-0.433255 0.011897 -0.166168 -0.001320506 -0.9994087 -0.03435801 0.33112 0.137998
0.432868 0.011897 -0.166168 0.001320506 -0.4997044 -0.8661951 0.33112 0.137998
-0.433255 0.011897 0.181682 -0.001320506 -0.4997044 0.866195 0.33112 0.137998
0.432868 0.011897 0.181682 0.001320506 -0.9994087 0.03435804 0.33112 0.137998
-0.433255 0.047126 0.181682 -0.001043351 0.8944267 0.4472134 0.33112 0.137998
0.432868 0.047126 0.181682 0.001043351 0.4472134 0.8944267 0.33112 0.137998
-0.433255 0.047126 0.115458 -0.001925152 -0.6318467 -0.775091 0.33112 0.137998
0.432868 0.047126 0.115458 0.001925152 0.9218486 -0.3875455 0.33112 0.137998
-0.433255 0.103574 -0.267582 -0.001450316 -0.04746734 -0.9988717 0.33112 0.137998
0.432868 0.156501 -0.242664 0.001372044 0.9954399 0.09538155 0.33112 0.137998
-0.433255 0.156501 -0.242664 -0.000666432 0.9997315 0.02316446 0.33112 0.137998
-0.433255 0.156501 -0.267582 -0.0005898009 0.4472135 -0.8944271 0.33112 0.137998
0.432868 0.156501 -0.267582 0.0005898009 0.8944271 -0.4472135 0.33112 0.137998
0.432868 0.103574 -0.267582 0.0006748451 -0.01104349 -0.9999388 0.33112 0.137998
-0.433255 0.210296 -0.267582 0.0002376045 -0.04748613 -0.9988719 0.33112 0.137998
0.430761 0.29398 -0.242664 -0.03400729 0.9948595 0.09538431 0.33112 0.137998
-0.434887 0.263195 -0.242664 -0.0361969 0.9990762 0.02316485 0.33112 0.137998
-0.434887 0.263195 -0.267582 -0.01648365 0.4469122 -0.8944259 0.33112 0.137998
0.430761 0.29398 -0.267582 -0.03119895 0.8938823 -0.4472146 0.33112 0.137998
0.432393 0.241081 -0.267582 0.001067012 -0.01101663 -0.9999388 0.33112 0.137998
-0.433255 0.107502 0.276613 -0.001237915 -0.3893453 0.9210911 0.33112 0.137998
0.432868 0.107502 0.276613 0.001237915 -0.7786906 -0.6274069 0.33112 0.137998
-0.433255 0.16043 0.276613 -0.0006725153 0.894427 0.4472135 0.33112 0.137998
0.432868 0.16043 0.276613 0.0006725153 0.4472135 0.894427 0.33112 0.137998
-0.433255 0.16043 0.248201 -0.0008529776 0.03066639 -0.9995293 0.33112 0.137998
0.432868 0.16043 0.248201 0.0008529776 0.8661609 -0.4997647 0.33112 0.137998
-0.432998 0.246427 0.276613 -0.01445858 -0.420316 0.9072626 0.33112 0.137998
0.432653 0.215727 0.276613 -0.02462857 -0.8407643 -0.5408409 0.33112 0.137998
-0.431371 0.299325 0.276613 0.03084526 0.8938945 0.4472151 0.33112 0.137998
0.43428 0.268626 0.276613 0.01658376 0.4469092 0.8944256 0.33112 0.137998
-0.431371 0.299325 0.240496 0.0003077927 -0.0422331 -0.9991078 0.33112 0.137998
0.43428 0.268626 0.245586 0.03313949 0.8656511 -0.4995497 0.33112 0.137998
-0.363335 0.05858 0.297106 0.4515255 0.8922571 0.001428833 0.33112 0.137998
-0.363335 0.05858 -0.297702 0.9030511 -0.4295309 -0.001428833 0.33112 0.137998
-0.413366 0.05858 0.297106 -0.8944269 0.4472134 0.000865827 0.33112 0.137998
-0.413366 0.05858 -0.297702 -0.4472134 0.8944269 -0.000865827 0.33112 0.137998
-0.413366 0.019883 0.297106 0.1399615 -0.9901562 0.001211745 0.33112 0.137998
-0.413366 0.019883 -0.297702 -0.8688477 -0.4950781 -0.001211745 0.33112 0.137998
-0.363335 0.378144 0.297106 0.4515256 0.8922571 0.001428833 0.33112 0.137998
-0.363335 0.378144 -0.297702 0.9030511 -0.4295309 -0.001428833 0.33112 0.137998
-0.413366 0.378144 0.297106 -0.8944269 0.4472134 0.0008658271 0.33112 0.137998
-0.413366 0.378144 -0.297702 -0.4472134 0.8944269 -0.0008658271 0.33112 0.137998
-0.413366 0.339447 0.297106 0.1399615 -0.9901562 0.001211745 0.33112 0.137998
-0.413366 0.339447 -0.297702 -0.8688476 -0.4950781 -0.001211745 0.33112 0.137998
0.032939 0.339447 0.297106 0.8164966 -0.4082483 0.4082483 0.33112 0.137998
0.032939 0.339447 -0.297702 0.3333333 -0.6666667 -0.6666667 0.33112 0.137998
0.032939 0.378144 0.297106 0.3333333 0.6666667 0.6666667 0.33112 0.137998
0.032939 0.378144 -0.297702 0.8164966 0.4082483 -0.4082483 0.33112 0.137998
-0.017092 0.378144 0.297106 -0.8164966 0.4082483 0.4082483 0.33112 0.137998
-0.017092 0.378144 -0.297702 -0.3333333 0.6666667 -0.6666667 0.33112 0.137998
-0.017092 0.339447 0.297106 -0.3333333 -0.6666667 0.6666667 0.33112 0.137998
-0.017092 0.339447 -0.297702 -0.8164966 -0.4082483 -0.4082483 0.33112 0.137998
0.417295 0.339447 0.297106 0.7730915 -0.4396044 0.45725 0.33112 0.137998
0.417295 0.339447 -0.297702 0.1478762 -0.9884492 -0.03317963 0.33112 0.137998
0.417295 0.378144 0.297106 0.3333333 0.6666667 0.6666667 0.33112 0.137998
0.417295 0.378144 -0.297702 0.8944269 0.4472134 -0.0008658276 0.33112 0.137998
0.367264 0.378144 0.297106 -0.01627352 0.7070132 0.7070132 0.33112 0.137998
0.367264 0.378144 -0.297702 -0.3379271 0.940743 -0.02842402 0.33112 0.137998
0.367264 0.339447 0.297106 -0.2665748 -0.6679814 0.6947941 0.33112 0.137998
0.421459 0.019883 0.297106 0.8688477 -0.4950781 0.001211745 0.33112 0.137998
0.421459 0.019883 -0.297702 -0.1399615 -0.9901562 -0.001211745 0.33112 0.137998
0.421459 0.05858 0.297106 0.4472134 0.8944269 0.000865827 0.33112 0.137998
0.421459 0.05858 -0.297702 0.8944269 0.4472134 -0.000865827 0.33112 0.137998
0.371428 0.05858 0.297106 -0.9030511 -0.4295309 0.001428833 0.33112 0.137998
0.371428 0.05858 -0.297702 -0.4515255 0.8922571 -0.001428833 0.33112 0.137998
0.02772 0.019883 0.297106 0.8164966 -0.4082483 0.4082483 0.33112 0.137998
0.02772 0.019883 -0.297702 0.3333333 -0.6666667 -0.6666667 0.33112 0.137998
0.02772 0.05858 0.297106 0.3333333 0.6666667 0.6666667 0.33112 0.137998
0.02772 0.05858 -0.297702 0.8164966 0.4082483 -0.4082483 0.33112 0.137998
-0.022311 0.05858 0.297106 -0.8164966 0.4082483 0.4082483 0.33112 0.137998
-0.022311 0.05858 -0.297702 -0.3333333 0.6666667 -0.6666667 0.33112 0.137998
-0.022311 0.019883 0.297106 -0.3333333 -0.6666667 0.6666667 0.33112 0.137998
-0.022311 0.019883 -0.297702 -0.8164966 -0.4082483 -0.4082483 0.33112 0.137998
-0.382577 0.149827 0.297106 0.4820659 0.8761347 0.0007352383 0.33112 0.137998
-0.382577 0.149827 -0.297702 0.9641318 -0.2654229 -0.0007352383 0.33112 0.137998
-0.415189 0.149827 0.297106 -0.8944271 0.4472136 0.0004888881 0.33112 0.137998
-0.415189 0.149827 -0.297702 -0.4472136 0.8944271 -0.0004888881 0.33112 0.137998
-0.415189 0.116306 0.297106 0.2968341 -0.9549288 0.000748518 0.33112 0.137998
-0.415189 0.116306 -0.297702 -0.8786508 -0.4774644 -0.000748518 0.33112 0.137998
-0.382577 0.291448 0.295176 0.4820449 0.8742649 -0.05739032 0.33112 0.137998
-0.382577 0.251977 -0.298495 0.9640861 -0.2650529 0.01688489 0.33112 0.137998
-0.415189 0.291448 0.295176 -0.8944288 0.4462574 -0.02918018 0.33112 0.137998
-0.415189 0.251977 -0.298495 -0.4472118 0.8924252 -0.05982387 0.33112 0.137998
-0.415189 0.257991 0.297106 0.296658 -0.9528302 0.06409924 0.33112 0.137998
-0.415189 0.218521 -0.296565 -0.8786388 -0.4764842 0.03092941 0.33112 0.137998
0.421459 0.113483 0.297106 0.8738422 -0.4862091 0.0007592896 0.33112 0.137998
0.421459 0.113483 -0.297702 -0.2332434 -0.9724181 -0.0007592896 0.33112 0.137998
0.421459 0.145989 0.297106 0.4472136 0.8944271 0.0005142509 0.33112 0.137998
0.421459 0.145989 -0.297702 0.8944271 0.4472136 -0.0005142509 0.33112 0.137998
0.386084 0.145989 0.297106 -0.9440669 -0.329753 0.0008022137 0.33112 0.137998
0.386084 0.145989 -0.297702 -0.4720335 0.8815803 -0.0008022137 0.33112 0.137998
0.421459 0.224597 0.297106 0.8738374 -0.4856648 -0.02319047 0.33112 0.137998
0.421459 0.253899 -0.297076 -0.2331391 -0.9712254 -0.04865587 0.33112 0.137998
0.421459 0.257068 0.298495 0.4472122 0.8933168 0.04456857 0.33112 0.137998
0.421459 0.28637 -0.295687 0.8944284 0.4466934 0.02151384 0.33112 0.137998
0.386084 0.257068 0.298495 -0.9440313 -0.3294942 -0.01544587 0.33112 0.137998
0.386084 0.28637 -0.295687 -0.472017 0.8805586 0.04262153 0.33112 0.137998
-0.381007 0 0.228423 0.8164966 -0.4082483 -0.4082483 0.33112 0.137998
-0.381007 0.417938 0.228423 0.3333333 0.6666667 -0.6666667 0.33112 0.137998
-0.381007 0 0.264462 0.3333333 -0.6666667 0.6666667 0.33112 0.137998
-0.381007 0.417938 0.264462 0.8164966 0.4082483 0.4082483 0.33112 0.137998
-0.412785 0 0.264462 -0.8164966 -0.4082483 0.4082483 0.33112 0.137998
-0.412785 0.417938 0.264462 -0.3333333 0.6666667 0.6666667 0.33112 0.137998
-0.412785 0 0.228423 -0.3333333 -0.6666667 -0.6666667 0.33112 0.137998
-0.412785 0.417938 0.228423 -0.8164966 0.4082483 -0.4082483 0.33112 0.137998
0.018894 0 0.228423 0.8164966 -0.4082483 -0.4082483 0.33112 0.137998
0.018894 0.417938 0.228423 0.3333333 0.6666667 -0.6666667 0.33112 0.137998
0.018894 0 0.264462 0.3333333 -0.6666667 0.6666667 0.33112 0.137998
0.018894 0.417938 0.264462 0.8164966 0.4082483 0.4082483 0.33112 0.137998
-0.012884 0 0.264462 -0.8164966 -0.4082483 0.4082483 0.33112 0.137998
-0.012884 0.417938 0.264462 -0.3333333 0.6666667 0.6666667 0.33112 0.137998
-0.012884 0 0.228423 -0.3333333 -0.6666667 -0.6666667 0.33112 0.137998
-0.012884 0.417938 0.228423 -0.8164966 0.4082483 -0.4082483 0.33112 0.137998
0.406768 0 0.228423 0.8164966 -0.4082483 -0.4082483 0.33112 0.137998
0.406768 0.417938 0.228423 0.3333333 0.6666667 -0.6666667 0.33112 0.137998
0.406768 0 0.264462 0.3333333 -0.6666667 0.6666667 0.33112 0.137998
0.406768 0.417938 0.264462 0.8164966 0.4082483 0.4082483 0.33112 0.137998
0.374991 0 0.264462 -0.8164966 -0.4082483 0.4082483 0.33112 0.137998
0.374991 0.417938 0.264462 -0.3333333 0.6666667 0.6666667 0.33112 0.137998
0.374991 0 0.228423 -0.3333333 -0.6666667 -0.6666667 0.33112 0.137998
0.374991 0.417938 0.228423 -0.8164966 0.4082483 -0.4082483 0.33112 0.137998
0.406768 0 -0.25641 0.8164966 -0.4082483 -0.4082483 0.33112 0.137998
0.406768 0.417938 -0.25641 0.3333333 0.6666667 -0.6666667 0.33112 0.137998
0.406768 0 -0.220372 0.3333333 -0.6666667 0.6666667 0.33112 0.137998
0.406768 0.417938 -0.220372 0.8164966 0.4082483 0.4082483 0.33112 0.137998
0.374991 0 -0.220372 -0.8164966 -0.4082483 0.4082483 0.33112 0.137998
0.374991 0.417938 -0.220372 -0.3333333 0.6666667 0.6666667 0.33112 0.137998
0.374991 0 -0.25641 -0.3333333 -0.6666667 -0.6666667 0.33112 0.137998
0.374991 0.417938 -0.25641 -0.8164966 0.4082483 -0.4082483 0.33112 0.137998
0.018894 0 -0.25641 0.8164966 -0.4082483 -0.4082483 0.33112 0.137998
0.018894 0.417938 -0.25641 0.3333333 0.6666667 -0.6666667 0.33112 0.137998
0.018894 0 -0.220372 0.3333333 -0.6666667 0.6666667 0.33112 0.137998
0.018894 0.417938 -0.220372 0.8164966 0.4082483 0.4082483 0.33112 0.137998
-0.012884 0 -0.220372 -0.8164966 -0.4082483 0.4082483 0.33112 0.137998
-0.012884 0.417938 -0.220372 -0.3333333 0.6666667 0.6666667 0.33112 0.137998
-0.012884 0 -0.25641 -0.3333333 -0.6666667 -0.6666667 0.33112 0.137998
-0.012884 0.417938 -0.25641 -0.8164966 0.4082483 -0.4082483 0.33112 0.137998
-0.381007 0 -0.25641 0.8164966 -0.4082483 -0.4082483 0.33112 0.137998
-0.381007 0.417938 -0.25641 0.3333333 0.6666667 -0.6666667 0.33112 0.137998
-0.381007 0 -0.220372 0.3333333 -0.6666667 0.6666667 0.33112 0.137998
-0.381007 0.417938 -0.220372 0.8164966 0.4082483 0.4082483 0.33112 0.137998
-0.412785 0 -0.220372 -0.8164966 -0.4082483 0.4082483 0.33112 0.137998
-0.412785 0.417938 -0.220372 -0.3333333 0.6666667 0.6666667 0.33112 0.137998
-0.412785 0 -0.25641 -0.3333333 -0.6666667 -0.6666667 0.33112 0.137998
-0.412785 0.417938 -0.25641 -0.8164966 0.4082483 -0.4082483 0.33112 0.137998
3 0 1 3 
3 0 3 2 
3 2 3 5 
3 2 5 4 
3 4 5 1 
3 4 1 0 
3 1 5 3 
3 4 0 2 
3 6 7 9 
3 6 9 8 
3 8 9 11 
3 8 11 10 
3 10 11 7 
3 10 7 6 
3 7 11 9 
3 10 6 8 
3 12 13 15 
3 12 15 14 
3 14 15 17 
3 14 17 16 
3 16 17 13 
3 16 13 12 
3 13 17 15 
3 16 12 14 
3 18 19 21 
3 18 21 20 
3 20 21 23 
3 20 23 22 
3 22 23 19 
3 22 19 18 
3 19 23 21 
3 22 18 20 
3 24 25 27 
3 24 27 26 
3 26 27 29 
3 26 29 28 
3 28 29 25 
3 28 25 24 
3 25 29 27 
3 28 24 26 
3 30 31 33 
3 30 33 32 
3 32 33 35 
3 32 35 34 
3 34 35 31 
3 34 31 30 
3 31 35 33 
3 34 30 32 
3 36 37 39 
3 36 39 38 
3 38 39 41 
3 38 41 40 
3 40 41 37 
3 40 37 36 
3 37 41 39 
3 40 36 38 
3 42 43 45 
3 42 45 44 
3 44 45 47 
3 44 47 46 
3 46 47 43 
3 46 43 42 
3 43 47 45 
3 46 42 44 
3 48 49 50 
3 50 49 52 
3 50 52 51 
3 51 52 53 
3 51 53 48 
3 48 53 49 
3 49 53 52 
3 48 50 51 
3 54 55 56 
3 56 55 58 
3 56 58 57 
3 57 58 59 
3 57 59 54 
3 54 59 55 
3 55 59 58 
3 54 56 57 
3 60 61 63 
3 60 63 62 
3 62 63 65 
3 62 65 64 
3 64 65 61 
3 64 61 60 
3 61 65 63 
3 64 60 62 
3 66 67 69 
3 66 69 68 
3 68 69 71 
3 68 71 70 
3 70 71 67 
3 70 67 66 
3 67 71 69 
3 70 66 68 
3 72 73 75 
3 72 75 74 
3 74 75 77 
3 74 77 76 
3 76 77 73 
3 76 73 72 
3 73 77 75 
3 76 72 74 
3 78 79 81 
3 78 81 80 
3 80 81 83 
3 80 83 82 
3 82 83 79 
3 82 79 78 
3 79 83 81 
3 82 78 80 
3 84 85 87 
3 84 87 86 
3 86 87 89 
3 86 89 88 
3 88 89 91 
3 88 91 90 
3 90 91 85 
3 90 85 84 
3 85 91 89 
3 85 89 87 
3 90 84 86 
3 90 86 88 
3 92 93 95 
3 92 95 94 
3 94 95 97 
3 94 97 96 
3 96 97 98 
3 98 97 93 
3 98 93 92 
3 93 97 95 
3 98 92 94 
3 98 94 96 
3 99 100 102 
3 99 102 101 
3 101 102 104 
3 101 104 103 
3 103 104 100 
3 103 100 99 
3 100 104 102 
3 103 99 101 
3 105 106 108 
3 105 108 107 
3 107 108 110 
3 107 110 109 
3 109 110 112 
3 109 112 111 
3 111 112 106 
3 111 106 105 
3 106 112 110 
3 106 110 108 
3 111 105 107 
3 111 107 109 
3 113 114 116 
3 113 116 115 
3 115 116 118 
3 115 118 117 
3 117 118 114 
3 117 114 113 
3 114 118 116 
3 117 113 115 
3 119 120 122 
3 119 122 121 
3 121 122 124 
3 121 124 123 
3 123 124 120 
3 123 120 119 
3 120 124 122 
3 123 119 121 
3 125 126 128 
3 125 128 127 
3 127 128 130 
3 127 130 129 
3 129 130 126 
3 129 126 125 
3 126 130 128 
3 129 125 127 
3 131 132 134 
3 131 134 133 
3 133 134 136 
3 133 136 135 
3 135 136 132 
3 135 132 131 
3 132 136 134 
3 135 131 133 
3 137 138 140 
3 137 140 139 
3 139 140 142 
3 139 142 141 
3 141 142 144 
3 141 144 143 
3 143 144 138 
3 143 138 137 
3 138 144 142 
3 138 142 140 
3 143 137 139 
3 143 139 141 
3 145 146 148 
3 145 148 147 
3 147 148 150 
3 147 150 149 
3 149 150 152 
3 149 152 151 
3 151 152 146 
3 151 146 145 
3 146 152 150 
3 146 150 148 
3 151 145 147 
3 151 147 149 
3 153 154 156 
3 153 156 155 
3 155 156 158 
3 155 158 157 
3 157 158 160 
3 157 160 159 
3 159 160 154 
3 159 154 153 
3 154 160 158 
3 154 158 156 
3 159 153 155 
3 159 155 157 
3 161 162 164 
3 161 164 163 
3 163 164 166 
3 163 166 165 
3 165 166 168 
3 165 168 167 
3 167 168 162 
3 167 162 161 
3 162 168 166 
3 162 166 164 
3 167 161 163 
3 167 163 165 
3 169 170 172 
3 169 172 171 
3 171 172 174 
3 171 174 173 
3 173 174 176 
3 173 176 175 
3 175 176 170 
3 175 170 169 
3 170 176 174 
3 170 174 172 
3 175 169 171 
3 175 171 173 
3 177 178 180 
3 177 180 179 
3 179 180 182 
3 179 182 181 
3 181 182 184 
3 181 184 183 
3 183 184 178 
3 183 178 177 
3 178 184 182 
3 178 182 180 
3 183 177 179 
3 183 179 181 
