ply
format ascii 1.0
comment VCGLIB generated
comment TextureFile dummy.png
element vertex 260
property float x
property float y
property float z
property float nx
property float ny
property float nz
property float texture_u
property float texture_v
element face 476
property list uchar int vertex_indices
end_header
46.7195 -75.1472 6.0172 0.2566709 -0.5846492 0.7696138 0.3731 0.2968
73.6814 -59.9777 6.0172 0.3581635 -0.5839809 0.7284815 0.3209 0.3257
39.5424 -65.6639 36.9874 0.3132719 -0.6490295 0.6932687 0.387 0.3149
21.6019 -82.936 6.0172 0.1400112 -0.6223357 0.7701268 0.4217 0.2819
-12.854 -63.5232 43.4478 0.1413068 -0.595114 0.7911206 0.4885 0.3189
-11.308 -90.2446 6.0172 0.07329071 -0.6453413 0.7603704 0.4855 0.268
-63.3794 -98.2908 6.0172 0.02191081 -0.910247 0.4134857 0.5864 0.2527
-62.1893 -65.939 49.9083 0.06873938 -0.6036699 0.7942654 0.5841 0.3143
-97.0694 -65.4152 49.9084 0.3858081 -0.7241474 0.5716316 0.6516 0.3153
-77.4784 -99.7258 6.0172 0.184189 -0.797909 0.5739475 0.6137 0.2499
-139.86 -65.6858 40.3507 -0.3087868 -0.4720561 0.8257201 0.7345 0.3148
-168.77 -67.1529 31.3102 -0.4312676 -0.3616016 0.826591 0.7905 0.312
-167.908 -90.766 7.65189 -0.3348106 -0.8654036 0.3727983 0.7889 0.267
-143.317 -98.1191 6.01719 -0.2316377 -0.902752 0.3624678 0.7412 0.253
116.073 -36.3958 7.96481 0.4063908 -0.6464993 0.6456665 0.2405 0.3759
60.2134 -44.9788 32.195 0.374678 -0.3285646 0.8669843 0.3469 0.3543
-12.0569 -39.0902 51.6753 0.193864 -0.07147405 0.9784213 0.4869 0.3655
-60.8001 -41.6854 59.3592 0.08691785 -0.06130086 0.9943277 0.5814 0.3606
-93.8039 -41.1793 59.3592 0.1710134 0.08778163 0.9813505 0.6453 0.3615
-143.788 -41.2973 47.9917 -0.3968721 0.002652836 0.9178701 0.7421 0.3613
-169.654 -40.7174 31.3102 -0.4445804 -0.1007721 0.8900524 0.7922 0.3624
116.305 -15.7087 13.4679 0.253969 0.01297165 0.9671254 0.2383 0.4101
75.3595 -12.4551 29.2617 0.2938787 0.1880639 0.9371592 0.3176 0.4163
-8.7491 -11.0595 46.9672 0.1715424 0.2843453 0.9432502 0.4805 0.419
-56.8 -9.6639 53.951 0.05664177 0.3381198 0.939397 0.5736 0.4216
-88.309 -10.7332 53.951 -0.004050147 0.2862652 0.9581419 0.6347 0.4196
-140.191 -13.5328 43.6192 -0.3086577 0.2992946 0.9028584 0.7352 0.4142
-177.5 -14.675 31.3103 -0.4093551 0.1047339 0.9063439 0.8074 0.4121
116.236 -5.4365 10.7163 0.2111875 0.2207582 0.95219 0.2384 0.4297
73.5097 11.5403 17.4853 0.2002213 0.3543557 0.9134241 0.3212 0.462
-7.8535 26.7737 27.4544 0.1633709 0.4594068 0.8730724 0.4788 0.4911
-51.7723 35.0141 31.0168 0.08453686 0.5136254 0.8538399 0.5639 0.5068
-74.3114 35.2731 31.0168 0.003036525 0.5035442 0.8639642 0.6075 0.5073
-134.525 25.0969 26.0306 -0.212208 0.4329801 0.8760685 0.7242 0.4879
-180.712 11.4864 22.6444 -0.3790588 0.3376691 0.8615649 0.8137 0.4619
46.7195 -75.1472 -6.0172 0.2753424 -0.589437 -0.759441 0.3731 0.2968
21.6019 -82.936 -6.0172 0.1496556 -0.6239635 -0.7669894 0.4217 0.2819
39.5424 -65.6639 -36.9874 0.3132722 -0.6490284 -0.6932696 0.387 0.3149
73.6814 -59.9777 -6.0172 0.3766535 -0.6113315 -0.6959928 0.3209 0.3257
-11.308 -90.2446 -6.0172 0.07102218 -0.5991157 -0.7975063 0.4855 0.268
-12.854 -63.5232 -43.4479 0.1413075 -0.5951128 -0.7911214 0.4885 0.3189
-63.3794 -98.2908 -6.0172 0.04757521 -0.9093535 -0.4132952 0.5864 0.2527
-77.4784 -99.7258 -6.0172 0.3868099 -0.6069039 -0.6942952 0.6137 0.2499
-97.0694 -65.4152 -49.9084 0.1862112 -0.7763975 -0.6021066 0.6516 0.3153
-62.1893 -65.939 -49.9084 0.06873877 -0.6036689 -0.7942663 0.5841 0.3143
-167.908 -90.766 -7.65201 -0.3680484 -0.8517913 -0.3728163 0.7889 0.267
-168.77 -67.1529 -31.3103 -0.4312662 -0.3616019 -0.8265916 0.7905 0.312
-139.86 -65.6858 -40.3507 -0.3087871 -0.472055 -0.8257207 0.7345 0.3148
-143.317 -98.1191 -6.01721 -0.2436408 -0.8995901 -0.3624595 0.7412 0.253
60.2133 -44.9788 -32.195 0.374678 -0.3285646 -0.8669843 0.3469 0.3543
116.073 -36.3958 -7.96479 0.4575485 -0.5776899 -0.6759614 0.2405 0.3759
-12.0569 -39.0902 -51.6753 0.1938657 -0.07147402 -0.978421 0.4869 0.3655
-93.8039 -41.1793 -59.3592 0.3455769 -0.002910132 -0.938386 0.6453 0.3615
-60.8001 -41.6854 -59.3592 0.08691742 -0.06130122 -0.9943277 0.5814 0.3606
-169.654 -40.7173 -31.3103 -0.4445784 -0.1007707 -0.8900536 0.7922 0.3624
-143.788 -41.2973 -47.9917 -0.3968736 0.002653415 -0.9178695 0.7421 0.3613
75.3595 -12.4551 -29.2617 0.2938788 0.1880614 -0.9371597 0.3176 0.4163
116.305 -15.7087 -13.4679 0.2682443 0.06199854 -0.9613538 0.2383 0.4101
-8.7491 -11.0595 -46.9673 0.1715425 0.2843437 -0.9432507 0.4805 0.419
-88.309 -10.7332 -53.9511 -0.004050088 0.2862633 -0.9581425 0.6347 0.4196
-56.8001 -9.6639 -53.9511 0.05664157 0.3381199 -0.939397 0.5736 0.4216
-177.499 -14.675 -31.3103 -0.4093533 0.1047358 -0.9063445 0.8074 0.4121
-140.191 -13.5328 -43.6192 -0.3086601 0.2992949 -0.9028574 0.7352 0.4142
73.5096 11.5403 -17.4854 0.2002216 0.3543575 -0.9134233 0.3212 0.462
116.236 -5.4365 -10.7164 0.2111876 0.2207566 -0.9521903 0.2384 0.4297
-7.8535 26.7737 -27.4545 0.1633708 0.4594081 -0.8730717 0.4788 0.4911
-74.3114 35.2731 -31.0168 0.003036565 0.5035453 -0.8639635 0.6075 0.5073
-51.7723 35.0141 -31.0168 0.08453628 0.5136254 -0.8538399 0.5639 0.5068
-180.712 11.4864 -22.6444 -0.3790575 0.3376693 -0.8615654 0.8137 0.4619
-134.525 25.0969 -26.0306 -0.2122096 0.43298 -0.8760682 0.7242 0.4879
45.5206 -89.0704 1.3135 0.3527043 -0.748493 0.5615674 0.3754 0.2702
14.7777 -100.983 1.3135 0.1867907 -0.6918022 0.6975091 0.435 0.2475
14.7777 -100.983 -1.3135 0.2124787 -0.8365341 -0.5050381 0.435 0.2475
45.5206 -89.0704 -1.3135 0.3691477 -0.7322206 -0.5723487 0.3754 0.2702
-12.2222 -104.605 1.3135 0.04546069 -0.8226591 0.5667146 0.4873 0.2406
-12.2222 -104.605 -1.3135 -0.03138645 -0.898266 -0.4383299 0.4873 0.2406
-212.651 -57.7496 6.01719 -0.697993 -0.6609678 0.2755493 0.8755 0.33
-228.417 -39.7029 6.01719 -0.8140541 0.2272565 0.5344815 0.905 0.3674
-228.417 -39.7029 -6.01721 -0.8334409 -0.2349023 -0.5001972 0.9132 0.3681
-212.651 -57.7496 -6.01721 -0.6606727 -0.6234757 -0.4180787 0.898 0.3149
-220.821 -35.1962 6.01719 -0.6854542 -0.1128668 0.7193148 0.8914 0.3729
-220.821 -35.1962 -6.01721 -0.6506529 0.1858776 -0.7362746 0.8914 0.3729
-228.412 -26.189 6.01719 -0.7456946 -0.03967378 0.6651056 0.9038 0.3929
-228.412 -26.189 -6.01721 -0.8664058 -0.08649719 -0.4917919 0.9038 0.3929
-226.184 -19.9145 6.01719 -0.8063936 0.3695047 0.4617312 0.9018 0.4021
-226.184 -19.9145 -6.01721 -0.7960995 0.3916343 -0.4613547 0.9018 0.4021
-205.952 10.1474 6.75539 -0.7022052 0.5165579 0.4899753 0.8823 0.4808
-205.952 10.1474 -6.75541 -0.696894 0.5236223 -0.4900596 0.8634 0.4611
-221.991 -11.6759 -6.01721 -0.8190113 0.5334613 -0.211281 0.9011 0.418
-221.991 -11.6759 6.01719 -0.8422015 0.4960309 0.2113055 0.9199 0.4377
-55.6884 113.048 1.3135 0.0387058 0.5947435 0.8029832 0.5696 0.6632
-55.6884 113.048 -1.3135 -0.02645491 0.7029189 -0.7107779 0.5696 0.6632
-67.5806 115.047 -1.3135 -0.08639742 0.8058873 -0.5857314 0.5926 0.667
-67.5806 115.047 1.3135 -0.369496 0.8648624 0.339832 0.5926 0.667
85.1725 77.1939 1.3134 0.4307763 0.7833773 0.4480534 0.2938 0.5939
122.442 52.0269 1.31341 0.3672386 0.4194961 0.8301559 0.2235 0.544
122.442 52.0269 -1.31349 0.5909776 0.6709527 -0.4478482 0.2235 0.544
85.1725 77.1939 -1.3135 0.2662297 0.4878421 -0.8313434 0.2938 0.5939
226.774 5.8814 2.85541 0.6877747 -0.1333848 0.7135646 0.0313 0.4522
226.774 5.8814 -2.85549 0.6615983 -0.2301407 -0.7136687 0.0313 0.4522
228.417 36.8881 -2.85549 0.8320476 0.3697578 -0.4134924 0.0211 0.5104
228.417 36.8881 2.85541 0.4272991 0.8042318 0.4130699 0.0211 0.5104
213.196 -20.3599 2.74941 0.7377693 -0.3275652 0.5902521 0.0506 0.4012
195.947 -62.7374 3.53711 0.357028 -0.5261514 0.7718133 0.0805 0.3309
195.947 -62.7374 -3.53709 0.4831179 -0.8222432 -0.3008543 0.0805 0.3309
213.196 -20.3599 -2.74949 0.4425371 -0.1812896 -0.8782341 0.0506 0.4012
102.715 -48.962 1.3135 0.6268355 -0.7613311 0.1656874 0.2646 0.3467
72.4826 -72.7358 1.3135 0.4772536 -0.743071 0.469121 0.3232 0.3014
72.4826 -72.7358 -1.3135 0.4842041 -0.7113506 -0.5094377 0.3232 0.3014
102.715 -48.962 -1.3135 0.5450424 -0.7190983 -0.4310758 0.2646 0.3467
-193.001 -57.6856 18.3832 -0.4465626 -0.2224583 0.8666569 0.8375 0.3301
-191.321 -78.3028 6.75539 -0.5510293 -0.7399339 0.3858298 0.8342 0.2908
-193.985 -40.659 18.3832 -0.4318126 -0.05081984 0.9005305 0.8394 0.3625
-200.621 -17.5957 18.3832 -0.452023 -0.01021186 0.8919478 0.8522 0.4065
-206.723 -2.9718 12.5693 -0.4803903 0.2514557 0.8402352 0.8641 0.4344
-193.001 -57.6856 -18.3833 -0.4465626 -0.2224583 -0.8666569 0.8375 0.3301
-191.321 -78.3028 -6.75541 -0.5906873 -0.7090604 -0.385126 0.8342 0.2908
-193.985 -40.659 -18.3833 -0.431811 -0.05081948 -0.9005313 0.8394 0.3625
-200.621 -17.5957 -18.3833 -0.4520213 -0.01021101 -0.8919487 0.8522 0.4065
-206.723 -2.9718 -12.5694 -0.4803911 0.2514562 -0.8402346 0.8641 0.4344
-177.09 45.1332 7.65189 -0.5672083 0.6559604 0.4979867 0.8276 0.5483
-177.09 45.1332 -7.65201 -0.5089847 0.7025236 -0.4973883 0.8088 0.5287
-120.605 75.7111 6.01719 -0.3106334 0.7328635 0.6053247 0.7122 0.5968
-120.605 75.7111 -6.01721 -0.3188982 0.728875 -0.6058425 0.7007 0.5879
-115.328 -64.8914 49.9083 -0.1777766 -0.726475 0.6637994 0.687 0.3163
-117.762 -103.865 6.01719 -0.1399799 -0.9148577 0.3787362 0.6917 0.242
-118.239 -40.6732 59.3592 -0.3953558 -0.08520571 0.9145676 0.6926 0.3625
-110.132 -11.8026 53.951 -0.1651244 0.3354464 0.9274749 0.6769 0.4175
-96.8504 35.5322 31.0168 -0.09538881 0.4899757 0.8665015 0.6512 0.5078
-87.9646 71.537 6.0172 0.006929928 0.4497252 0.8931401 0.6306 0.5821
-115.328 -64.8914 -49.9084 -0.2836372 -0.6631113 -0.6927001 0.687 0.3163
-117.762 -103.865 -6.01721 -0.09991636 -0.8891514 -0.446572 0.6917 0.242
-118.239 -40.6732 -59.3592 -0.2641726 0.04425173 -0.9634597 0.6926 0.3625
-110.132 -11.8026 -53.9511 -0.1651257 0.3354463 -0.9274747 0.6769 0.4175
-96.8504 35.5322 -31.0168 -0.0953892 0.4899757 -0.8665014 0.6512 0.5078
-39.9591 115.251 1.3135 -0.09808113 0.7002714 0.7071068 0.5391 0.6674
-39.9591 115.251 -1.3135 -0.09807973 0.7002715 -0.7071069 0.5391 0.6674
134.648 -33.1381 6.01721 -0.04443656 -0.7635414 0.6442282 0.2036 0.3856
134.589 -18.5511 8.78101 0.0994999 -0.06134829 0.9931446 0.2029 0.4047
134.648 -33.1381 -6.01719 0.04677064 -0.7593154 -0.6490398 0.2036 0.3856
134.589 -18.5511 -8.78099 0.1281287 -0.07571927 -0.9888628 0.2029 0.4047
139.229 -8.3235 -7.39909 0.1060533 0.1022648 -0.9890878 0.1939 0.4242
141.335 30.4873 1.31341 0.6753906 0.488048 0.5528623 0.1898 0.4982
141.335 30.4873 -1.31349 0.7180828 0.4227075 -0.5528793 0.1898 0.4982
139.229 -8.3235 7.39911 0.1060533 0.1022645 0.9890878 0.1939 0.4242
148.888 7.1539 6.01721 0.3927718 0.3313688 0.8578608 0.1752 0.4537
116.016 21.0334 7.96481 0.2106414 0.3943496 0.8944935 0.2388 0.4801
149.362 -39.1648 5.01721 -0.3044021 -0.6761637 0.6709263 0.1725 0.3754
157.635 -18.2114 7.55081 0.04977083 -0.02298325 0.9984962 0.1582 0.4053
149.362 -39.1648 -5.01719 -0.2687243 -0.6831793 -0.6790091 0.1725 0.3754
157.635 -18.2114 -7.55089 0.04861963 -0.03639405 -0.9981541 0.1582 0.4053
165.634 -2.9793 -6.28399 0.05445814 0.04383407 -0.9975535 0.1427 0.4344
148.888 7.1539 -6.01719 0.1602869 0.5138628 -0.8427652 0.1752 0.4537
165.486 14.2981 5.01721 -0.2684734 0.667066 0.6949425 0.143 0.4673
165.486 14.2981 -5.01719 -0.280608 0.6617529 -0.6952282 0.143 0.4673
165.634 -2.9793 6.28401 0.05445765 0.04383258 0.9975536 0.1427 0.4344
163.654 -48.3442 5.01721 -0.326001 -0.6367834 0.6987348 0.1422 0.357
177.566 -23.3902 5.01721 0.06903796 -0.01248381 0.9975359 0.1196 0.3955
163.654 -48.3442 -5.01719 -0.3425498 -0.6174632 -0.7080953 0.1422 0.357
177.566 -23.3902 -5.01719 0.06942549 -0.02661708 -0.997232 0.1196 0.3955
182.309 1.752 -5.01719 0.06805249 0.006502824 -0.9976606 0.1104 0.4434
180.369 21.7387 5.01721 -0.2781857 0.6449006 0.7118399 0.1142 0.4815
180.369 21.7387 -5.01719 -0.2821604 0.6430194 -0.7119772 0.1142 0.4815
182.309 1.752 5.01721 0.06805348 0.006502941 0.9976605 0.1104 0.4434
186.405 -61.1253 5.01721 -0.1587783 -0.6772193 0.7184452 0.099 0.3339
194.96 -23.7631 3.53711 0.06517179 -0.002220023 0.9978716 0.0859 0.3947
186.405 -61.1253 -5.01719 -0.2274063 -0.6544892 -0.7210619 0.099 0.3339
194.96 -23.7631 -3.53709 0.05827882 -0.001005356 -0.9982999 0.0859 0.3947
208.343 0.6129 -2.74949 0.04619624 -0.001053691 -0.9989318 0.06 0.4412
210.05 37.2705 2.74941 -0.2008395 0.6653108 0.7190446 0.0567 0.5111
210.05 37.2705 -2.74949 -0.08443207 0.6912652 -0.7176514 0.0567 0.5111
208.343 0.6129 2.74941 0.04619857 -0.001053292 0.9989318 0.06 0.4412
74.0073 40.4353 6.0172 0.1828477 0.4386976 0.8798358 0.3154 0.5276
1.8361 60.3715 6.0172 0.1180281 0.4576507 0.8812634 0.4562 0.5675
-46.9827 69.5124 6.0172 0.05746328 0.4657087 0.8830705 0.5512 0.5782
-67.4736 70.5247 6.0172 0.02172092 0.4800062 0.8769962 0.5909 0.5801
74.0073 40.4353 -6.0172 0.1694715 0.4190093 -0.8920261 0.3154 0.5276
116.016 21.0334 -7.96479 0.2054678 0.3808411 -0.9015226 0.2388 0.4801
-46.9827 69.5124 -6.0172 0.05746323 0.4657102 -0.8830696 0.5512 0.5782
1.8361 60.3715 -6.0172 0.1180279 0.4576519 -0.8812629 0.4562 0.5675
-87.9646 71.537 -6.0172 0.006929978 0.4497252 -0.8931401 0.6306 0.5821
-67.4736 70.5247 -6.0172 0.02172092 0.4800062 -0.8769962 0.5909 0.5801
118.691 26.169 1.73861 0.1407394 0.2984407 0.9439945 0.2337 0.4899
77.0151 49.301 1.3135 0.07150926 0.2066899 0.9757898 0.3096 0.5445
148.831 14.4347 1.31351 0.7207655 0.4422053 0.5338086 0.1753 0.4676
148.831 14.4347 -1.31349 0.8426543 0.2776336 -0.4613603 0.1753 0.4676
118.691 26.169 -1.73869 0.1250047 0.268858 -0.9550337 0.2337 0.4899
77.0151 49.301 -1.3135 0.1086411 0.2854376 -0.9522198 0.3096 0.5445
5.2606 69.5452 -1.3135 0.04101 0.1719905 -0.9842446 0.4496 0.585
-61.2879 81.5598 -1.3135 0.01357423 0.195627 -0.9805844 0.5789 0.6012
-46.094 80.096 -1.3135 0.03238143 0.2079073 -0.9776124 0.5495 0.5984
-103.288 86.3433 -1.3135 -0.3712279 0.6802857 -0.631982 0.6637 0.6047
-76.4817 83.0236 -1.3135 0.01599175 0.1829893 -0.9829848 0.6084 0.604
-103.288 86.3433 1.3135 -0.3020335 0.6033836 0.7380406 0.6564 0.6156
-76.4817 83.0236 1.3135 0.01917684 0.2194366 0.9754383 0.6084 0.604
-61.2879 81.5598 1.3135 0.01357413 0.195627 0.9805844 0.5789 0.6012
5.2606 69.5452 1.3135 0.04101021 0.1719907 0.9842446 0.4496 0.585
-46.094 80.096 1.3135 0.03238143 0.2079073 0.9776124 0.5495 0.5984
30.623 101.146 1.3135 0.229302 0.6682485 0.7077179 0.4024 0.6405
-24.2298 117.454 1.3135 0.001804313 0.6998303 0.7143069 0.5086 0.6716
30.623 101.146 -1.3135 0.2569136 0.6581262 -0.7077184 0.4024 0.6405
-24.2298 117.454 -1.3135 0.1026854 0.6922584 -0.7143067 0.5086 0.6716
-40.6205 -99.7619 1.3135 -0.08346207 -0.9117927 0.4020797 0.5423 0.2499
-40.6205 -99.7619 -1.3135 -0.05950208 -0.9138191 -0.4017389 0.5423 0.2499
-41.0977 -63.4694 82.3104 0.4647193 0.8557638 -0.227386 0.7839 0.1219
-38.6554 -66.4879 80.9163 0.1106172 -0.8482422 0.5179276 0.7839 0.1213
-52.9195 -66.3946 71.6874 0.3877566 -0.3293154 -0.8609276 0.7896 0.1242
-51.4673 -63.6694 72.7061 0.3095145 0.5697778 -0.7612845 0.7896 0.1241
-52.9195 -66.3946 -71.6873 0.3811639 0.1019664 0.9188672 0.7896 0.1242
-38.6554 -66.4879 -80.9163 0.09596134 -0.992572 -0.07478134 0.7839 0.1213
-41.0977 -63.4694 -82.3104 0.78074 0.5953338 -0.1897968 0.7839 0.1219
-51.4673 -63.6694 -72.7061 0.2989973 0.8092146 0.5057395 0.7896 0.1241
-65.1725 -117.454 -3.3902 -0.03277535 0.7489136 0.6618567 0.5898 0.2161
-65.1725 -117.454 3.3902 0.1388979 0.9297955 -0.3408634 0.5898 0.2161
-58.4671 -115.325 3.3902 -0.5249684 0.2121018 -0.82427 0.5768 0.2202
-58.4671 -115.325 -3.3902 -0.8385916 -0.332108 0.43182 0.5768 0.2202
-98.6662 -108.792 1.3135 -0.09909867 -0.8515664 0.5147954 0.6547 0.2326
-73.6627 -102.487 1.3135 0.4620679 0.4967886 0.734639 0.6063 0.2447
-98.6662 -108.792 -1.3135 -0.1362358 -0.7811908 -0.6092461 0.6547 0.2326
-73.6627 -102.487 -1.3135 0.5167654 0.3935075 -0.7603324 0.6063 0.2447
-83.3161 -112.259 1.3135 0.1508092 0.1793879 0.9721505 0.625 0.226
-64.9616 -107.067 1.3135 0.1353762 0.1151465 0.9840806 0.5894 0.2359
-83.3161 -112.259 -1.3135 0.02246298 -0.5423581 -0.8398471 0.625 0.226
-64.9616 -107.067 -1.3135 -0.3120421 -0.2414915 -0.9188643 0.5894 0.2359
-106.203 -58.7663 63.7826 -0.4203817 -0.8147395 0.399348 0.6693 0.328
-108.035 -52.3181 66.4442 -0.322026 0.1008425 0.9413448 0.6729 0.3403
-96.2096 -58.8936 60.7116 0.5139046 -0.7735496 -0.3708411 0.65 0.3278
-94.0925 -52.4308 63.2197 0.7576182 0.6391613 0.1322405 0.6459 0.3401
-106.203 -58.7663 -63.7827 -0.3304891 -0.7923461 -0.5128008 0.6693 0.328
-96.2096 -58.8936 -60.7117 0.5765188 -0.7774295 0.2514549 0.65 0.3278
-108.035 -52.3181 -66.4443 -0.3998601 0.2802608 -0.8726774 0.6729 0.3403
-94.0925 -52.4308 -63.2197 0.6686721 0.7406275 -0.06594449 0.6459 0.3401
-80.9955 -62.8878 77.4168 -0.2722239 -0.8726313 0.4054736 0.8329 0.1095
-83.4378 -59.8692 79.0386 -0.08514975 0.3873604 0.9179877 0.8323 0.1095
-70.9632 -62.7944 68.954 0.1107856 -0.5712449 -0.8132686 0.8272 0.126
-69.511 -60.0693 70.1483 0.2733566 0.8021432 -0.5308885 0.8275 0.1256
-80.9955 -62.8878 -77.4168 -0.1988934 -0.8887619 -0.4129694 0.8329 0.1095
-70.9632 -62.7944 -68.954 0.1440403 -0.6028145 0.784772 0.8272 0.126
-83.4378 -59.8692 -79.0386 -0.2343452 0.4485648 -0.8624802 0.8323 0.1095
-69.511 -60.0693 -70.1483 0.2624209 0.8337102 0.4858628 0.8275 0.1256
-167.908 -90.766 -7.65201 -0.3680484 -0.8517913 -0.3728163 0.8013 0.2494
-143.317 -98.1191 -6.01721 -0.2436408 -0.8995901 -0.3624595 0.7537 0.2354
-228.417 -39.7029 -6.01721 -0.8334409 -0.2349023 -0.5001972 0.905 0.3674
-205.952 10.1474 6.75539 -0.7022052 0.5165579 0.4899753 0.8634 0.4611
-221.991 -11.6759 6.01719 -0.8422015 0.4960309 0.2113055 0.9011 0.418
-212.651 -57.7496 -6.01721 -0.6606727 -0.6234757 -0.4180787 0.8755 0.33
-191.321 -78.3028 -6.75541 -0.5906873 -0.7090604 -0.385126 0.8467 0.2732
-177.09 45.1332 7.65189 -0.5672083 0.6559604 0.4979867 0.8088 0.5287
-120.605 75.7111 6.01719 -0.3106334 0.7328635 0.6053247 0.7007 0.5879
-117.762 -103.865 -6.01721 -0.09991636 -0.8891514 -0.446572 0.7042 0.2244
-226.184 -19.9145 6.01719 -0.8063937 0.3695046 0.4617311 0.9185 0.4297
-103.288 86.3433 1.3135 -0.3020335 0.6033836 0.7380406 0.6637 0.6047
-108.035 -52.3181 66.4442 -0.322026 0.1008425 0.9413448 0.9098 0.1486
-106.203 -58.7663 63.7826 -0.4203817 -0.8147395 0.399348 0.9066 0.1464
-96.2096 -58.8936 60.7116 0.5139046 -0.7735496 -0.3708411 0.893 0.1542
-94.0925 -52.4308 63.2197 0.7576182 0.6391613 0.1322405 0.8912 0.1552
-96.2096 -58.8936 -60.7117 0.5765188 -0.7774295 0.2514549 0.893 0.1542
-106.203 -58.7663 -63.7827 -0.3304891 -0.7923461 -0.5128008 0.9066 0.1464
-108.035 -52.3181 -66.4443 -0.3998601 0.2802608 -0.8726774 0.9098 0.1486
-94.0925 -52.4308 -63.2197 0.6686721 0.7406275 -0.06594449 0.8912 0.1552
3 0 1 2 
3 0 2 3 
3 3 2 4 
3 3 4 5 
3 6 7 8 
3 6 8 9 
3 10 11 12 
3 10 12 13 
3 1 14 15 
3 1 15 2 
3 2 15 16 
3 2 16 4 
3 7 17 18 
3 7 18 8 
3 10 19 20 
3 10 20 11 
3 14 21 22 
3 14 22 15 
3 22 23 16 
3 22 16 15 
3 17 24 25 
3 17 25 18 
3 19 26 27 
3 19 27 20 
3 28 29 22 
3 28 22 21 
3 22 29 30 
3 22 30 23 
3 24 31 32 
3 24 32 25 
3 26 33 34 
3 26 34 27 
3 35 36 37 
3 35 37 38 
3 36 39 40 
3 36 40 37 
3 41 42 43 
3 41 43 44 
3 45 46 47 
3 45 47 48 
3 38 37 49 
3 38 49 50 
3 37 40 51 
3 37 51 49 
3 44 43 52 
3 44 52 53 
3 47 46 54 
3 47 54 55 
3 50 49 56 
3 50 56 57 
3 51 58 56 
3 51 56 49 
3 53 52 59 
3 53 59 60 
3 55 54 61 
3 55 61 62 
3 56 63 64 
3 56 64 57 
3 56 58 65 
3 56 65 63 
3 60 59 66 
3 60 66 67 
3 62 61 68 
3 62 68 69 
3 70 71 72 
3 70 72 73 
3 74 75 72 
3 74 72 71 
3 9 42 41 
3 9 41 6 
3 12 240 241 
3 12 241 13 
3 76 77 78 
3 76 78 79 
3 77 80 81 
3 77 81 242 
3 80 82 83 
3 80 83 81 
3 84 85 83 
3 84 83 82 
3 86 87 88 
3 86 88 89 
3 90 91 92 
3 90 92 93 
3 94 95 96 
3 94 96 97 
3 98 99 100 
3 98 100 101 
3 102 103 104 
3 102 104 105 
3 106 107 108 
3 106 108 109 
3 107 70 73 
3 107 73 108 
3 110 77 76 
3 110 76 111 
3 80 77 110 
3 80 110 112 
3 113 82 80 
3 113 80 112 
3 84 114 243 
3 84 243 244 
3 245 242 115 
3 245 115 116 
3 115 242 81 
3 115 81 117 
3 81 83 118 
3 81 118 117 
3 83 85 119 
3 83 119 118 
3 76 79 246 
3 76 246 111 
3 120 121 87 
3 120 87 86 
3 11 110 111 
3 11 111 12 
3 112 110 11 
3 112 11 20 
3 113 112 20 
3 113 20 27 
3 243 114 34 
3 243 34 247 
3 116 115 46 
3 116 46 45 
3 46 115 117 
3 46 117 54 
3 54 117 118 
3 54 118 61 
3 118 119 68 
3 118 68 61 
3 111 246 240 
3 111 240 12 
3 122 123 121 
3 122 121 120 
3 124 10 13 
3 124 13 125 
3 126 19 10 
3 126 10 124 
3 127 26 19 
3 127 19 126 
3 248 33 128 
3 248 128 129 
3 48 47 130 
3 48 130 131 
3 47 55 132 
3 47 132 130 
3 55 62 133 
3 55 133 132 
3 133 62 69 
3 133 69 134 
3 13 241 249 
3 13 249 125 
3 135 136 91 
3 135 91 90 
3 21 14 137 
3 21 137 138 
3 14 50 139 
3 14 139 137 
3 50 57 140 
3 50 140 139 
3 57 64 141 
3 57 141 140 
3 96 95 142 
3 96 142 143 
3 28 144 145 
3 28 145 146 
3 138 137 147 
3 138 147 148 
3 137 139 149 
3 137 149 147 
3 139 140 150 
3 139 150 149 
3 141 151 150 
3 141 150 140 
3 152 145 153 
3 152 153 154 
3 145 144 155 
3 145 155 153 
3 148 147 156 
3 148 156 157 
3 147 149 158 
3 147 158 156 
3 149 150 159 
3 149 159 158 
3 151 160 159 
3 151 159 150 
3 154 153 161 
3 154 161 162 
3 153 155 163 
3 153 163 161 
3 157 156 164 
3 157 164 165 
3 156 158 166 
3 156 166 164 
3 158 159 167 
3 158 167 166 
3 160 168 167 
3 160 167 159 
3 162 161 169 
3 162 169 170 
3 161 163 171 
3 161 171 169 
3 165 164 103 
3 165 103 102 
3 164 166 104 
3 164 104 103 
3 166 167 105 
3 166 105 104 
3 168 99 105 
3 168 105 167 
3 170 169 101 
3 170 101 100 
3 169 171 98 
3 169 98 101 
3 146 172 29 
3 146 29 28 
3 172 173 30 
3 172 30 29 
3 31 174 175 
3 31 175 32 
3 33 248 247 
3 33 247 34 
3 63 176 177 
3 63 177 64 
3 67 178 179 
3 67 179 65 
3 180 181 66 
3 180 66 134 
3 121 123 69 
3 121 69 68 
3 89 88 85 
3 89 85 250 
3 102 105 99 
3 102 99 98 
3 82 113 114 
3 82 114 84 
3 87 119 85 
3 87 85 88 
3 113 27 34 
3 113 34 114 
3 87 121 68 
3 87 68 119 
3 33 26 127 
3 33 127 128 
3 123 180 134 
3 123 134 69 
3 64 177 152 
3 64 152 141 
3 21 138 144 
3 21 144 28 
3 152 154 151 
3 152 151 141 
3 144 138 148 
3 144 148 155 
3 154 162 160 
3 154 160 151 
3 155 148 157 
3 155 157 163 
3 162 170 168 
3 162 168 160 
3 163 157 165 
3 163 165 171 
3 170 100 99 
3 170 99 168 
3 171 165 102 
3 171 102 98 
3 172 146 182 
3 172 182 183 
3 146 145 184 
3 146 184 182 
3 145 152 185 
3 145 185 184 
3 152 177 186 
3 152 186 185 
3 177 176 187 
3 177 187 186 
3 179 188 187 
3 179 187 176 
3 178 181 189 
3 178 189 190 
3 180 123 191 
3 180 191 192 
3 123 122 193 
3 123 193 191 
3 251 248 129 
3 251 129 194 
3 175 195 194 
3 175 194 129 
3 173 196 197 
3 173 197 174 
3 195 135 90 
3 195 90 194 
3 196 198 199 
3 196 199 197 
3 183 182 95 
3 183 95 94 
3 182 184 142 
3 182 142 95 
3 184 185 143 
3 184 143 142 
3 143 185 186 
3 143 186 96 
3 186 187 97 
3 186 97 96 
3 187 188 200 
3 187 200 97 
3 190 189 136 
3 190 136 201 
3 201 199 198 
3 201 198 200 
3 7 6 5 
3 7 5 4 
3 17 7 4 
3 17 4 16 
3 23 24 17 
3 23 17 16 
3 31 24 23 
3 31 23 30 
3 39 41 44 
3 39 44 40 
3 40 44 53 
3 40 53 51 
3 53 60 58 
3 53 58 51 
3 58 60 67 
3 58 67 65 
3 202 203 75 
3 202 75 74 
3 94 97 200 
3 94 200 198 
3 173 174 31 
3 173 31 30 
3 176 63 65 
3 176 65 179 
3 179 178 190 
3 179 190 188 
3 173 172 183 
3 173 183 196 
3 183 94 198 
3 183 198 196 
3 188 190 201 
3 188 201 200 
3 192 191 92 
3 192 92 91 
3 191 251 93 
3 191 93 92 
3 251 194 90 
3 251 90 93 
3 1 0 70 
3 1 70 107 
3 0 3 71 
3 0 71 70 
3 3 5 74 
3 3 74 71 
3 5 6 202 
3 5 202 74 
3 6 41 203 
3 6 203 202 
3 203 41 39 
3 203 39 75 
3 39 36 72 
3 39 72 75 
3 36 35 73 
3 36 73 72 
3 35 38 108 
3 35 108 73 
3 38 50 109 
3 38 109 108 
3 50 14 106 
3 50 106 109 
3 14 1 107 
3 14 107 106 
3 124 125 9 
3 124 9 8 
3 204 205 206 
3 204 206 207 
3 127 126 18 
3 127 18 25 
3 32 128 127 
3 32 127 25 
3 42 131 130 
3 42 130 43 
3 208 209 210 
3 208 210 211 
3 52 132 133 
3 52 133 59 
3 133 134 66 
3 133 66 59 
3 212 213 214 
3 212 214 215 
3 199 201 136 
3 199 136 135 
3 129 128 32 
3 129 32 175 
3 181 178 67 
3 181 67 66 
3 181 180 192 
3 181 192 189 
3 174 197 195 
3 174 195 175 
3 197 199 135 
3 197 135 195 
3 189 192 91 
3 189 91 136 
3 9 125 216 
3 9 216 217 
3 125 131 218 
3 125 218 216 
3 131 42 219 
3 131 219 218 
3 42 9 217 
3 42 217 219 
3 217 216 220 
3 217 220 221 
3 216 218 222 
3 216 222 220 
3 218 219 223 
3 218 223 222 
3 219 217 221 
3 219 221 223 
3 221 220 212 
3 221 212 215 
3 213 212 220 
3 213 220 222 
3 222 223 214 
3 222 214 213 
3 215 214 223 
3 215 223 221 
3 126 124 224 
3 126 224 225 
3 124 8 226 
3 124 226 224 
3 8 18 227 
3 8 227 226 
3 18 126 225 
3 18 225 227 
3 43 130 228 
3 43 228 229 
3 130 132 230 
3 130 230 228 
3 132 52 231 
3 132 231 230 
3 52 43 229 
3 52 229 231 
3 252 253 232 
3 252 232 233 
3 253 254 234 
3 253 234 232 
3 254 255 235 
3 254 235 234 
3 255 252 233 
3 255 233 235 
3 256 257 236 
3 256 236 237 
3 257 258 238 
3 257 238 236 
3 258 259 239 
3 258 239 238 
3 259 256 237 
3 259 237 239 
3 233 232 205 
3 233 205 204 
3 232 234 206 
3 232 206 205 
3 234 235 207 
3 234 207 206 
3 235 233 204 
3 235 204 207 
3 237 236 209 
3 237 209 208 
3 236 238 210 
3 236 210 209 
3 238 239 211 
3 238 211 210 
3 239 237 208 
3 239 208 211 
