ply
format ascii 1.0
comment VCGLIB generated
comment TextureFile dummy.png
element vertex 346
property float x
property float y
property float z
property float nx
property float ny
property float nz
property float texture_u
property float texture_v
element face 636
property list uchar int vertex_indices
end_header
66.3632 -47.6537 -6.0022 0.1799493 -0.3176033 -0.9309922 0.3696 0.3424
49.8961 -56.1333 -6.0854 0.142594 -0.3788909 -0.9143898 0.402 0.3261
33.3763 -31.4007 -27.0837 0.2386472 -0.5145271 -0.8235955 0.4346 0.3733
83.1071 -37.7624 -5.9133 0.2090624 -0.3507487 -0.9128353 0.3367 0.3613
24.9613 -62.2539 -6.1891 -0.05516126 -0.8322744 -0.5516127 0.451 0.3144
4.9524 -32.8494 -33.1395 0.1505949 -0.5469059 -0.8235382 0.4905 0.3705
-111.706 -65.1932 -6.6555 -0.1513472 -0.8534827 -0.4986597 0.7216 0.3046
-110.51 -48.6224 -37.0688 -0.07088122 -0.6200773 -0.7813322 0.7174 0.3403
-56.635 -44.6472 -36.8755 0.09551407 -0.7095065 -0.698196 0.6115 0.3479
-27.9123 -62.1514 -6.3654 0.4274736 -0.4812437 -0.7652913 0.5549 0.3146
-180.172 -45.9724 -7.23461 -0.3907059 -0.8965136 -0.2088358 0.8561 0.3414
-177.854 -37.3938 -31.2024 -0.3573101 -0.6097891 -0.7074509 0.8496 0.3619
-138.637 -47.5443 -35.3896 -0.2509622 -0.6302296 -0.7347303 0.7726 0.3424
-153.728 -58.3072 -8.39941 -0.2575555 -0.9431641 -0.2100157 0.8042 0.3178
36.5242 -8.2651 -40.7366 0.2895698 -0.2012082 -0.9357696 0.4285 0.4175
99.1113 -27.8887 -5.8269 0.4163498 0.02223496 -0.9089326 0.3053 0.3802
2.6296 -9.7784 -47.4351 0.1618897 -0.1689494 -0.9722385 0.4951 0.4146
-112.489 -4.5676 -55.4713 -0.01076714 0.113281 -0.9935047 0.7214 0.4245
-75.2373 -8.7276 -55.3603 0.06468891 -0.1604642 -0.9849196 0.6482 0.4166
-176.86 -4.3953 -37.9404 -0.3988367 0.03157687 -0.9164782 0.8478 0.425
-137.976 -1.1227 -52.8772 -0.2059767 0.3410632 -0.9171965 0.7715 0.4311
46.914 9.9946 -34.9501 0.3797058 0.2249615 -0.8973382 0.408 0.4525
86.2028 -4.5395 -9.9498 0.3702208 0.05063315 -0.9275629 0.3307 0.4249
9.4605 17.6463 -40.7112 0.1811224 0.3037047 -0.935392 0.4817 0.4671
-112.495 20.064 -47.7081 -0.0685024 0.3463032 -0.9356183 0.7213 0.4717
-72.8175 26.6968 -47.5535 0.005465535 0.3295119 -0.9441356 0.6434 0.4844
-176.657 12.027 -35.7282 -0.3942236 0.222215 -0.8917446 0.8447 0.4566
-140.641 18.8451 -45.5113 -0.2170128 0.3411175 -0.914628 0.7766 0.4694
55.5853 22.8025 -27.6097 0.3869635 0.2097291 -0.8979271 0.391 0.4771
87.4111 6.7174 -8.8689 0.2604868 0.07484988 -0.9625717 0.3283 0.4464
13.9959 36.0988 -30.003 0.1702696 0.4274594 -0.8878551 0.4727 0.5025
-114.181 43.6968 -37.3016 -0.08156536 0.4126787 -0.9072174 0.7246 0.517
-71.8783 49.0012 -37.1426 0.06948134 0.438143 -0.896216 0.6415 0.5272
-178.012 30.4573 -30.0346 -0.3643611 0.310616 -0.8779287 0.8462 0.4926
-141.183 37.0373 -36.1029 -0.1807551 0.3725303 -0.9102466 0.7776 0.5043
-241.131 -3.6698 -6.88311 -0.9086432 0.1483607 -0.3903289 0.9759 0.4224
-239.058 -1.6396 -6.86941 -0.7537793 0.4930985 -0.4343624 0.9698 0.4304
-222.688 -18.2429 -17.2272 -0.4878531 -0.1204941 -0.8645695 0.9377 0.3986
-226.582 -21.3447 -6.89331 -0.6425435 -0.7368389 -0.2102533 0.9473 0.3885
-237.89 0.7722 -6.85741 -0.7588521 0.004371142 -0.6512483 0.9675 0.4351
-207.959 -2.5057 -20.8869 -0.3953446 0.1149236 -0.9113151 0.9108 0.4287
-240.481 6.6798 -6.84641 -0.8079031 0.02621001 -0.5887323 0.9726 0.4464
-204.333 9.5638 -20.115 -0.4279152 0.1462684 -0.8919048 0.9042 0.4516
-238.434 17.4713 -6.80371 -0.806587 0.3618753 -0.467401 0.9685 0.467
-204.789 22.4604 -16.5289 -0.3689665 0.1750014 -0.9128188 0.9066 0.4751
-197.85 -30.127 -25.4307 -0.4818629 -0.4114039 -0.7736634 0.8889 0.3758
-199.941 -37.0552 -6.85661 -0.4580953 -0.8701972 -0.1813989 0.895 0.3585
-191.96 -1.9942 -28.6599 -0.4834097 0.09645396 -0.8700643 0.8752 0.4297
-190.077 11.6209 -27.6132 -0.4939281 0.1792028 -0.8508357 0.8736 0.4558
-189.73 29.505 -23.5405 -0.4478505 0.2691115 -0.8526482 0.8726 0.4906
-35.1119 -29.2944 -64.1284 0.5478616 -0.8037426 -0.2320461 0.6909 0.1488
-14.0341 5.3692 -73.1722 0.5538356 -0.01677039 -0.8324571 0.6497 0.2097
-15.0655 4.6665 -68.2205 0.7476288 0.4388765 0.4984361 0.6517 0.2085
-34.7221 -29.2962 -59.5145 0.4239778 -0.4415542 0.7907419 0.6901 0.1488
108.131 -5.3688 -8.4856 0.07420011 -0.02077841 -0.9970269 0.2876 0.4233
110.811 -20.8809 -5.7645 0.2785314 -0.6976215 -0.6601095 0.2823 0.3936
104.857 5.3005 -7.7701 0.06906062 0.07659284 -0.9946679 0.294 0.4437
132.114 -8.3453 -6.48019 0.04774256 -0.04136458 -0.9980028 0.2405 0.4176
135.202 -19.9973 -5.18009 -0.09623923 -0.8051413 -0.5852227 0.2344 0.3953
128.862 8.4005 -5.91219 0.05852304 0.0580637 -0.996596 0.2468 0.4497
197.669 -40.6344 -4.54009 -0.1197812 -0.5202464 -0.8455744 0.1116 0.3558
186.201 -11.7616 -4.37559 0.03741141 0.01589157 -0.9991736 0.1342 0.4111
241.16 -30.3854 -2.09289 0.5796329 0.02975605 -0.8143343 0.0262 0.3754
239.266 -50.1595 -2.95269 0.5644904 -0.7453197 -0.3547522 0.0299 0.3376
236.937 1.0601 -2.05529 0.7166898 0.09067801 -0.6914718 0.0345 0.4356
181.227 6.2844 -3.97689 0.03794343 0.01932305 -0.9990931 0.1439 0.4456
62.494 41.4387 -20.2559 0.3318423 0.2793952 -0.90101 0.3773 0.5128
67.4407 65.3628 -5.6222 0.2523258 0.4281144 -0.8677844 0.3675 0.5587
92.1183 48.2876 -5.5966 0.2711604 0.3176816 -0.9085981 0.319 0.526
85.9388 24.745 -7.7744 0.2599059 0.06860676 -0.9631937 0.3312 0.4809
-70.9391 71.3056 -26.7317 0.03654594 0.43426 -0.900046 0.6396 0.57
-67.2897 108.357 -5.9292 0.006950616 0.6793553 -0.7337766 0.6323 0.641
-17.9116 102.579 -5.7834 0.1305311 0.643088 -0.7545856 0.5352 0.6299
-27.1766 63.0551 -23.5482 0.1275403 0.4037678 -0.9059277 0.5536 0.5542
-115.867 67.3297 -26.895 -0.05651734 0.4344451 -0.8989234 0.7278 0.5623
-123.837 104.384 -6.13131 -0.09597865 0.8388015 -0.5359105 0.7434 0.6334
-189.225 81.446 -6.42621 -0.5717837 0.6142222 -0.5438699 0.8718 0.5895
-170.083 96.4534 -6.72661 -0.3407379 0.6787568 -0.6505283 0.8342 0.6182
-174.977 54.6106 -19.7074 -0.3331633 0.3416285 -0.8788016 0.8439 0.538
-188.361 49.9147 -15.8304 -0.3314692 0.2942821 -0.8963963 0.8702 0.5291
-207.505 61.3364 -6.55421 -0.5605223 0.4883592 -0.66882 0.9078 0.551
-207.393 41.4433 -11.7987 -0.3493527 0.236404 -0.9066785 0.9076 0.5129
-233.63 25.3747 -6.76131 -0.633384 0.3715994 -0.6787773 0.9591 0.4822
-226.27 39.3021 -6.69031 -0.763711 0.5615714 -0.3184073 0.9446 0.5088
-144.231 100.942 -7.84671 -0.146637 0.8848407 -0.4422155 0.7834 0.6268
-140.056 63.3512 -26.6635 -0.1686882 0.3805412 -0.9092484 0.7754 0.5547
102.084 44.947 -5.5744 0.08412968 0.2327503 -0.9688908 0.2995 0.5196
102.288 18.0134 -7.0454 0.06767573 0.06155392 -0.9958068 0.2991 0.4681
116.702 44.949 -4.45869 0.03373769 0.1496246 -0.9881672 0.2707 0.5196
125.025 23.2726 -5.35229 0.03952591 0.04702147 -0.9981115 0.2544 0.4781
188.504 64.7796 -3.08579 -0.1945527 0.6802862 -0.706654 0.1296 0.5576
234.564 76.9991 -1.86329 0.788816 0.4273939 -0.4417056 0.0391 0.581
234.318 33.029 -2.01049 0.6154539 0.03697835 -0.787305 0.0396 0.4968
188.74 26.1489 -3.53029 0.03084617 0.01334127 -0.9994351 0.1292 0.4837
94.1065 55.6738 -0.861596 0.07405279 0.2441088 -0.9669163 0.3151 0.5402
69.6721 73.9786 -0.882297 0.1504827 0.2206306 -0.963679 0.3631 0.5752
28.1223 89.4249 -5.6734 0.1956178 0.5301106 -0.8250554 0.4448 0.6048
31.6512 96.2861 -0.935099 0.1087172 0.2432979 -0.9638395 0.4378 0.6179
163.721 54.3017 -3.73689 0.147185 0.1825538 -0.9721166 0.1783 0.5375
99.77 109.565 -0.663296 -0.006980598 0.7164305 -0.6976236 0.304 0.6434
79.4104 110.487 -0.728197 0.01329725 0.7090514 -0.7050315 0.344 0.6451
34.3723 108.5 -0.885298 -0.01492522 0.7091029 -0.7049471 0.4325 0.6413
-67.9697 110.715 -1.2198 0.04972154 0.6466245 -0.7611863 0.6336 0.6456
-74.9932 113.568 -1.2338 0.008539869 0.7266781 -0.6869251 0.6474 0.651
-13.2129 -61.7125 -6.3149 0.0525158 -0.9431624 -0.3281565 0.526 0.3155
-35.1636 -38.2013 -35.9417 0.1220213 -0.5776793 -0.807092 0.5693 0.3603
-31.2742 -8.7404 -51.3496 0.1050687 -0.2267106 -0.9682783 0.5618 0.4166
-28.001 25.2901 -44.0842 0.1227913 0.3451326 -0.9304869 0.5553 0.4818
-27.5934 44.168 -32.4136 0.1348996 0.4503983 -0.8825778 0.5544 0.518
17.6587 54.8604 -21.8933 0.144283 0.3887964 -0.9099559 0.4654 0.5385
-16.3813 104.876 -1.0669 0.08453784 0.425406 -0.9010456 0.5322 0.6344
-16.6109 109.257 -1.0531 0.02671453 0.7088925 -0.7048105 0.5326 0.6428
159.157 -10.0534 -5.42789 0.0328283 -0.008684098 -0.9994233 0.1873 0.4143
166.436 -30.3159 -4.86009 -0.2084322 -0.6759148 -0.7068912 0.173 0.3756
157.439 9.2678 -4.93009 0.03587255 0.03061978 -0.9988872 0.1907 0.4513
163.293 26.2272 -4.41489 0.02760048 0.02406237 -0.9993294 0.1792 0.4838
55.3316 -63.5273 -4.1377 0.06540301 -0.1415401 -0.9877697 0.3913 0.312
39.2842 -68.3442 -4.2074 -0.1617195 -0.7344785 -0.6590813 0.4228 0.3028
96.1123 -47.0245 -3.9465 0.06128686 -0.1143859 -0.9915441 0.3112 0.3436
86.4615 -77.7852 -1.0172 -0.0842891 -0.5280355 -0.845029 0.3301 0.2847
73.0015 -67.9117 -2.1391 0.065724 -0.0911096 -0.9936697 0.3566 0.3036
121.933 -58.967 -1.94589 0.02770798 -0.08480821 -0.996012 0.2604 0.3207
142.483 -46.6498 -1.83619 0.4764776 0.5047536 -0.7198562 0.2201 0.3443
151.465 -78.6961 -0.803093 0.005675787 -0.01191187 -0.999913 0.2024 0.283
166.371 -72.2136 -0.731693 0.5281674 0.4720865 -0.7058141 0.1731 0.2954
-21.6578 -65.8192 -5.2469 0.6484292 0.1732666 -0.741295 0.5426 0.3076
-102.394 -69.7748 -5.5299 -0.2102185 -0.8088518 -0.5491512 0.7012 0.3
-19.6969 -69.8144 -1.8561 0.5822601 0.313064 -0.7503093 0.5387 0.3
-83.0986 -76.7752 -2.0911 -0.1586945 -0.5964629 -0.7867961 0.6633 0.2866
-6.0566 -78.98 -1.841 0.3100984 0.5175952 -0.7974548 0.5119 0.2824
-42.9748 -89.4821 -1.9993 -0.1965885 -0.8050422 -0.5596964 0.5845 0.2623
5.4695 -94.8229 -1.8553 -0.04459731 -0.8281539 -0.5587237 0.4893 0.2521
20.7486 -94.0277 -1.8016 0.3688162 -0.6933514 -0.6190625 0.4592 0.2536
128.161 110.127 -0.566494 0.06621456 0.6263466 -0.7767275 0.2482 0.6444
172.053 67.626 -0.561392 0.6417977 -0.3262414 -0.694019 0.1619 0.5631
149.141 -97.5084 -0.873493 -0.239662 -0.7943386 -0.558201 0.207 0.247
187.342 -108.24 -0.781592 -0.2281749 -0.7977509 -0.5581483 0.1319 0.2264
204.999 -113.56 -0.740291 0.06815306 -0.5206123 -0.8510687 0.0972 0.2162
179.105 78.3965 -0.501992 0.4477102 -0.5085917 -0.7354524 0.1481 0.5837
159.061 106.892 -0.474093 0.1253095 0.698229 -0.7048218 0.1875 0.6382
186.521 79.472 -0.473592 -0.04948251 -0.6926109 -0.7196122 0.1335 0.5857
191.195 100.038 -0.389492 0.5758951 0.5805917 -0.5755503 0.1243 0.6251
198.926 87.1791 0.203509 0.6942677 0.1637415 -0.7008432 0.1091 0.6005
198.417 75.1411 0.161709 0.767599 -0.4592523 -0.4470783 0.1101 0.5775
-128.867 -32.0984 -44.4289 -0.04711428 -0.3928609 -0.9183902 0.7535 0.3719
-113.733 -32.4687 -42.4159 0.02180161 -0.3772632 -0.9258494 0.7237 0.3712
-128.367 -2.0481 -58.1191 -0.2968703 0.1595906 -0.9414876 0.7526 0.4293
-115.154 -4.4987 -56.7924 0.3571793 0.8150362 -0.4562225 0.7266 0.4247
-104.284 -33.2539 -60.0972 -0.1952771 -0.7900528 -0.5811054 0.8261 0.1418
-104.462 -33.3163 -50.4731 0.28151 -0.6113629 0.7395861 0.8264 0.1418
-103.93 -1.777 -68.9949 -0.412838 0.6041664 -0.6815774 0.8341 0.1888
-105.526 -3.0854 -58.8043 0.1272249 0.6652843 0.7356701 0.8372 0.1866
-81.1291 -34.0673 -63.6083 -0.04779764 -0.7784198 -0.6259218 0.7808 0.1404
-80.7388 -34.0685 -59.1679 0.1875796 -0.6226016 0.7597244 0.78 0.1404
-80.685 4.2679 -72.3616 -0.2159805 0.636556 -0.7403708 0.78 0.2078
-81.7157 3.5658 -67.5964 -0.06378759 0.7437713 0.6653838 0.782 0.2066
-52.7768 -33.019 -64.7945 0.07182087 -0.7812378 -0.6200882 0.7254 0.1422
-52.3871 -33.0208 -60.1806 0.1072016 -0.6223767 0.7753419 0.7246 0.1422
-43.7731 9.8188 -73.8515 0.02738986 0.6797879 -0.7328971 0.7079 0.2176
-44.8045 9.1161 -68.8998 -0.04273744 0.7351115 0.6765978 0.7099 0.2163
66.3229 -47.6941 6.128 0.1737329 -0.3238005 0.9300377 0.3696 0.3424
83.0669 -37.8028 6.2168 0.2029663 -0.3568276 0.9118546 0.3367 0.3613
33.1965 -31.5811 27.0964 0.233152 -0.5200105 0.8217233 0.4346 0.3733
49.8558 -56.1737 6.0447 0.1364893 -0.3849761 0.9127782 0.402 0.3261
4.733 -33.0695 32.9523 0.1451023 -0.5523845 0.8208634 0.4905 0.3705
24.921 -62.2943 5.941 -0.006149902 -0.7277949 0.6857673 0.451 0.3144
-111.746 -65.2336 5.4746 -0.08739842 -0.7603242 0.6436371 0.7216 0.3046
-27.9526 -62.1918 5.7647 0.1662814 -0.8327143 0.5281453 0.5549 0.3146
-56.8775 -44.8905 36.1981 0.09086215 -0.714145 0.6940757 0.6115 0.3479
-110.753 -48.8658 36.0049 -0.07607592 -0.6252615 0.7766985 0.7174 0.3403
-180.215 -46.0155 5.72419 -0.3524605 -0.8462329 0.3995767 0.8561 0.3414
-153.779 -58.3584 6.98349 -0.1927992 -0.8646274 0.4639484 0.8042 0.3178
-138.868 -47.7758 34.145 -0.2562213 -0.6346689 0.729072 0.7726 0.3424
-177.988 -37.5279 29.764 -0.3612512 -0.6142081 0.7016025 0.8496 0.3619
99.0711 -27.9291 6.3032 0.4131692 -0.2269562 0.8819196 0.3053 0.3802
36.2532 -8.537 40.9238 0.2833183 -0.2074459 0.936321 0.4285 0.4175
2.3149 -10.0942 47.3854 0.1553937 -0.1754273 0.9721513 0.4951 0.4146
-75.6029 -9.0944 54.797 0.05810988 -0.1670218 0.9842393 0.6482 0.4166
-112.854 -4.9345 54.6868 -0.01740569 0.1066579 0.9941434 0.7214 0.4245
-138.324 -1.4717 51.9454 -0.2122492 0.3348184 0.9180669 0.7715 0.4311
-177.108 -4.6439 36.7276 -0.4047567 0.02503148 0.9140818 0.8478 0.425
86.135 -4.6076 10.4951 0.3640218 0.04444996 0.9303291 0.3307 0.4249
46.6808 9.7605 35.3286 0.3737036 0.2189757 0.9013298 0.408 0.4525
9.1896 17.3746 40.8902 0.1748628 0.2974668 0.9385822 0.4817 0.4671
-73.1321 26.3811 47.2426 -0.0008504121 0.3232167 0.9463246 0.6434 0.4844
-112.81 19.7483 47.0879 -0.07476064 0.3400649 0.9374256 0.7213 0.4717
-140.94 18.5447 44.695 -0.2229679 0.3349178 0.9154864 0.7766 0.4694
-176.852 11.8316 34.646 -0.4001345 0.2160661 0.8906222 0.8447 0.4566
87.3501 6.6563 9.4973 0.254052 0.06843153 0.9647667 0.3283 0.4464
55.4002 22.6169 28.1318 0.3809573 0.2037392 0.9018658 0.391 0.4771
13.7956 35.8978 30.3356 0.1643249 0.4215367 0.8917983 0.4727 0.5025
-72.1243 48.7543 36.987 0.06348193 0.4321638 0.8995579 0.6415 0.5272
-114.427 43.45 36.828 -0.08763488 0.4066279 0.9093811 0.7246 0.517
-141.42 36.7992 35.4046 -0.1864234 0.3663817 0.911598 0.7776 0.5043
-178.161 30.3082 29.0807 -0.3705397 0.3048999 0.8773462 0.8462 0.4926
-241.171 -3.7102 5.24709 -0.7679558 0.1941929 0.6103547 0.9759 0.4224
-226.622 -21.3851 5.23679 -0.5656664 -0.7226641 0.3972128 0.9473 0.3885
-222.797 -18.3522 15.617 -0.4934179 -0.1258834 0.8606347 0.9377 0.3986
-239.098 -1.68 5.26069 -0.6193212 0.5671503 0.5429382 0.9698 0.4304
-208.048 -2.5947 19.464 -0.4016183 0.1094838 0.9092392 0.9108 0.4287
-237.93 0.7318 5.27269 -0.3886574 0.09317023 0.9166596 0.9675 0.4351
-204.425 9.4714 18.7921 -0.434431 0.1408201 0.8896288 0.9042 0.4516
-240.521 6.6394 5.28369 -0.3320933 0.04612182 0.9421183 0.9726 0.4464
-204.869 22.3802 15.269 -0.3749945 0.1683752 0.9116079 0.9066 0.4751
-238.474 17.4309 5.32649 -0.2974156 0.1155352 0.9477318 0.9685 0.467
-199.982 -37.0956 5.27349 -0.4263222 -0.8361167 0.3451931 0.895 0.3585
-198.014 -30.2913 23.9069 -0.486566 -0.4167593 0.7678315 0.8889 0.3758
-192.104 -2.1389 27.3789 -0.4900758 0.09112654 0.8669035 0.8752 0.4297
-190.227 11.4709 26.4206 -0.5005797 0.1735692 0.8481118 0.8736 0.4558
-189.846 29.389 22.4751 -0.4545906 0.2632753 0.8509016 0.8726 0.4906
-35.5361 -29.7201 63.6958 0.5463237 -0.805289 0.2303044 0.6909 0.1488
-35.1158 -29.6911 59.0847 0.4292513 -0.4362705 -0.7908296 0.6901 0.1488
-15.5181 4.2123 68.1479 0.750917 0.4421591 -0.4905294 0.6517 0.2085
-14.5196 4.882 73.111 0.5482728 -0.02232881 0.8360015 0.6497 0.2097
110.771 -20.9213 6.3656 0.1681002 -0.7343599 0.6576153 0.2823 0.3936
108.072 -5.4276 9.172 0.0675368 -0.02741957 0.99734 0.2876 0.4233
104.803 5.2463 8.5057 0.06241103 0.06996471 0.9955952 0.294 0.4437
132.068 -8.3912 7.30711 0.04107286 -0.04801121 0.998002 0.2405 0.4176
135.165 -20.0343 5.95011 -0.06368144 -0.5932248 0.8025142 0.2344 0.3953
128.82 8.3581 6.82891 0.0518602 0.05142146 0.9973297 0.2468 0.4497
197.636 -40.6682 5.59011 -0.1995334 -0.7704043 0.6055276 0.1116 0.3558
239.243 -50.1834 4.21731 0.4915856 -0.6278775 0.6034181 0.0299 0.3376
241.142 -30.404 3.50191 0.8054329 0.02496844 0.5921608 0.0262 0.3754
186.168 -11.7946 5.54131 0.03073334 0.009236885 0.999485 0.1342 0.4111
236.918 1.0411 3.64551 0.7134085 0.07414643 0.6968146 0.0345 0.4356
181.196 6.2537 5.22951 0.03126637 0.01266765 0.9994308 0.1439 0.4456
234.544 76.9798 3.94341 0.2268863 0.8627114 0.4519421 0.0391 0.581
188.478 64.7534 4.77671 -0.2308125 0.6651886 0.7101055 0.1296 0.5576
62.3572 41.3014 20.9485 0.3258128 0.2733847 0.9050453 0.3773 0.5128
85.8848 24.6908 8.5131 0.2534657 0.06218508 0.9653436 0.3312 0.4809
92.078 48.2472 6.5335 0.2650762 0.3116211 0.9124839 0.319 0.526
67.4004 65.3224 6.5079 0.2465154 0.4223239 0.8722801 0.3675 0.5587
-71.1165 71.1276 26.7314 0.03052314 0.4282544 0.9031426 0.6396 0.57
-27.3337 62.8975 23.7855 0.1214759 0.3977259 0.9094272 0.5536 0.5542
-17.9519 102.538 6.3467 0.1254707 0.6380324 0.7597183 0.5352 0.6299
-67.3299 108.317 6.201 0.002032881 0.6744674 0.7383019 0.6323 0.641
-116.044 67.1516 26.568 -0.06253155 0.4284504 0.901399 0.7278 0.5623
-123.877 104.343 5.99879 -0.01424489 0.5303223 0.8476765 0.7434 0.6334
-189.266 81.4056 5.70389 -0.3059116 0.2738913 0.9118123 0.8718 0.5895
-188.463 49.8123 14.9035 -0.3374829 0.2884009 0.8960638 0.8702 0.5291
-175.105 54.482 18.901 -0.3392889 0.3361438 0.8785729 0.8439 0.538
-170.126 96.4103 6.23219 -0.2185597 0.3493624 0.9111409 0.8342 0.6182
-207.545 61.296 5.57589 -0.2371166 0.1842916 0.9538408 0.9078 0.551
-226.31 39.2617 5.43979 -0.003339205 -0.003332919 0.9999889 0.9446 0.5088
-233.671 25.3343 5.36879 -0.2377005 0.1504673 0.9596135 0.9591 0.4822
-207.467 41.3685 10.6884 -0.3555009 0.2295703 0.9060445 0.9076 0.5129
-144.282 100.891 7.55479 -0.07393814 0.4482935 0.8908233 0.7834 0.6268
-140.231 63.1753 26.1484 -0.1746364 0.3746922 0.9105536 0.7754 0.5547
102.239 17.9638 7.8485 0.06101917 0.05491746 0.9966247 0.2991 0.4681
102.044 44.9066 6.5557 0.07764918 0.2262928 0.9709594 0.2995 0.5196
124.987 23.2337 6.34251 0.03285293 0.04037114 0.9986445 0.2544 0.4781
116.669 44.9157 5.53761 0.02713224 0.1430404 0.9893449 0.2707 0.5196
188.711 26.1206 4.96551 0.02416622 0.006682758 0.9996856 0.1292 0.4837
234.299 33.0097 3.79621 0.610877 0.01449849 0.7915928 0.0396 0.4968
94.0974 55.6647 1.8612 0.06758574 0.2376645 0.9689932 0.3151 0.5402
69.6631 73.9695 1.8405 0.1440356 0.2142054 0.9661107 0.3631 0.5752
31.6421 96.277 1.7878 0.1022712 0.2368723 0.966143 0.4378 0.6179
28.0821 89.3845 6.4567 0.1900848 0.5245926 0.8298616 0.4448 0.6048
163.691 54.2719 5.19241 0.07766828 0.1232489 0.9893318 0.1783 0.5375
99.761 109.556 2.0596 0.003529023 0.7117093 0.7024653 0.304 0.6434
79.4014 110.478 1.9947 -0.01249013 0.7043687 0.7097245 0.344 0.6451
34.3633 108.491 1.8376 -0.005761444 0.7046105 0.7095709 0.4325 0.6413
-67.9788 110.706 1.503 0.0446195 0.6415465 0.7657854 0.6336 0.6456
-75.0022 113.559 1.489 0.04008546 0.3579074 0.9328963 0.6474 0.651
-16.6199 109.248 1.6698 0.03584937 0.7035822 0.709709 0.5326 0.6428
-13.2531 -61.7529 5.8153 0.04253944 -0.9456869 0.3222837 0.526 0.3155
-35.4006 -38.4391 35.4508 0.116639 -0.5830471 0.8040221 0.5693 0.3603
-31.6142 -9.0816 51.0801 0.09860292 -0.2331576 0.967427 0.5618 0.4166
-28.2936 24.9966 44.0636 0.1165637 0.338927 0.9335638 0.5553 0.4818
-27.809 43.9517 32.522 0.1289901 0.44451 0.8864381 0.5544 0.518
17.5117 54.713 22.3757 0.1381917 0.3827265 0.9134678 0.4654 0.5385
-16.3904 104.867 1.6559 0.07849956 0.4193719 0.9044142 0.5322 0.6344
166.4 -30.3513 5.77011 -0.2131375 -0.6806065 0.7009616 0.173 0.3756
159.118 -10.0929 6.42421 0.02614937 -0.01534023 0.9995403 0.1873 0.4143
157.403 9.2313 6.04361 0.02919687 0.02396473 0.9992864 0.1907 0.4513
163.26 26.1936 5.68051 0.02092201 0.0174053 0.9996296 0.1792 0.4838
39.2569 -68.3716 4.0145 -0.2315925 -0.8789776 0.4168494 0.4228 0.3028
55.3043 -63.5547 4.0842 0.05880472 -0.1481174 0.98722 0.3913 0.312
96.085 -47.0519 4.2754 0.05466136 -0.1209872 0.9911479 0.3112 0.3436
86.4545 -77.7922 1.0769 -0.1076464 -0.5294961 0.8414547 0.3301 0.2847
72.9872 -67.9261 2.1745 0.05908769 -0.09772187 0.9934582 0.3566 0.3036
121.919 -58.9814 2.36781 0.02105408 -0.09144159 0.9955878 0.2604 0.3207
142.469 -46.6642 2.47751 0.3928015 0.5595398 0.7298097 0.2201 0.3443
151.458 -78.703 1.29101 -0.001006067 -0.01857121 0.999827 0.2024 0.283
166.364 -72.2206 1.36241 0.5233905 0.4674075 0.7124553 0.1731 0.2954
-102.426 -69.8078 4.3807 -0.2349253 -0.8057499 0.5436702 0.7012 0.3
-21.6907 -65.8522 4.6636 0.5571821 0.2948056 0.7762975 0.5426 0.3076
-83.1089 -76.7855 1.0244 -0.2404552 -0.7937517 0.5586946 0.6633 0.2866
-19.7073 -69.8248 1.2594 0.6513233 0.1943978 0.7334763 0.5387 0.3
-42.9852 -89.4925 1.1161 -0.1468019 -0.8200501 0.5531429 0.5845 0.2623
-6.067 -78.9904 1.2745 0.3183978 0.5038667 0.8029579 0.5119 0.2824
5.4592 -94.8332 1.2602 -0.003414889 -0.8331442 0.5530453 0.4893 0.2521
20.7383 -94.0381 1.3139 0.6350678 0.4585458 0.6216307 0.4592 0.2536
172.044 67.6169 2.16151 0.7772777 -0.4488288 0.4408992 0.1619 0.5631
128.152 110.118 2.15631 0.03677035 0.6225781 0.7816933 0.2482 0.6444
149.134 -97.5154 1.22061 -0.235133 -0.8004961 0.551288 0.207 0.247
187.335 -108.247 1.31251 -0.2368865 -0.7999994 0.5512583 0.1319 0.2264
204.992 -113.567 1.35381 0.4954002 0.1704191 0.8517841 0.0972 0.2162
179.096 78.3875 2.22091 0.2729375 -0.6217838 0.7340913 0.1481 0.5837
159.052 106.883 2.24881 0.09594347 0.697445 0.7101868 0.1875 0.6382
186.512 79.4629 2.24921 -0.02343187 -0.44037 0.8975106 0.1335 0.5857
191.186 100.029 2.33341 0.3854564 0.7134637 0.5851434 0.1243 0.6251
198.411 75.1361 1.66461 0.1648289 -0.8766046 0.4521017 0.1101 0.5775
198.921 87.1741 1.70641 0.8646386 0.2096294 0.4565695 0.1091 0.6005
-114.012 -32.7479 41.4378 0.01562517 -0.383422 0.9234411 0.7237 0.3712
-129.158 -32.3907 43.352 -0.05323235 -0.3989649 0.9154198 0.7535 0.3719
-128.75 -2.4323 57.2451 -0.3031406 0.1533262 0.9405301 0.7526 0.4293
-115.528 -4.8742 55.9904 0.354073 0.8119816 0.4640239 0.7266 0.4247
-104.794 -33.6494 49.551 0.2864468 -0.6064324 -0.7417465 0.8264 0.1418
-104.679 -33.6511 59.1763 -0.1991373 -0.7938978 0.5745178 0.8261 0.1418
-104.385 -2.2342 68.2855 -0.4173873 0.5996127 0.6828268 0.8341 0.1888
-105.914 -3.4746 58.076 0.1321207 0.6701742 -0.7303497 0.8372 0.1866
-81.129 -34.46 58.3988 0.1926613 -0.6175278 -0.7625884 0.78 0.1404
-81.5488 -34.4884 62.8364 -0.05196204 -0.7825714 0.6203886 0.7808 0.1404
-81.1636 3.7876 71.8477 -0.2209371 0.6316054 0.7431429 0.78 0.2078
-82.1627 3.1174 67.0711 -0.05936218 0.7481994 -0.660813 0.782 0.2066
-52.7847 -33.4197 59.6079 0.1123938 -0.6171908 -0.7787446 0.7246 0.1422
-53.205 -33.4487 64.2191 0.06769348 -0.785358 0.6153297 0.7254 0.1422
-44.2626 9.3277 73.6211 0.02247583 0.6748934 0.7375729 0.7079 0.2176
-45.2611 8.658 68.6581 -0.0382315 0.7396058 -0.6719536 0.7099 0.2163
-113.733 -32.4687 -42.4159 0.2732104 -0.8822024 0.3835036 0.8444 0.1433
-128.867 -32.0984 -44.4289 -0.3770615 -0.6486695 -0.6610996 0.874 0.144
-128.367 -2.0481 -58.1191 -0.2053631 0.9785821 0.01424982 0.8708 0.1988
-115.154 -4.4987 -56.7924 0.2954853 0.4686818 0.8324817 0.8473 0.1925
-123.877 104.343 5.99879 -0.1727756 0.9849575 0.002736185 0.745 0.6518
-144.282 100.891 7.55479 -0.1687815 0.9856498 0.002705163 0.7851 0.6452
-114.012 -32.7479 41.4378 0.2757636 -0.8796373 -0.3875469 0.8444 0.1433
-129.158 -32.3907 43.352 -0.3814434 -0.6530498 0.6542376 0.874 0.144
-128.75 -2.4323 57.2451 -0.2052713 0.978663 -0.009078118 0.8708 0.1988
-115.528 -4.8742 55.9904 0.3010233 0.47421 -0.8273512 0.8473 0.1925
-153.779 -58.3584 6.98349 -0.2949884 -0.9554918 -0.004158238 0.8049 0.301
-180.215 -46.0155 5.72419 -0.4190032 -0.9079741 -0.004410472 0.8569 0.3246
-239.098 -1.68 5.26069 -0.9000068 0.4358733 -0.001516782 0.9787 0.436
-237.93 0.7318 5.27269 -0.9853436 0.1705602 -0.002681058 0.9764 0.4406
-240.521 6.6394 5.28369 -0.976795 -0.2141404 -0.00393373 0.9815 0.4519
-238.474 17.4309 5.32649 -0.9534146 0.3016557 -0.002138753 0.9775 0.4726
-226.31 39.2617 5.43979 -0.8477113 0.530457 -0.001052738 0.9463 0.5272
-207.545 61.296 5.57589 -0.7543001 0.6565297 -0.0003003759 0.9094 0.5694
-226.622 -21.3851 5.23679 -0.6041588 -0.7968504 -0.004660143 0.9481 0.3717
-241.171 -3.7102 5.24709 -0.7720689 -0.6355218 -0.004662622 0.9767 0.4056
-189.266 81.4056 5.70389 -0.7011743 0.71299 2.50568e-05 0.8735 0.6079
-199.982 -37.0956 5.27349 -0.4440652 -0.8959833 -0.004475219 0.8957 0.3417
-170.126 96.4103 6.23219 -0.4062511 0.91376 0.001678528 0.8359 0.6366
-111.746 -65.2336 5.4746 -0.1615541 -0.9868565 -0.003819734 0.7224 0.2878
-75.0022 113.559 1.489 -0.1850501 0.9827255 0.002674702 0.649 0.6694
-233.671 25.3343 5.36879 -0.8647434 0.5022126 -0.001226527 0.9608 0.5006
3 0 1 2 
3 0 2 3 
3 1 4 5 
3 1 5 2 
3 6 7 8 
3 6 8 9 
3 10 11 12 
3 10 12 13 
3 3 2 14 
3 3 14 15 
3 2 5 16 
3 2 16 14 
3 7 17 18 
3 7 18 8 
3 11 19 20 
3 11 20 12 
3 15 14 21 
3 15 21 22 
3 14 16 23 
3 14 23 21 
3 17 24 25 
3 17 25 18 
3 19 26 27 
3 19 27 20 
3 22 21 28 
3 22 28 29 
3 21 23 30 
3 21 30 28 
3 25 24 31 
3 25 31 32 
3 26 33 34 
3 26 34 27 
3 35 36 37 
3 35 37 38 
3 37 36 39 
3 37 39 40 
3 39 41 42 
3 39 42 40 
3 41 43 44 
3 41 44 42 
3 38 37 45 
3 38 45 46 
3 45 37 40 
3 45 40 47 
3 47 40 42 
3 47 42 48 
3 42 44 49 
3 42 49 48 
3 13 12 7 
3 13 7 6 
3 50 51 52 
3 50 52 53 
3 20 27 24 
3 20 24 17 
3 27 34 31 
3 27 31 24 
3 15 22 54 
3 15 54 55 
3 29 56 54 
3 29 54 22 
3 57 58 55 
3 57 55 54 
3 54 56 59 
3 54 59 57 
3 60 61 62 
3 60 62 63 
3 64 62 61 
3 64 61 65 
3 66 67 68 
3 66 68 69 
3 70 71 72 
3 70 72 73 
3 74 75 71 
3 74 71 70 
3 76 77 78 
3 76 78 79 
3 80 81 82 
3 80 82 83 
3 80 76 79 
3 80 79 81 
3 84 75 74 
3 84 74 85 
3 69 68 86 
3 69 86 87 
3 87 86 88 
3 87 88 89 
3 90 91 92 
3 90 92 93 
3 86 68 94 
3 86 94 88 
3 68 67 95 
3 68 95 94 
3 67 96 97 
3 67 97 95 
3 98 88 94 
3 98 94 99 
3 94 95 100 
3 94 100 99 
3 95 97 101 
3 95 101 100 
3 102 71 75 
3 102 75 103 
3 104 9 8 
3 104 8 105 
3 105 8 18 
3 105 18 106 
3 18 25 107 
3 18 107 106 
3 107 25 32 
3 107 32 108 
3 72 96 109 
3 72 109 73 
3 72 71 102 
3 72 102 110 
3 110 102 103 
3 110 103 111 
3 28 66 69 
3 28 69 29 
3 108 73 109 
3 108 109 30 
3 31 74 70 
3 31 70 32 
3 49 79 78 
3 49 78 33 
3 82 81 44 
3 82 44 43 
3 81 79 49 
3 81 49 44 
3 34 85 74 
3 34 74 31 
3 69 87 56 
3 69 56 29 
3 87 89 59 
3 87 59 56 
3 92 64 65 
3 92 65 93 
3 32 70 73 
3 32 73 108 
3 46 45 11 
3 46 11 10 
3 45 47 19 
3 45 19 11 
3 47 48 26 
3 47 26 19 
3 48 49 33 
3 48 33 26 
3 77 84 85 
3 77 85 78 
3 85 34 33 
3 85 33 78 
3 4 104 105 
3 4 105 5 
3 5 105 106 
3 5 106 16 
3 16 106 107 
3 16 107 23 
3 107 108 30 
3 107 30 23 
3 96 72 110 
3 96 110 97 
3 97 110 111 
3 97 111 101 
3 67 66 109 
3 67 109 96 
3 109 66 28 
3 109 28 30 
3 112 113 58 
3 112 58 57 
3 114 112 57 
3 114 57 59 
3 88 98 115 
3 88 115 89 
3 89 115 114 
3 89 114 59 
3 4 1 116 
3 4 116 117 
3 1 0 118 
3 1 118 116 
3 118 0 3 
3 118 3 15 
3 119 117 116 
3 119 116 120 
3 116 118 121 
3 116 121 120 
3 118 15 122 
3 118 122 121 
3 119 120 121 
3 119 121 123 
3 121 122 124 
3 121 124 123 
3 6 9 125 
3 6 125 126 
3 126 125 127 
3 126 127 128 
3 128 127 129 
3 128 129 130 
3 131 130 129 
3 131 129 132 
3 98 99 133 
3 98 133 134 
3 135 119 123 
3 135 123 136 
3 123 124 137 
3 123 137 136 
3 138 134 133 
3 138 133 139 
3 140 138 139 
3 140 139 141 
3 140 141 142 
3 140 142 143 
3 61 60 113 
3 61 113 112 
3 65 61 112 
3 65 112 114 
3 98 90 93 
3 98 93 115 
3 115 93 65 
3 115 65 114 
3 7 12 144 
3 7 144 145 
3 12 20 146 
3 12 146 144 
3 20 17 147 
3 20 147 146 
3 17 7 145 
3 17 145 147 
3 320 321 148 
3 320 148 149 
3 321 322 150 
3 321 150 148 
3 322 323 151 
3 322 151 150 
3 323 320 149 
3 323 149 151 
3 149 148 152 
3 149 152 153 
3 148 150 154 
3 148 154 152 
3 150 151 155 
3 150 155 154 
3 151 149 153 
3 151 153 155 
3 153 152 156 
3 153 156 157 
3 152 154 158 
3 152 158 156 
3 154 155 159 
3 154 159 158 
3 155 153 157 
3 155 157 159 
3 157 156 50 
3 157 50 53 
3 156 158 51 
3 156 51 50 
3 158 159 52 
3 158 52 51 
3 159 157 53 
3 159 53 52 
3 160 161 162 
3 160 162 163 
3 163 162 164 
3 163 164 165 
3 166 167 168 
3 166 168 169 
3 170 171 172 
3 170 172 173 
3 161 174 175 
3 161 175 162 
3 162 175 176 
3 162 176 164 
3 169 168 177 
3 169 177 178 
3 173 172 179 
3 173 179 180 
3 174 181 182 
3 174 182 175 
3 175 182 183 
3 175 183 176 
3 178 177 184 
3 178 184 185 
3 180 179 186 
3 180 186 187 
3 181 188 189 
3 181 189 182 
3 182 189 190 
3 182 190 183 
3 184 191 192 
3 184 192 185 
3 187 186 193 
3 187 193 194 
3 195 196 197 
3 195 197 198 
3 197 199 200 
3 197 200 198 
3 200 199 201 
3 200 201 202 
3 202 201 203 
3 202 203 204 
3 196 205 206 
3 196 206 197 
3 206 207 199 
3 206 199 197 
3 207 208 201 
3 207 201 199 
3 201 208 209 
3 201 209 203 
3 171 166 169 
3 171 169 172 
3 210 211 212 
3 210 212 213 
3 179 178 185 
3 179 185 186 
3 186 185 192 
3 186 192 193 
3 174 214 215 
3 174 215 181 
3 188 181 215 
3 188 215 216 
3 217 215 214 
3 217 214 218 
3 215 217 219 
3 215 219 216 
3 220 221 222 
3 220 222 223 
3 224 225 223 
3 224 223 222 
3 226 91 90 
3 226 90 227 
3 228 229 230 
3 228 230 231 
3 232 233 234 
3 232 234 235 
3 236 232 235 
3 236 235 237 
3 238 239 240 
3 238 240 241 
3 242 243 244 
3 242 244 245 
3 242 245 239 
3 242 239 238 
3 246 247 236 
3 246 236 237 
3 229 248 249 
3 229 249 230 
3 248 250 251 
3 248 251 249 
3 227 252 253 
3 227 253 226 
3 249 251 254 
3 249 254 230 
3 230 254 255 
3 230 255 231 
3 231 255 256 
3 231 256 257 
3 258 259 254 
3 258 254 251 
3 254 259 260 
3 254 260 255 
3 255 260 261 
3 255 261 256 
3 262 263 237 
3 262 237 235 
3 264 111 103 
3 264 103 263 
3 265 266 168 
3 265 168 167 
3 266 267 177 
3 266 177 168 
3 177 267 268 
3 177 268 184 
3 268 269 191 
3 268 191 184 
3 234 233 270 
3 234 270 257 
3 234 271 262 
3 234 262 235 
3 271 264 263 
3 271 263 262 
3 324 75 84 
3 324 84 325 
3 189 188 229 
3 189 229 228 
3 269 190 270 
3 269 270 233 
3 192 191 232 
3 192 232 236 
3 209 194 240 
3 209 240 239 
3 244 204 203 
3 244 203 245 
3 245 203 209 
3 245 209 239 
3 193 192 236 
3 193 236 247 
3 229 188 216 
3 229 216 248 
3 248 216 219 
3 248 219 250 
3 253 252 225 
3 253 225 224 
3 191 269 233 
3 191 233 232 
3 205 170 173 
3 205 173 206 
3 206 173 180 
3 206 180 207 
3 207 180 187 
3 207 187 208 
3 208 187 194 
3 208 194 209 
3 241 240 247 
3 241 247 246 
3 247 240 194 
3 247 194 193 
3 165 164 266 
3 165 266 265 
3 164 176 267 
3 164 267 266 
3 176 183 268 
3 176 268 267 
3 268 183 190 
3 268 190 269 
3 257 256 271 
3 257 271 234 
3 256 261 264 
3 256 264 271 
3 231 257 270 
3 231 270 228 
3 270 190 189 
3 270 189 228 
3 58 113 272 
3 58 272 218 
3 273 217 218 
3 273 218 272 
3 274 219 217 
3 274 217 273 
3 251 250 275 
3 251 275 258 
3 250 219 274 
3 250 274 275 
3 165 276 277 
3 165 277 163 
3 163 277 278 
3 163 278 160 
3 278 174 161 
3 278 161 160 
3 279 280 277 
3 279 277 276 
3 277 280 281 
3 277 281 278 
3 278 281 282 
3 278 282 174 
3 282 122 15 
3 282 15 174 
3 279 283 281 
3 279 281 280 
3 281 283 284 
3 281 284 282 
3 284 124 122 
3 284 122 282 
3 166 285 286 
3 166 286 167 
3 286 125 9 
3 286 9 167 
3 285 287 288 
3 285 288 286 
3 288 127 125 
3 288 125 286 
3 287 289 290 
3 287 290 288 
3 290 129 127 
3 290 127 288 
3 291 292 290 
3 291 290 289 
3 292 132 129 
3 292 129 290 
3 258 293 294 
3 258 294 259 
3 294 133 99 
3 294 99 259 
3 295 296 283 
3 295 283 279 
3 283 296 297 
3 283 297 284 
3 297 137 124 
3 297 124 284 
3 298 299 294 
3 298 294 293 
3 299 139 133 
3 299 133 294 
3 300 301 299 
3 300 299 298 
3 301 141 139 
3 301 139 299 
3 300 302 303 
3 300 303 301 
3 303 142 141 
3 303 141 301 
3 113 60 220 
3 113 220 272 
3 223 273 272 
3 223 272 220 
3 225 274 273 
3 225 273 223 
3 258 275 252 
3 258 252 227 
3 275 274 225 
3 275 225 252 
3 169 304 305 
3 169 305 172 
3 172 305 306 
3 172 306 179 
3 179 306 307 
3 179 307 178 
3 178 307 304 
3 178 304 169 
3 326 308 309 
3 326 309 327 
3 327 309 310 
3 327 310 328 
3 328 310 311 
3 328 311 329 
3 329 311 308 
3 329 308 326 
3 308 312 313 
3 308 313 309 
3 309 313 314 
3 309 314 310 
3 310 314 315 
3 310 315 311 
3 311 315 312 
3 311 312 308 
3 312 316 317 
3 312 317 313 
3 313 317 318 
3 313 318 314 
3 314 318 319 
3 314 319 315 
3 315 319 316 
3 315 316 312 
3 316 211 210 
3 316 210 317 
3 317 210 213 
3 317 213 318 
3 318 213 212 
3 318 212 319 
3 319 212 211 
3 319 211 316 
3 136 296 295 
3 136 295 135 
3 132 292 291 
3 132 291 131 
3 13 330 331 
3 13 331 10 
3 35 195 198 
3 35 198 36 
3 36 332 333 
3 36 333 39 
3 39 333 334 
3 39 334 41 
3 41 334 335 
3 41 335 43 
3 83 336 337 
3 83 337 80 
3 100 260 259 
3 100 259 99 
3 91 226 253 
3 91 253 92 
3 63 62 222 
3 63 222 221 
3 137 297 296 
3 137 296 136 
3 38 338 339 
3 38 339 35 
3 80 337 340 
3 80 340 76 
3 46 341 338 
3 46 338 38 
3 76 340 342 
3 76 342 77 
3 13 6 343 
3 13 343 330 
3 75 324 344 
3 75 344 103 
3 55 214 174 
3 55 174 15 
3 58 218 214 
3 58 214 55 
3 63 221 220 
3 63 220 60 
3 82 345 336 
3 82 336 83 
3 92 253 224 
3 92 224 64 
3 104 265 167 
3 104 167 9 
3 111 264 261 
3 111 261 101 
3 43 335 345 
3 43 345 82 
3 64 224 222 
3 64 222 62 
3 10 331 341 
3 10 341 46 
3 84 77 342 
3 84 342 325 
3 4 165 265 
3 4 265 104 
3 101 261 260 
3 101 260 100 
3 4 117 276 
3 4 276 165 
3 119 279 276 
3 119 276 117 
3 6 126 285 
3 6 285 166 
3 126 128 287 
3 126 287 285 
3 130 289 287 
3 130 287 128 
3 131 291 289 
3 131 289 130 
3 98 134 293 
3 98 293 258 
3 135 295 279 
3 135 279 119 
3 138 298 293 
3 138 293 134 
3 140 300 298 
3 140 298 138 
3 140 143 302 
3 140 302 300 
3 98 258 227 
3 98 227 90 
3 143 142 303 
3 143 303 302 
