ply
format ascii 1.0
comment VCGLIB generated
comment TextureFile dummy.png
element vertex 279
property float x
property float y
property float z
property float nx
property float ny
property float nz
property float texture_u
property float texture_v
element face 516
property list uchar int vertex_indices
end_header
-103.19 -20.0503 56.8915 0.2498669 0.1443622 -0.9574581 0.7107 0.4444
-138.029 -45.1627 37.7511 0.005518958 -0.008272008 0.9999506 0.7787 0.3947
-128.495 -55.9115 33.3705 0.3452323 -0.9363398 0.06389513 0.7601 0.3734
-89.3534 -39.8018 58.271 0.3597653 -0.9327743 0.02238376 0.6837 0.4053
-142.248 -49.9418 38.7552 -0.4068096 -0.4097884 0.8164432 0.7869 0.3852
-103.641 -20.0503 60.3482 -0.2232039 -0.1319742 0.9657965 0.7116 0.4444
-89.8034 -39.8018 61.7278 0.3417022 -0.9373193 0.068353 0.6846 0.4053
-117.027 -0.2989 55.5119 -0.706112 0.7005923 -0.1028414 0.7377 0.4835
-117.478 -0.2988 58.9686 -0.7127423 0.6973078 -0.07589772 0.7386 0.4835
-149.934 -35.8219 38.0538 -0.7146087 0.6950442 -0.07904498 0.8019 0.4132
-58.9732 8.4548 65.7673 0.76898 0.03203463 -0.6384698 0.8125 0.1981
-58.9706 8.4548 67.0987 0.6343005 0.1184758 0.7639545 0.8125 0.1981
-75.1088 61.2219 64.8125 -0.3814625 0.5669413 0.7301123 0.844 0.3025
-75.1114 61.2219 63.4811 0.517575 0.4310518 -0.7391282 0.844 0.3025
-64.2507 -44.3123 66.3507 0.7341403 -0.5275007 0.427529 0.8228 0.0937
-64.2533 -44.3123 65.0193 0.3538778 -0.8391024 -0.4131314 0.8228 0.0937
-103.19 -20.0503 -56.8914 0.2479102 0.1405938 0.958527 0.7107 0.4444
-89.3534 -39.8018 -58.271 0.3592719 -0.9329676 -0.02225101 0.6837 0.4053
-128.497 -55.8708 -33.7927 0.3448305 -0.9364814 -0.06398852 0.7601 0.3735
-138.029 -45.1627 -38.3224 -0.02989023 -0.03124899 -0.9990646 0.7787 0.3947
-89.8034 -39.8018 -61.7278 0.341378 -0.9374359 -0.06837462 0.6846 0.4053
-103.641 -20.0503 -60.3482 -0.2212768 -0.129747 -0.9665414 0.7116 0.4444
-142.248 -49.9418 -39.3264 -0.3989133 -0.4037878 -0.8233004 0.7869 0.3852
-117.027 -0.2989 -55.5119 -0.7065097 0.7001834 0.1028945 0.7377 0.4835
-149.934 -35.8219 -38.3394 -0.7149047 0.6947651 0.07882132 0.8019 0.4132
-117.478 -0.2989 -58.9686 -0.713055 0.6969891 0.07588642 0.7386 0.4835
-58.9732 8.4548 -65.7673 0.7689809 0.03203436 0.6384687 0.8125 0.1981
-75.1114 61.2219 -63.4811 0.5175765 0.4310528 0.7391266 0.844 0.3025
-75.1088 61.2219 -64.8125 -0.3814621 0.566935 -0.7301174 0.844 0.3025
-58.9706 8.4548 -67.0987 0.6343005 0.1184758 -0.7639545 0.8125 0.1981
-64.2533 -44.3123 -65.0193 0.3538782 -0.8391023 0.4131314 0.8228 0.0937
-64.2507 -44.3123 -66.3507 0.7341403 -0.5275007 -0.427529 0.8228 0.0937
57.939 -63.825 5.4459 0.1722321 -0.2306969 0.9576613 0.3963 0.3577
16.4456 -86.9053 5.4459 0.1862005 -0.4104585 0.8926663 0.4773 0.3121
26.6777 -60.6834 27.9578 0.2679713 -0.5100919 0.8173113 0.4573 0.3639
81.1164 -45.7392 5.4459 0.2982723 -0.3266534 0.8968452 0.3511 0.3935
-29.5148 -93.9158 5.4459 0.04990706 -0.4297449 0.9015701 0.567 0.2982
-17.1681 -60.6865 32.9362 0.09196947 -0.5167122 0.8512052 0.5429 0.3639
-58.8282 -60.6895 37.9147 0.04270477 -0.4894516 0.8709842 0.6242 0.3639
-62.9944 -92.0529 5.4459 0.1968332 -0.6104242 0.7672282 0.6323 0.3019
-119.023 -90.0074 5.44589 -0.2400106 -0.8603396 0.4496785 0.7416 0.3059
-99.9569 -59.6419 37.913 -0.1229883 -0.5687959 0.8132313 0.7044 0.366
-144.656 -77.3273 5.44589 -0.4551705 -0.7989979 0.3929659 0.7916 0.331
-167.692 -62.0979 5.44589 -0.5185227 -0.7673215 0.3772958 0.8366 0.3611
-161.814 -42.7519 24.0499 -0.5541167 -0.3732947 0.7440469 0.8251 0.3994
33.009 -18.527 40.6712 0.2680461 -0.1479142 0.9519836 0.445 0.4474
102.722 -22.5386 5.4459 0.3070782 -0.02356983 0.9513924 0.3089 0.4394
-13.3211 -18.5265 47.8795 0.1469055 -0.166226 0.9750835 0.5354 0.4474
-57.4443 -18.526 55.0877 0.05700647 -0.1322787 0.989572 0.6215 0.4474
-94.8203 -17.5138 55.0907 -0.1360404 -0.1985792 0.9705974 0.6944 0.4494
-162.699 -27.8341 24.0499 -0.515614 -0.08316328 0.8527755 0.8268 0.429
31.6257 16.6938 39.7232 0.3108234 0.2001025 0.9291651 0.4477 0.5171
101.798 -1.8515 9.6033 0.3155334 0.1200648 0.9412881 0.3107 0.4804
-10.0105 18.0901 46.7623 0.1773495 0.2176593 0.9597769 0.5289 0.5199
-54.9878 19.4864 53.8015 0.1052228 0.2072357 0.9726158 0.6167 0.5226
-94.7981 17.3477 53.8018 -0.1140677 0.2166892 0.9695537 0.6944 0.5184
-172.516 9.0069 24.0499 -0.5133448 0.07966702 0.8544766 0.846 0.5019
-148.159 15.6162 40.0887 -0.4109666 0.04306256 0.9106328 0.7985 0.515
101.729 8.4206 7.5246 0.24653 0.3563979 0.9012234 0.3109 0.5007
31.0941 40.6853 26.6788 0.3320685 0.4998858 0.799903 0.4487 0.5646
-9.1144 55.9187 30.7419 0.2197398 0.5286334 0.8199154 0.5272 0.5947
-98.1113 64.6773 34.805 -0.1152125 0.5128495 0.8507124 0.7008 0.6121
-53.0332 64.1591 34.805 0.06360529 0.524772 0.8488632 0.6129 0.611
-181.973 25.3436 14.7479 -0.5324917 0.2471326 0.8095543 0.8645 0.5342
-150.351 54.2419 26.8886 -0.3469279 0.3525711 0.8690999 0.8028 0.5914
57.939 -63.825 -6.5885 0.1613151 -0.2421535 -0.9567336 0.3963 0.3577
81.1164 -45.7392 -6.5885 0.2835768 -0.3235379 -0.9027223 0.3511 0.3935
26.6756 -60.6489 -29.0621 0.2676801 -0.5099245 -0.8175111 0.4573 0.364
16.4456 -86.9053 -6.5885 0.1813006 -0.417037 -0.8906235 0.4773 0.3121
-17.1706 -60.6459 -34.0432 0.09189162 -0.5166845 -0.8512303 0.5429 0.364
-29.5148 -93.9158 -6.5885 0.05327049 -0.4820819 -0.8745052 0.567 0.2982
-119.023 -90.0074 -6.58851 -0.2674752 -0.8802209 -0.3920052 0.7416 0.3059
-62.9944 -92.0529 -6.5885 -0.01974856 -0.6908961 -0.7226843 0.6323 0.3019
-58.8312 -60.6429 -39.0242 0.0426528 -0.4897081 -0.8708425 0.6242 0.364
-99.9598 -59.5953 -39.026 -0.1296676 -0.5667552 -0.8136185 0.7044 0.3661
-167.692 -62.0979 -6.58851 -0.5226071 -0.7640293 -0.3783399 0.8366 0.3611
-144.656 -77.3273 -6.58851 -0.4342359 -0.8081276 -0.397956 0.7916 0.331
-161.814 -42.7519 -25.1925 -0.545141 -0.3685048 -0.753011 0.8251 0.3994
102.722 -22.5386 -6.5885 0.3406389 -0.3230307 -0.8829589 0.3089 0.4394
33.0145 -18.5326 -41.8244 0.2680063 -0.1482932 -0.9519358 0.445 0.4474
-13.3146 -18.533 -49.0253 0.1468132 -0.1667741 -0.9750037 0.5354 0.4474
-57.4368 -18.5335 -56.2265 0.05692319 -0.1327511 -0.9895135 0.6215 0.4474
-94.8129 -17.5213 -56.2235 -0.1399948 -0.2012409 -0.9694862 0.6944 0.4494
-162.699 -27.8341 -25.1925 -0.5077073 -0.08309883 -0.8575127 0.8268 0.429
101.798 -1.8515 -10.746 0.2807837 0.07691572 -0.9566841 0.3107 0.4804
31.6267 16.6857 -40.8686 0.3108174 0.2001719 -0.9291522 0.4477 0.5171
-10.0094 18.0806 -47.9063 0.1772839 0.2176882 -0.9597824 0.5289 0.5198
-54.9866 19.4755 -54.9439 0.1051677 0.2071775 -0.9726342 0.6167 0.5226
-94.7969 17.3367 -54.9437 -0.114791 0.2159152 -0.969641 0.6944 0.5184
-148.158 15.608 -41.2296 -0.4102774 0.03685354 -0.9112158 0.7985 0.5149
-172.516 9.0069 -25.1925 -0.5116429 0.07866775 -0.8555893 0.846 0.5019
101.729 8.4206 -8.6672 0.2465316 0.3563977 -0.901223 0.3109 0.5007
31.0941 40.6849 -27.8217 0.3320592 0.4998726 -0.7999151 0.4487 0.5646
-9.1144 55.9183 -31.8846 0.219724 0.5286072 -0.8199365 0.5272 0.5947
-53.0332 64.1586 -35.9475 0.06359889 0.5247344 -0.848887 0.6129 0.611
-98.1113 64.6768 -35.9475 -0.1152118 0.5128141 -0.8507338 0.7008 0.6121
-150.351 54.2415 -28.0312 -0.3469083 0.3525325 -0.8691234 0.8028 0.5914
-181.973 25.3436 -15.8905 -0.5324782 0.2471267 -0.8095649 0.8645 0.5342
128.358 -97.5971 0.742206 0.6815925 -0.1677562 0.7122427 0.2589 0.2909
128.358 -97.5971 -1.88479 0.6561859 -0.2492632 -0.7122415 0.2589 0.2909
111.017 -130.667 -1.8848 0.3777386 -0.3808528 -0.8439578 0.2928 0.2254
111.017 -130.667 0.742205 0.553466 -0.5580289 0.6182873 0.2928 0.2254
83.8419 -144.633 0.742204 0.08536297 -0.6908603 0.7179312 0.3458 0.1978
83.8419 -144.633 -1.8848 0.2067708 -0.6646963 -0.7179309 0.3458 0.1978
-37.2395 -121.518 0.742198 0.09279939 -0.9281056 0.3605666 0.582 0.2435
-33.7295 -117.308 0.742199 0.7380597 -0.2016749 0.6438907 0.5752 0.2519
-33.7295 -117.308 -1.8848 0.8845503 0.2591302 -0.3878433 0.5752 0.2519
-37.2395 -121.518 -1.8848 0.3917142 -0.687344 -0.6116521 0.582 0.2435
-209.72 -42.0612 5.44589 -0.3893911 -0.8718101 0.2971898 0.9186 0.4008
-209.72 -42.0612 -6.58851 -0.4039882 -0.8982277 -0.1731488 0.9186 0.4008
-220.779 -35.7915 -6.58851 -0.6584451 -0.1346945 -0.7404779 0.9402 0.4132
-220.779 -35.7915 5.44589 -0.5669029 -0.4239311 0.7063311 0.9402 0.4132
-215.672 -29.0277 -6.58851 -0.637019 -0.4552615 -0.6220481 0.9302 0.4266
-215.672 -29.0277 5.44589 -0.7853785 0.04777998 0.6171692 0.9302 0.4266
-227.457 -25.0137 -6.58851 -0.6043413 -0.1744957 -0.7773821 0.9515 0.4356
-227.457 -25.0137 5.44589 -0.7483118 -0.2735795 0.6043044 0.9515 0.4356
-226.013 -20.6979 5.44589 -0.7263764 0.382131 0.5712734 0.9595 0.4399
-226.013 -20.6979 -6.58851 -0.7263778 0.3821309 -0.5712717 0.9516 0.4426
-202.623 4.2893 5.44589 -0.7537509 0.4149894 0.5095521 0.9135 0.4998
-224.569 -16.382 5.44589 -0.7607589 0.5985499 0.2509663 0.952 0.4686
-224.569 -16.382 -6.58851 -0.838584 0.4830701 -0.2518337 0.9476 0.4516
-202.623 4.2893 -6.58851 -0.699574 0.5013834 -0.5091277 0.9047 0.4925
-119.024 111.251 0.742195 -0.3084602 0.7767442 0.549109 0.7137 0.7315
-133.824 104.683 0.742194 -0.4187749 0.8722478 0.2526095 0.7681 0.7038
-133.824 104.683 -1.88481 -0.4603116 0.8509617 -0.2529376 0.7705 0.6912
-119.024 111.251 -1.88481 -0.3084602 0.7767442 -0.549109 0.7416 0.7042
63.6296 138.328 0.742103 0.2872667 0.6461256 0.7071065 0.3852 0.7578
49.4476 144.633 0.742102 0.2547035 0.9116727 0.322458 0.4129 0.7703
49.4476 144.633 -1.8849 0.1164046 0.939399 -0.3224585 0.4129 0.7703
63.6296 138.328 -1.8849 0.2872654 0.6461233 -0.7071091 0.3852 0.7578
77.8116 132.023 0.742103 0.2259995 0.3831836 0.8955973 0.3575 0.7453
77.8116 132.023 -1.8849 0.4054491 0.6874408 -0.6025249 0.3575 0.7453
110.171 107.555 -1.8849 0.562812 0.3992717 -0.7237575 0.2944 0.6969
110.171 107.555 0.742105 0.7889324 0.5596918 0.2536352 0.2944 0.6969
227.457 29.1709 0.66911 0.735404 -0.0163827 0.6774309 0.0656 0.5418
225.885 60.1776 0.66911 0.6934807 0.3483846 0.6306447 0.0686 0.6032
225.885 60.1776 -1.81169 0.3906524 0.6600856 -0.6416212 0.0686 0.6032
227.457 29.1709 -1.81169 0.7355177 0.008025148 -0.677458 0.0656 0.5418
224.556 -21.5889 0.66911 0.5833753 -0.08666581 0.8075657 0.0712 0.4413
224.556 -21.5889 -1.81169 0.8883558 -0.1434833 -0.4361612 0.0712 0.4413
210.15 -72.5727 -3.54639 0.3625396 -0.4934046 -0.7906434 0.0993 0.3404
210.15 -72.5727 2.40371 0.5216058 -0.7927882 0.3153003 0.0993 0.3404
131.014 -30.8749 0.742206 0.5683643 0.3406265 0.7489564 0.2537 0.4229
131.014 -30.8749 -1.88479 0.8254316 0.4946907 -0.2719261 0.2537 0.4229
132.72 -61.8427 -1.88479 0.7044971 -0.04420092 -0.7083292 0.2504 0.3617
132.72 -61.8427 0.742206 0.7058767 -0.002626062 0.7083299 0.2504 0.3617
-183.294 -37.9924 15.803 -0.3489193 -0.2895248 0.8913084 0.867 0.4089
-187.982 -49.6606 5.44589 -0.3759762 -0.81736 0.4365369 0.8762 0.3858
-184.278 -24.5392 15.803 -0.3036632 -0.06454048 0.950591 0.869 0.4355
-190.913 -3.7386 15.803 -0.406271 0.12895 0.9046081 0.8819 0.4767
-195.487 0.6647 10.6245 -0.4909665 0.2322678 0.8396449 0.8908 0.4854
-187.982 -49.6606 -6.58851 -0.4116515 -0.8000736 -0.4363776 0.8762 0.3858
-183.294 -37.9925 -16.9457 -0.3489191 -0.2895264 -0.891308 0.867 0.4089
-184.278 -24.5392 -16.9457 -0.3036632 -0.06454048 -0.950591 0.869 0.4355
-190.913 -3.7386 -16.9457 -0.4062716 0.1289529 -0.9046074 0.8819 0.4767
-195.487 0.6647 -11.7671 -0.4909683 0.2322695 -0.8396434 0.8908 0.4854
-191.431 41.6803 5.44589 -0.7861012 0.406245 0.4658433 0.8933 0.5739
-191.431 41.6803 -6.58851 -0.8150712 0.345574 -0.4650136 0.8829 0.5665
-153.776 91.5187 5.44589 -0.4839713 0.6246827 0.6128159 0.8271 0.657
-153.776 91.5187 -6.58851 -0.5211523 0.5924559 -0.6143259 0.823 0.6531
-134.531 -82.3359 5.44589 -0.361083 -0.8524013 0.3781947 0.7719 0.3211
-127.081 16.3001 45.5054 -0.2495194 0.143251 0.9577156 0.7573 0.5163
-108.926 98.3528 5.4459 -0.04966911 0.4883713 0.8712212 0.7219 0.6787
-129.716 58.3639 30.0156 -0.2024726 0.4186635 0.8852829 0.7625 0.5996
-136.06 94.2182 5.44589 -0.1355102 0.4578263 0.8786536 0.7775 0.6718
-134.531 -82.3359 -6.58851 -0.3633471 -0.8496222 -0.3822579 0.7719 0.3211
-127.08 16.2908 -46.6467 -0.2530734 0.1397106 -0.957306 0.7573 0.5163
-129.716 58.3635 -31.1582 -0.2024694 0.4186108 -0.8853085 0.7625 0.5996
11.5455 143.775 0.7421 -0.03624309 0.5983526 0.8004128 0.4869 0.7686
-39.916 136.719 0.742098 -0.148596 0.8181843 0.5554222 0.5873 0.7546
-39.916 136.719 -1.8848 -0.2098776 0.9249929 -0.3167643 0.5873 0.7546
11.5455 143.775 -1.8848 -0.05050084 0.5114644 -0.8578192 0.4869 0.7686
118.965 -1.5829 8.2097 0.06227319 0.02298985 0.9977943 0.2772 0.4809
119.889 -18.5981 5.44591 0.07531299 -0.7478103 0.659627 0.2754 0.4472
119.889 -18.5981 -6.58849 -0.03952682 -0.7522712 -0.6576669 0.2754 0.4472
118.965 -1.5829 -9.35229 0.06207833 0.02888963 -0.9976531 0.2772 0.4809
118.896 5.5337 -7.97039 0.04367347 0.1649124 -0.9853409 0.2774 0.495
115.73 90.2398 -1.88479 0.5771396 0.1621269 -0.8003904 0.2836 0.6627
122.66 56.0898 -1.88479 0.8211915 0.1311683 -0.5553733 0.27 0.5951
122.66 56.0898 0.742105 0.9420869 0.1102575 0.3167264 0.27 0.5951
115.73 90.2398 0.742105 0.4996153 0.1206808 0.8577999 0.2836 0.6627
101.66 18.6928 5.4459 0.1509593 0.266812 0.9518523 0.311 0.521
118.827 12.6503 5.44591 0.06762016 0.4952357 0.8661231 0.2775 0.5091
118.896 5.5337 6.82781 0.04367566 0.1649094 0.9853413 0.2774 0.495
133.88 -1.2433 6.97951 0.1115539 -0.03444162 0.9931614 0.2481 0.4816
133.024 -22.6168 4.44591 -0.1983193 -0.6922691 0.6938537 0.2498 0.4393
133.024 -22.6168 -5.58849 -0.2901079 -0.6654704 -0.6877402 0.2498 0.4393
133.88 -1.2433 -8.12219 0.1254844 -0.02144937 -0.9918637 0.2481 0.4816
136.614 10.8779 -6.85539 0.08708836 0.06885511 -0.9938182 0.2428 0.5056
118.827 12.6503 -6.58849 0.4632544 0.2120223 -0.8604894 0.2775 0.5091
139.348 22.999 -5.58849 -0.2923289 0.6717483 -0.68066 0.2375 0.5296
139.348 22.999 4.44591 -0.3035846 0.666252 0.6811349 0.2375 0.5296
136.614 10.8779 5.71271 0.0870922 0.06885261 0.993818 0.2428 0.5056
164.018 -7.6414 0.799507 0.05756587 -0.0180228 0.998179 0.1893 0.4689
159.119 -42.8216 0.799507 -0.4055423 -0.5813465 0.7053877 0.1989 0.3993
159.119 -42.8216 -1.94219 -0.3535308 -0.6102324 -0.7089658 0.1989 0.3993
164.018 -7.6414 -1.94219 0.02695516 -0.007566785 -0.999608 0.1893 0.4689
168.761 17.5007 -1.94219 0.05699917 0.003251453 -0.998369 0.1801 0.5187
173.504 42.6429 -1.94219 -0.3016767 0.6319474 -0.7138863 0.1708 0.5684
173.504 42.6429 0.799508 -0.2937797 0.6359769 0.7136014 0.1708 0.5684
168.761 17.5007 0.799507 0.05699967 0.0032509 0.9983689 0.1801 0.5187
204.104 -12.7552 2.40371 0.01768053 0.001433674 0.9998427 0.1111 0.4588
200.607 -70.9606 2.40371 -0.2900784 -0.6308066 0.7196788 0.1179 0.3436
200.607 -70.9606 -3.54639 -0.2171725 -0.6647376 -0.7148148 0.1179 0.3436
204.104 -12.7552 -3.54639 0.03399297 0.001873744 -0.9994203 0.1111 0.4588
205.811 23.9024 -3.54639 0.02080082 0.001488938 -0.9997826 0.1078 0.5314
207.518 60.56 -3.54639 -0.2193545 0.6637123 -0.7151012 0.1045 0.6039
207.518 60.56 2.40371 -0.1030867 0.6912788 0.7151971 0.1045 0.6039
205.811 23.9024 2.40371 0.02079848 0.001488984 0.9997826 0.1078 0.5314
25.8413 65.0076 5.4459 0.2444204 0.4019408 0.8824411 0.459 0.6127
-4.911 80.0927 5.4459 0.2172146 0.4849378 0.8471441 0.519 0.6426
-48.2435 98.6572 5.4459 0.09346944 0.4040511 0.9099485 0.6035 0.6793
101.66 18.6928 -6.5885 0.1472714 0.2751973 -0.9500408 0.311 0.521
25.8413 65.0076 -6.5885 0.227708 0.3723968 -0.8997054 0.459 0.6127
-4.911 80.0927 -6.5885 0.2172125 0.4849356 -0.847146 0.519 0.6426
-48.2435 98.6572 -6.5885 0.1084491 0.435292 -0.8937336 0.6035 0.6793
-108.926 98.3528 -6.5885 -0.04073052 0.4441936 -0.8950045 0.7219 0.6787
-136.06 94.2182 -6.58851 -0.1355093 0.4578229 -0.8786555 0.7775 0.6718
32.4161 87.7331 0.742201 0.06786752 0.1127318 0.991305 0.4461 0.6577
104.61 37.5283 0.742205 0.05583173 0.1134244 0.9919767 0.3053 0.5583
124.795 27.5536 0.742206 0.7025869 -0.1014896 0.7043235 0.2659 0.5386
124.795 27.5536 -1.88479 0.7287412 0.06071484 -0.6820924 0.2659 0.5386
104.61 37.5283 -1.8848 0.05938157 0.1049552 -0.9927025 0.3053 0.5583
32.4161 87.7331 -1.8848 0.04270407 0.07414071 -0.9963331 0.4461 0.6577
8.1477 99.8019 -1.8848 0.04750955 0.1022141 -0.9936273 0.4935 0.6816
-33.8336 118.471 -1.8848 0.01456496 0.1011435 -0.9947652 0.5754 0.7185
-96.3561 121.311 -1.8848 -0.1994728 0.57846 -0.7909455 0.6974 0.7241
-96.3561 121.311 0.742196 -0.1726337 0.6100243 0.7733486 0.6974 0.7241
-33.8336 118.471 0.742199 0.01382191 0.06552946 0.9977549 0.5754 0.7185
8.1477 99.8019 0.7422 0.04750997 0.1022151 0.9936272 0.4935 0.6816
36.1794 130.701 0.742102 4.9561e-07 1.102465e-06 1 0.4388 0.7427
60.8132 117.627 0.742103 7.193933e-07 1.367215e-06 1 0.3907 0.7169
60.8132 117.627 -1.8848 -1.361508e-06 -2.485517e-06 -1 0.3907 0.7169
36.1794 130.701 -1.8848 -1.114062e-06 -2.318917e-06 -1 0.4388 0.7427
28.9485 -141.874 0.742201 -0.2376635 -0.9174112 0.3191751 0.4529 0.2033
28.9485 -141.874 -1.8848 -0.1250343 -0.8199151 -0.5586642 0.4529 0.2033
112.256 -55.5845 0.742205 0.06262238 -0.0357851 0.9973956 0.2903 0.374
103.518 -85.4021 0.742205 0.03451441 -0.04707607 0.9982948 0.3074 0.315
58.5703 -106.301 0.742203 0.01968554 -0.06956615 0.9973831 0.3951 0.2737
9.4339 -118.575 0.7422 0.007654912 -0.07756842 0.9969577 0.491 0.2494
-20.8264 -123.445 0.742199 -0.3561519 -0.6261461 0.6936116 0.55 0.2397
-20.8264 -123.445 -1.8848 -0.3479037 -0.7674395 -0.5385161 0.55 0.2397
9.4339 -118.575 -1.8848 0.01102391 -0.08849109 -0.996016 0.491 0.2494
58.5703 -106.301 -1.8848 0.02374598 -0.06210341 -0.9977872 0.3951 0.2737
103.518 -85.4021 -1.8848 0.04122365 -0.03950499 -0.9983687 0.3074 0.315
112.256 -55.5845 -1.8848 0.07734109 -0.03964 -0.9962164 0.2903 0.374
117.237 -22.5037 -1.88479 0.169079 0.6708644 -0.722048 0.2806 0.4395
117.237 -22.5037 0.742205 0.3386461 0.6123784 0.714361 0.2806 0.4395
-101.702 -96.9057 -1.8848 -0.2467817 -0.8326927 -0.4957032 0.7078 0.2923
-62.6878 -95.1215 -1.8848 0.6548665 0.1167601 -0.7466706 0.6317 0.2958
-62.6878 -95.1215 0.742197 0.5814049 0.1794162 0.7935857 0.6317 0.2958
-101.702 -96.9057 0.742196 -0.2560622 -0.7587055 0.5989977 0.7078 0.2923
-80.9402 -106.604 -1.8848 -0.2757255 -0.6510068 -0.707224 0.6673 0.2731
-53.266 -99.261 -1.8848 0.3372225 0.6185716 -0.7096832 0.6133 0.2876
-53.266 -99.261 0.742198 0.3889772 0.5874069 0.709683 0.6133 0.2876
-80.9402 -106.604 0.742197 -0.287524 -0.6458834 0.7072232 0.6673 0.2731
-56.5317 -116.423 -1.8848 -0.2085207 -0.6750265 -0.7077135 0.6197 0.2536
-40.7886 -109.147 -1.8848 0.4719386 0.524707 -0.7084889 0.589 0.268
-40.7886 -109.147 0.742198 0.5038819 0.494112 0.7084888 0.589 0.268
-56.5317 -116.423 0.742198 -0.2363146 -0.6658065 0.7077125 0.6197 0.2536
-103.19 -20.0503 56.8915 0.2498669 0.1443622 -0.9574581 0.8988 0.1417
-117.027 -0.2989 55.5119 -0.706112 0.7005923 -0.1028414 0.9258 0.1808
-89.8034 -39.8018 61.7278 0.3417022 -0.9373193 0.068353 0.8726 0.1026
-89.3534 -39.8018 58.271 0.3597653 -0.9327743 0.02238376 0.8718 0.1026
-103.641 -20.0503 60.3482 -0.2232039 -0.1319742 0.9657965 0.8996 0.1417
-117.478 -0.2988 58.9686 -0.7127423 0.6973078 -0.07589772 0.9266 0.1808
-103.19 -20.0503 -56.8914 0.2479102 0.1405938 0.958527 0.8988 0.1417
-117.027 -0.2989 -55.5119 -0.7065097 0.7001834 0.1028945 0.9258 0.1808
-89.8034 -39.8018 -61.7278 0.341378 -0.9374359 -0.06837462 0.8726 0.1026
-89.3534 -39.8018 -58.271 0.3592719 -0.9329676 -0.02225101 0.8718 0.1026
-103.641 -20.0503 -60.3482 -0.2212768 -0.129747 -0.9665414 0.8996 0.1417
-117.478 -0.2989 -58.9686 -0.713055 0.6969891 0.07588642 0.9266 0.1808
-226.013 -20.6979 5.44589 -0.7263764 0.382131 0.5712734 0.9516 0.4426
-202.623 4.2893 5.44589 -0.7537509 0.4149894 0.5095521 0.9047 0.4925
-224.569 -16.382 5.44589 -0.7607589 0.5985498 0.2509663 0.9476 0.4516
-191.431 41.6803 5.44589 -0.7861012 0.406245 0.4658433 0.8829 0.5665
-153.776 91.5187 5.44589 -0.4839713 0.6246827 0.6128159 0.823 0.6531
-119.024 111.251 0.742195 -0.3084602 0.7767442 0.549109 0.7416 0.7042
-133.824 104.683 0.742194 -0.4187748 0.8722478 0.2526094 0.7705 0.6912
3 3 2 1 
3 3 1 0 
3 6 5 4 
3 6 4 2 
3 6 2 3 
3 9 8 7 
3 13 12 11 
3 13 11 10 
3 13 10 260 
3 13 260 261 
3 15 14 262 
3 15 262 263 
3 262 14 11 
3 262 11 264 
3 12 13 261 
3 12 261 265 
3 0 1 9 
3 0 9 7 
3 4 5 8 
3 4 8 9 
3 10 11 14 
3 10 14 15 
3 10 15 263 
3 10 263 260 
3 264 11 12 
3 264 12 265 
3 19 18 17 
3 19 17 16 
3 22 21 20 
3 22 20 18 
3 18 20 17 
3 25 24 23 
3 29 28 27 
3 29 27 26 
3 266 26 27 
3 266 27 267 
3 268 31 30 
3 268 30 269 
3 29 31 268 
3 29 268 270 
3 267 27 28 
3 267 28 271 
3 24 19 16 
3 24 16 23 
3 25 21 22 
3 25 22 24 
3 31 29 26 
3 31 26 30 
3 269 30 26 
3 269 26 266 
3 28 29 270 
3 28 270 271 
3 35 34 33 
3 35 33 32 
3 34 37 36 
3 34 36 33 
3 41 40 39 
3 41 39 38 
3 44 43 42 
3 44 42 4 
3 46 45 34 
3 46 34 35 
3 45 47 37 
3 45 37 34 
3 49 41 38 
3 49 38 48 
3 9 50 44 
3 9 44 4 
3 52 51 45 
3 52 45 46 
3 53 47 45 
3 53 45 51 
3 55 49 48 
3 55 48 54 
3 57 56 50 
3 57 50 9 
3 59 51 52 
3 59 52 58 
3 59 60 53 
3 59 53 51 
3 62 61 55 
3 62 55 54 
3 64 63 56 
3 64 56 57 
3 68 67 66 
3 68 66 65 
3 70 69 67 
3 70 67 68 
3 74 73 72 
3 74 72 71 
3 77 22 76 
3 77 76 75 
3 67 79 78 
3 67 78 66 
3 69 80 79 
3 69 79 67 
3 82 81 73 
3 82 73 74 
3 77 83 24 
3 77 24 22 
3 79 85 84 
3 79 84 78 
3 86 85 79 
3 86 79 80 
3 88 87 81 
3 88 81 82 
3 83 90 89 
3 83 89 24 
3 92 91 84 
3 92 84 85 
3 86 93 92 
3 86 92 85 
3 88 95 94 
3 88 94 87 
3 90 97 96 
3 90 96 89 
3 101 100 99 
3 101 99 98 
3 103 100 101 
3 103 101 102 
3 107 106 105 
3 107 105 104 
3 75 76 42 
3 75 42 43 
3 111 110 109 
3 111 109 108 
3 113 112 110 
3 113 110 111 
3 115 114 112 
3 115 112 113 
3 117 114 115 
3 117 115 116 
3 121 120 119 
3 121 119 118 
3 125 124 123 
3 125 123 122 
3 129 128 127 
3 129 127 126 
3 133 132 131 
3 133 131 130 
3 137 136 135 
3 137 135 134 
3 141 140 139 
3 141 139 138 
3 145 144 143 
3 145 143 142 
3 98 99 144 
3 98 144 145 
3 111 108 147 
3 111 147 146 
3 111 146 148 
3 111 148 113 
3 115 113 148 
3 115 148 149 
3 272 150 273 
3 272 273 274 
3 110 152 151 
3 110 151 109 
3 110 112 153 
3 110 153 152 
3 114 154 153 
3 114 153 112 
3 117 155 154 
3 117 154 114 
3 109 151 147 
3 109 147 108 
3 157 121 118 
3 157 118 156 
3 146 147 43 
3 146 43 44 
3 146 44 50 
3 146 50 148 
3 148 50 56 
3 148 56 149 
3 150 63 275 
3 150 275 273 
3 152 77 75 
3 152 75 151 
3 152 153 83 
3 152 83 77 
3 153 154 90 
3 153 90 83 
3 155 97 90 
3 155 90 154 
3 151 75 43 
3 151 43 147 
3 159 157 156 
3 159 156 158 
3 160 40 41 
3 160 41 2 
3 1 2 41 
3 1 41 49 
3 161 1 49 
3 161 49 55 
3 164 163 61 
3 164 61 162 
3 165 18 74 
3 165 74 71 
3 19 82 74 
3 19 74 18 
3 166 88 82 
3 166 82 19 
3 167 95 88 
3 167 88 166 
3 165 71 40 
3 165 40 160 
3 171 170 169 
3 171 169 168 
3 46 173 172 
3 46 172 52 
3 78 174 173 
3 78 173 46 
3 84 175 174 
3 84 174 78 
3 91 176 175 
3 91 175 84 
3 180 179 178 
3 180 178 177 
3 183 182 181 
3 183 181 58 
3 173 185 184 
3 173 184 172 
3 174 186 185 
3 174 185 173 
3 175 187 186 
3 175 186 174 
3 188 187 175 
3 188 175 176 
3 182 191 190 
3 182 190 189 
3 183 192 191 
3 183 191 182 
3 185 194 193 
3 185 193 184 
3 186 195 194 
3 186 194 185 
3 187 196 195 
3 187 195 186 
3 197 196 187 
3 197 187 188 
3 191 199 198 
3 191 198 190 
3 192 200 199 
3 192 199 191 
3 194 202 201 
3 194 201 193 
3 195 203 202 
3 195 202 194 
3 196 204 203 
3 196 203 195 
3 205 204 196 
3 205 196 197 
3 199 207 206 
3 199 206 198 
3 200 208 207 
3 200 207 199 
3 202 141 138 
3 202 138 201 
3 203 140 141 
3 203 141 202 
3 204 139 140 
3 204 140 203 
3 137 139 204 
3 137 204 205 
3 207 135 136 
3 207 136 206 
3 208 134 135 
3 208 135 207 
3 209 59 58 
3 209 58 181 
3 210 60 59 
3 210 59 209 
3 162 61 62 
3 162 62 211 
3 276 275 63 
3 276 63 64 
3 213 212 91 
3 213 91 92 
3 215 214 93 
3 215 93 94 
3 216 215 94 
3 216 94 95 
3 159 96 97 
3 159 97 157 
3 120 117 116 
3 120 116 119 
3 139 137 134 
3 139 134 138 
3 149 150 272 
3 149 272 115 
3 121 155 117 
3 121 117 120 
3 56 63 150 
3 56 150 149 
3 157 97 155 
3 157 155 121 
3 161 163 64 
3 161 64 57 
3 217 167 96 
3 217 96 159 
3 212 189 176 
3 212 176 91 
3 172 183 58 
3 172 58 52 
3 190 188 176 
3 190 176 189 
3 172 184 192 
3 172 192 183 
3 198 197 188 
3 198 188 190 
3 184 193 200 
3 184 200 192 
3 206 205 197 
3 206 197 198 
3 193 201 208 
3 193 208 200 
3 136 137 205 
3 136 205 206 
3 201 138 134 
3 201 134 208 
3 181 219 218 
3 181 218 209 
3 182 220 219 
3 182 219 181 
3 189 221 220 
3 189 220 182 
3 212 222 221 
3 212 221 189 
3 213 223 222 
3 213 222 212 
3 224 223 213 
3 224 213 214 
3 216 226 225 
3 216 225 215 
3 217 125 226 
3 217 226 216 
3 158 123 124 
3 158 124 159 
3 277 278 276 
3 277 276 164 
3 211 228 227 
3 211 227 162 
3 229 228 211 
3 229 211 210 
3 227 169 170 
3 227 170 226 
3 228 168 169 
3 228 169 227 
3 230 168 228 
3 230 228 229 
3 219 180 231 
3 219 231 218 
3 220 179 180 
3 220 180 219 
3 221 178 179 
3 221 179 220 
3 222 177 178 
3 222 178 221 
3 223 232 177 
3 223 177 222 
3 224 233 232 
3 224 232 223 
3 226 170 171 
3 226 171 225 
3 168 127 128 
3 168 128 171 
3 126 127 168 
3 126 168 230 
3 180 133 130 
3 180 130 231 
3 177 132 133 
3 177 133 180 
3 232 131 132 
3 232 132 177 
3 233 129 131 
3 233 131 232 
3 39 36 37 
3 39 37 38 
3 38 37 47 
3 38 47 48 
3 54 48 47 
3 54 47 53 
3 54 53 60 
3 54 60 62 
3 72 73 69 
3 72 69 70 
3 73 81 80 
3 73 80 69 
3 87 86 80 
3 87 80 81 
3 87 94 93 
3 87 93 86 
3 235 103 102 
3 235 102 234 
3 131 129 126 
3 131 126 130 
3 211 62 60 
3 211 60 210 
3 92 93 214 
3 92 214 213 
3 215 225 224 
3 215 224 214 
3 209 218 229 
3 209 229 210 
3 231 230 229 
3 231 229 218 
3 225 171 233 
3 225 233 224 
3 130 126 230 
3 130 230 231 
3 171 128 129 
3 171 129 233 
3 32 237 236 
3 32 236 35 
3 33 238 237 
3 33 237 32 
3 36 239 238 
3 36 238 33 
3 39 240 239 
3 39 239 36 
3 72 241 240 
3 72 240 39 
3 72 70 242 
3 72 242 241 
3 68 243 242 
3 68 242 70 
3 65 244 243 
3 65 243 68 
3 66 245 244 
3 66 244 65 
3 78 246 245 
3 78 245 66 
3 46 247 246 
3 46 246 78 
3 35 236 247 
3 35 247 46 
3 237 98 145 
3 237 145 236 
3 238 101 98 
3 238 98 237 
3 239 102 101 
3 239 101 238 
3 240 234 102 
3 240 102 239 
3 241 235 234 
3 241 234 240 
3 242 103 235 
3 242 235 241 
3 243 100 103 
3 243 103 242 
3 244 99 100 
3 244 100 243 
3 245 144 99 
3 245 99 244 
3 246 143 144 
3 246 144 245 
3 247 142 143 
3 247 143 246 
3 236 145 142 
3 236 142 247 
3 72 249 248 
3 72 248 71 
3 39 250 249 
3 39 249 72 
3 40 251 250 
3 40 250 39 
3 71 248 251 
3 71 251 40 
3 249 253 252 
3 249 252 248 
3 250 254 253 
3 250 253 249 
3 251 255 254 
3 251 254 250 
3 248 252 255 
3 248 255 251 
3 253 257 256 
3 253 256 252 
3 254 258 257 
3 254 257 253 
3 255 259 258 
3 255 258 254 
3 252 256 259 
3 252 259 255 
3 257 106 107 
3 257 107 256 
3 258 105 106 
3 258 106 257 
3 259 104 105 
3 259 105 258 
3 256 107 104 
3 256 104 259 
3 226 125 122 
3 226 122 227 
3 42 160 2 
3 42 2 4 
3 57 9 1 
3 57 1 161 
3 64 163 164 
3 64 164 276 
3 76 22 18 
3 76 18 165 
3 89 166 19 
3 89 19 24 
3 96 167 166 
3 96 166 89 
3 76 165 160 
3 76 160 42 
3 55 61 163 
3 55 163 161 
3 95 167 217 
3 95 217 216 
3 159 124 125 
3 159 125 217 
3 227 277 164 
3 227 164 162 
